<?xml version="1.0" standalone="no"?><!DOCTYPE svg PUBLIC "-//W3C//DTD SVG 1.1//EN" "http://www.w3.org/Graphics/SVG/1.1/DTD/svg11.dtd"><svg class="icon" width="200px" height="200.00px" viewBox="0 0 1024 1024" version="1.1" xmlns="http://www.w3.org/2000/svg"><path d="M183.4 64c-11.2 0-23.1 4.5-31.4 13.4-8.2 9-13.4 20.2-13.4 31.4v806.4c0 11.2 4.5 23.1 13.4 31.4 9 9 20.2 13.4 31.4 13.4h657.1c11.2 0 23.1-4.5 31.4-13.4 9-9 13.4-20.2 13.4-31.4V317.9L631.4 64h-448z m0 0" fill="#5CDBD3" /><path d="M885.3 317.9H676.2c-11.2 0-23.1-4.5-31.4-13.4-9-8.2-13.4-20.2-13.4-31.4V64l253.9 253.9z m0 0" fill="#E6FFFB" /><path d="M741.9 692.7l-93.3-144.9c-3-4.5-7.5-6.7-12.7-6.7-5.2 0-9.7 3-12.7 6.7l-50 77.7-112-181.4c-3-4.5-7.5-6.7-12.7-6.7-5.2 0-9.7 3-12.7 6.7L282 692.7c-3 4.5-3 10.5 0 14.9 3 5.2 7.5 7.5 12.7 7.5h434.6c5.2 0 10.5-3 13.4-7.5 2.2-5.2 2.2-11.2-0.8-14.9z m0 0M615 418.7c0 20.6 16.7 37.3 37.3 37.3s37.3-16.7 37.3-37.3-16.7-37.3-37.3-37.3S615 398 615 418.7z m0 0" fill="#FFFFFF" /></svg>