<?xml version="1.0" standalone="no"?><!DOCTYPE svg PUBLIC "-//W3C//DTD SVG 1.1//EN" "http://www.w3.org/Graphics/SVG/1.1/DTD/svg11.dtd"><svg class="icon" width="200px" height="200.00px" viewBox="0 0 1024 1024" version="1.1" xmlns="http://www.w3.org/2000/svg"><path d="M183.4 64c-11.2 0-23.1 4.5-31.4 13.4-8.2 9-13.4 20.2-13.4 31.4v806.4c0 11.2 4.5 23.1 13.4 31.4 9 9 20.2 13.4 31.4 13.4h657.1c11.2 0 23.1-4.5 31.4-13.4 9-9 13.4-20.2 13.4-31.4V317.9L631.4 64h-448z m0 0" fill="#FF8976" /><path d="M885.3 317.9H676.2c-11.2 0-23.1-4.5-31.4-13.4-9-8.2-13.4-20.2-13.4-31.4V64l253.9 253.9z m0 0" fill="#FFD0C8" /><path d="M394 394h164.3c65.7 0 86.6 44.1 86.6 91.1 0 44.8-26.1 90.3-85.9 90.3H450v112h-56V394z m56 135.9h90.3c32.1 0 49.3-9.7 49.3-44 0-35.8-23.1-44.8-44.8-44.8H450v88.8z m0 0" fill="#FFFFFF" /></svg>