<?xml version="1.0" standalone="no"?><!DOCTYPE svg PUBLIC "-//W3C//DTD SVG 1.1//EN" "http://www.w3.org/Graphics/SVG/1.1/DTD/svg11.dtd"><svg class="icon" width="200px" height="200.00px" viewBox="0 0 1024 1024" version="1.1" xmlns="http://www.w3.org/2000/svg"><path d="M183.5 64c-11.2 0-23.1 4.5-31.4 13.4-8.2 9-13.4 20.2-13.4 31.4v806.4c0 11.2 4.5 23.1 13.4 31.4 9 9 20.2 13.4 31.4 13.4h657.1c11.2 0 23.1-4.5 31.4-13.4 9-9 13.4-20.2 13.4-31.4V317.9L631.5 64h-448z m0 0" fill="#F6CF67" /><path d="M885.3 317.9h-209c-11.2 0-23.1-4.5-31.4-13.4-9-8.2-13.4-20.2-13.4-31.4V64l253.8 253.9z m0 0" fill="#FDF9E6" /><path d="M280.5 385.1h194.1c12.7 0 22.4-9.7 22.4-22.4s-9.7-22.4-22.4-22.4H280.5c-12.7 0-22.4 9.7-22.4 22.4s9.7 22.4 22.4 22.4z m0 149.3h462.9c12.7 0 22.4-9.7 22.4-22.4s-9.7-22.4-22.4-22.4H280.5c-12.7 0-22.4 9.7-22.4 22.4s9.7 22.4 22.4 22.4z m463 104.5h-463c-12.7 0-22.4 9.7-22.4 22.4s9.7 22.4 22.4 22.4h462.9c12.7 0 22.4-9.7 22.4-22.4s-9.6-22.4-22.3-22.4z m0 0" fill="#FFFFFF" /></svg>