<?xml version="1.0" standalone="no"?><!DOCTYPE svg PUBLIC "-//W3C//DTD SVG 1.1//EN" "http://www.w3.org/Graphics/SVG/1.1/DTD/svg11.dtd"><svg class="icon" width="200px" height="200.00px" viewBox="0 0 1024 1024" version="1.1" xmlns="http://www.w3.org/2000/svg"><path d="M183.5 64c-11.2 0-23.1 4.5-31.4 13.4-8.2 9-13.4 20.2-13.4 31.4v806.4c0 11.2 4.5 23.1 13.4 31.4 9 9 20.2 13.4 31.4 13.4h657.1c11.2 0 23.1-4.5 31.4-13.4 9-9 13.4-20.2 13.4-31.4V317.9L631.5 64h-448z m0 0" fill="#FF5562" /><path d="M885.3 317.9h-209c-11.2 0-23.1-4.5-31.4-13.4-9-8.2-13.4-20.2-13.4-31.4V64l253.8 253.9z m0 0" fill="#FFBBC0" /><path d="M683.7 821.1c-47 0-88.9-80.6-111.3-132.9-37.3-15.7-78.4-29.9-118-39.6-35.1 23.1-94.1 57.5-139.6 57.5-28.4 0-48.5-14.2-56-38.8-6-20.2-0.7-34.3 5.2-41.8 11.9-16.4 36.6-24.6 73.9-24.6 29.9 0 67.9 5.2 110.5 15.7 27.6-19.4 55.3-41.8 79.9-65.7-11.2-52.3-23.1-136.6 7.5-175.5 14.9-18.7 38.1-24.6 65.7-16.4 30.6 9 41.8 27.6 45.5 41.8 12.7 50.8-45.5 119.5-85.1 159.8 9 35.1 20.2 71.7 34.3 105.3 56.7 25.4 123.9 62.7 131.4 103.8 3 14.2-1.5 27.6-12.7 38.8-9.5 8.1-20 12.6-31.2 12.6z m-69.4-113.5c28.4 57.5 55.3 84.4 69.4 84.4 2.2 0 5.2-0.7 9.7-4.5 5.2-5.2 5.2-9 4.5-11.9-3-15-26.9-39.6-83.6-68zM338 630.7c-36.6 0-47 9-50 12.7-0.7 1.5-3.7 5.2-0.7 15.7 2.2 9 8.2 17.9 27.6 17.9 23.9 0 58.2-13.4 98.6-37.3-29.2-6-54.6-9-75.5-9z m147.9-4.5c23.9 6.7 48.5 14.9 71.7 23.9-8.2-21.7-14.9-44-20.9-65.7-16.5 14.2-33.7 28.4-50.8 41.8z m92.6-241.1c-8.2 0-14.2 3-19.4 9-15.7 19.4-17.2 68.7-5.2 131.4 45.5-48.5 70.2-93.3 64.2-117.2-0.7-3.7-3.7-14.2-24.6-20.2-6.1-2.3-10.6-3-15-3z m0 0" fill="#FFFFFF" /></svg>