<?xml version="1.0" standalone="no"?><!DOCTYPE svg PUBLIC "-//W3C//DTD SVG 1.1//EN" "http://www.w3.org/Graphics/SVG/1.1/DTD/svg11.dtd"><svg class="icon" width="200px" height="200.00px" viewBox="0 0 1024 1024" version="1.1" xmlns="http://www.w3.org/2000/svg"><path d="M183.4 64c-11.2 0-23.1 4.5-31.4 13.4-8.2 9-13.4 20.2-13.4 31.4v806.4c0 11.2 4.5 23.1 13.4 31.4 9 9 20.2 13.4 31.4 13.4h657.1c11.2 0 23.1-4.5 31.4-13.4 9-9 13.4-20.2 13.4-31.4V317.9L631.4 64h-448z m0 0" fill="#6CCBFF" /><path d="M885.3 317.9H676.2c-11.2 0-23.1-4.5-31.4-13.4-9-8.2-13.4-20.2-13.4-31.4V64l253.9 253.9z m0 0" fill="#C4EAFF" /><path d="M295.4 394h60.5l60.5 227.7h0.7L483.6 394h58.2L609 621.8 670.2 394h58.2l-89.6 293.4h-60.5L511.9 462h-0.7L444 686.7h-60.5L295.4 394z m0 0" fill="#FFFFFF" /></svg>