<?xml version="1.0" standalone="no"?><!DOCTYPE svg PUBLIC "-//W3C//DTD SVG 1.1//EN" "http://www.w3.org/Graphics/SVG/1.1/DTD/svg11.dtd"><svg class="icon" width="200px" height="200.00px" viewBox="0 0 1024 1024" version="1.1" xmlns="http://www.w3.org/2000/svg"><path d="M183.4 64c-11.2 0-23.1 4.5-31.4 13.4-8.2 9-13.4 20.2-13.4 31.4v806.4c0 11.2 4.5 23.1 13.4 31.4 9 9 20.2 13.4 31.4 13.4h657.1c11.2 0 23.1-4.5 31.4-13.4 9-9 13.4-20.2 13.4-31.4V317.9L631.4 64h-448z m0 0" fill="#5ACC9B" /><path d="M885.3 317.9H676.2c-11.2 0-23.1-4.5-31.4-13.4-9-8.2-13.4-20.2-13.4-31.4V64l253.9 253.9z m0 0" fill="#BDEBD7" /><path d="M477.6 535.9L376 394h70.2l66.5 101.6L582.1 394H650L546.3 535.9l109 150.8h-70.9l-73.2-107.5L438 687.5h-69.4l109-151.6z m0 0" fill="#FFFFFF" /></svg>