<?xml version="1.0" encoding="UTF-8"?>
<svg width="100px" height="100px" viewBox="0 0 100 100" version="1.1" xmlns="http://www.w3.org/2000/svg" xmlns:xlink="http://www.w3.org/1999/xlink">
    <!-- Generator: Sketch 59.1 (86144) - https://sketch.com -->
    <title>icon_nocase</title>
    <desc>Created with Sketch.</desc>
    <g id="页面1" stroke="none" stroke-width="1" fill="none" fill-rule="evenodd">
        <g id="案例-模块模式（为空）" transform="translate(-928.000000, -373.000000)">
            <g id="编组-4" transform="translate(928.000000, 373.000000)">
                <rect id="矩形" stroke="#979797" fill="#D8D8D8" opacity="0" x="0.5" y="0.5" width="99" height="99"></rect>
                <g id="编组-3" transform="translate(8.000000, 16.000000)">
                    <path d="M4,14.8593363 L51.7610514,14.8593363 C52.9003582,14.8593363 53.9856034,15.3451666 54.744497,16.1949315 L64.0898285,26.6592904 C64.7445155,27.3923708 65.106383,28.3408309 65.106383,29.3236951 L65.106383,64.2469626 C65.106383,66.4561016 63.315522,68.2469626 61.106383,68.2469626 L4,68.2469626 C1.790861,68.2469626 1.49484516e-13,66.4561016 1.49213975e-13,64.2469626 L1.49213975e-13,18.8593363 C1.48499344e-13,16.6501973 1.790861,14.8593363 4,14.8593363 Z" id="矩形复制-2" fill="#10BBB8" opacity="0.6"></path>
                    <circle id="椭圆形" fill="#FFCF6C" opacity="0.6" cx="68.1920377" cy="13.9367186" r="18.4579952"></circle>
                    <g id="编组-2" transform="translate(65.833516, 1.939022)" fill="#FFF9EC" fill-opacity="0.554987981" opacity="0.87">
                        <path d="M-2.81492652,5.12255977 L8.55741391,5.12255977 C9.66198341,5.12255977 10.5574139,6.01799027 10.5574139,7.12255977 L10.5574139,8.24978065 C10.5574139,9.35435015 9.66198341,10.2497807 8.55741391,10.2497807 L-2.81492652,10.2497807 C-3.91949602,10.2497807 -4.81492652,9.35435015 -4.81492652,8.24978065 L-4.81492652,7.12255977 C-4.81492652,6.01799027 -3.91949602,5.12255977 -2.81492652,5.12255977 Z" id="矩形复制-6" transform="translate(2.871244, 7.686170) rotate(-270.000000) translate(-2.871244, -7.686170) "></path>
                        <path d="M2.6106054,18.6863896 L3.13188199,18.6863896 C4.23645149,18.6863896 5.13188199,19.5818201 5.13188199,20.6863896 L5.13188199,21.8136104 C5.13188199,22.9181799 4.23645149,23.8136104 3.13188199,23.8136104 L2.6106054,23.8136104 C1.5060359,23.8136104 0.610605396,22.9181799 0.610605396,21.8136104 L0.610605396,20.6863896 C0.610605396,19.5818201 1.5060359,18.6863896 2.6106054,18.6863896 Z" id="矩形复制-7" transform="translate(2.871244, 21.250000) rotate(-270.000000) translate(-2.871244, -21.250000) "></path>
                    </g>
                    <path d="M15.6060414,27.7975689 L72.2595437,27.7975689 C74.4686827,27.7975689 76.2595437,29.5884299 76.2595437,31.7975689 C76.2595437,32.2369906 76.1871377,32.6734095 76.0452353,33.0892882 L64.9731487,65.5386819 C64.4205144,67.1583088 62.8987712,68.2469626 61.187457,68.2469626 L4.53395474,68.2469626 C2.32481574,68.2469626 0.533954739,66.4561016 0.533954739,64.2469626 C0.533954739,63.807541 0.606360719,63.3711221 0.748263071,62.9552434 L11.8203497,30.5058497 C12.372984,28.8862228 13.8947272,27.7975689 15.6060414,27.7975689 Z" id="矩形" fill="#10BBB8" opacity="0.6"></path>
                    <path d="M36.3538762,38.7784667 L37.7256975,39.3845155 C38.4501409,39.704563 38.9174867,40.4219499 38.9174867,41.2139403 L38.9174867,82.2318671 C38.9174867,83.2402266 38.1000498,84.0576634 37.0916904,84.0576634 C36.8375962,84.0576634 36.5862994,84.0046265 36.3538762,83.9019457 L34.982055,83.2958969 C34.2576115,82.9758493 33.7902658,82.2584625 33.7902658,81.4664721 L33.7902658,40.4485453 C33.7902658,39.4401858 34.6077027,38.622749 35.6160621,38.622749 C35.8701563,38.622749 36.1214531,38.6757858 36.3538762,38.7784667 Z" id="矩形复制-4" fill="#B4F4E7" opacity="0.87" transform="translate(36.353876, 61.340206) rotate(-270.000000) translate(-36.353876, -61.340206) "></path>
                </g>
            </g>
        </g>
    </g>
</svg>