<?xml version="1.0" encoding="UTF-8"?>
<svg width="60px" height="61px" viewBox="0 0 60 61" version="1.1" xmlns="http://www.w3.org/2000/svg" xmlns:xlink="http://www.w3.org/1999/xlink">
    <!-- Generator: Sketch 59.1 (86144) - https://sketch.com -->
    <g id="页面1" stroke="none" stroke-width="1" fill="none" fill-rule="evenodd">
        <g id="工作台-无数据" transform="translate(-1329.000000, -229.000000)">
            <g id="编组-6" transform="translate(1329.000000, 230.000000)">
                <rect id="矩形" stroke="#979797" fill="#D8D8D8" opacity="0" x="0.5" y="0.5" width="59" height="59"></rect>
                <g id="编组-3" transform="translate(6.000000, 2.000000)">
                    <path d="M27.5698511,40.2666273 L34.2607594,51.3752914 C35.115618,52.7945809 34.6580562,54.6381422 33.2387667,55.4930008 C32.7715134,55.7744341 32.2363717,55.9231497 31.6909083,55.9231497 L18.3090917,55.9231497 C16.6522374,55.9231497 15.3090917,54.5800039 15.3090917,52.9231497 C15.3090917,52.3776863 15.4578072,51.8425446 15.7392406,51.3752914 L22.4301489,40.2666273 C23.2850075,38.8473378 25.1285688,38.389776 26.5478583,39.2446346 C26.9667194,39.4969206 27.317565,39.8477662 27.5698511,40.2666273 Z" id="三角形" fill="#B4F4E7" opacity="0.87"></path>
                    <rect id="矩形" fill="#10BBB8" opacity="0.6" x="0" y="10" width="50" height="35.7142857" rx="4"></rect>
                    <rect id="矩形" fill="#10BBB8" opacity="0.6" x="9" y="4" width="5" height="24" rx="2"></rect>
                    <rect id="矩形复制" fill="#10BBB8" opacity="0.6" x="18" y="10" width="5" height="24" rx="2"></rect>
                    <rect id="矩形复制-2" fill="#10BBB8" opacity="0.6" x="27" y="6" width="5" height="24" rx="2"></rect>
                    <rect id="矩形复制-3" fill="#10BBB8" opacity="0.6" x="36" y="0" width="5" height="24" rx="2"></rect>
                </g>
            </g>
        </g>
    </g>
</svg>