<?xml version="1.0" standalone="no"?><!DOCTYPE svg PUBLIC "-//W3C//DTD SVG 1.1//EN" "http://www.w3.org/Graphics/SVG/1.1/DTD/svg11.dtd"><svg t="1561539272661" class="icon" viewBox="0 0 1024 1024" version="1.1" xmlns="http://www.w3.org/2000/svg" p-id="1581" xmlns:xlink="http://www.w3.org/1999/xlink" width="200" height="200"><defs><style type="text/css"></style></defs><path d="M854.3 232.3L590.5 84.4c-48.5-27.2-108.3-27.2-156.9 0L169.9 232.3c-48.5 27.2-78.4 77.5-78.4 131.9V660c0 54.4 29.9 104.7 78.4 131.9l263.8 147.9c48.5 27.2 108.3 27.2 156.9 0L854.3 792c48.5-27.2 78.4-77.5 78.4-131.9V364.2c0.1-54.4-29.8-104.7-78.4-131.9zM358.1 591.8l0.9-164.2s1.7-55.4-43.4-79.6c0 0 88.4-11.1 106.2 92 3.6 20.8 1.7 165.8 1.9 174.6 0.8 32.5 9.6 115.4 55.8 170.2-41.5-15.3-122-79.4-121.4-193z m317.9-137c-31.7 50.9-82.4 75.6-116.5 139.9-15.3 30.1-49.7 88.9-48.7 198.7-88.8-101-78.4-259.3 4.4-323.4 1.9-1.5 82.2-63.7 103.6-96.2 28.3-42.9 12.9-93.8-39.9-86.1-76 13.4-133.1 104.8-133.1 104.8-6 7.9-17 10.1-12.2-6.4 0 0 19.4-57.8 72.8-104.6 96.1-84.3 149.1-38.6 168.4-19.2 6.1 6.2 33.5 39.7 33.2 85.9-0.1 18.6-7.7 67.7-32 106.6z" p-id="1582"></path></svg>