<?xml version="1.0" standalone="no"?><!DOCTYPE svg PUBLIC "-//W3C//DTD SVG 1.1//EN" "http://www.w3.org/Graphics/SVG/1.1/DTD/svg11.dtd"><svg t="1573178953253" class="icon" viewBox="0 0 1024 1024" version="1.1" xmlns="http://www.w3.org/2000/svg" p-id="1931" xmlns:xlink="http://www.w3.org/1999/xlink" width="200" height="200"><defs><style type="text/css"></style></defs><path d="M512 1024C229.678389 1024 0 794.275794 0 512S229.678389 0 512 0s512 229.678389 512 512-229.747114 512-512 512z m0-962.834899c-248.55481 0-450.846353 202.245727-450.846353 450.869261S263.365011 962.834899 512 962.834899 962.800537 760.55481 962.800537 512 760.55481 61.119284 512 61.119284z" p-id="1932"></path><path d="M512 718.586846a30.479463 30.479463 0 0 1-21.61396-8.957137l-176.07302-176.050112a30.536734 30.536734 0 0 1 0-43.205011l176.038658-176.050112a30.559642 30.559642 0 0 1 43.216465 0l176.050112 176.050112a30.536734 30.536734 0 0 1 0 43.205011l-176.050112 176.050112a30.468009 30.468009 0 0 1-21.568143 8.957137zM379.131991 512l132.868009 132.868009 132.868009-132.868009-132.868009-132.868009z" p-id="1933"></path></svg>