<?xml version="1.0" encoding="UTF-8"?>
<svg width="22px" height="22px" viewBox="0 0 22 22" version="1.1" xmlns="http://www.w3.org/2000/svg" xmlns:xlink="http://www.w3.org/1999/xlink">
    <!-- Generator: Sketch 59.1 (86144) - https://sketch.com -->
l    <g id="页面1" stroke="none" stroke-width="1" fill="none" fill-rule="evenodd">
        <g id="公共模块-我的名片-编辑名片" transform="translate(-397.000000, -1062.000000)">
            <g id="编组-6" transform="translate(397.000000, 1062.000000)">
                <rect id="矩形" stroke="#979797" fill="#D8D8D8" opacity="0" x="0.5" y="0.5" width="21" height="21"></rect>
                <g id="编组" transform="translate(4.000000, 2.000000)" stroke-width="1.5">
                    <path d="M12.86495,6.86968333 C12.86495,10.1806833 10.18045,12.8651833 6.86945,12.8651833 C3.55845,12.8651833 0.875116667,10.1806833 0.875116667,6.86968333 C0.875116667,3.55868333 3.55845,0.87535 6.86945,0.87535 C10.18045,0.87535 12.86495,3.55868333 12.86495,6.86968333 Z" id="Stroke-1" stroke="#231815"></path>
                    <path d="M9.5347,6.86968333 C9.5347,8.34201667 8.34236667,9.53435 6.87003333,9.53435 C5.39886667,9.53435 4.20536667,8.34201667 4.20536667,6.86968333 C4.20536667,5.39851667 5.39886667,4.20501667 6.87003333,4.20501667 C8.34236667,4.20501667 9.5347,5.39851667 9.5347,6.86968333 Z" id="Stroke-3" stroke="#9EA1A6"></path>
                    <polyline id="Stroke-5" stroke="#231815" points="10.0394 11.5529167 10.0394 16.51125 6.86956667 14.8184167 3.69973333 16.51125 3.69973333 11.5529167"></polyline>
                </g>
            </g>
        </g>
    </g>
</svg>