<?xml version="1.0" encoding="UTF-8"?>
<svg width="40px" height="40px" viewBox="0 0 40 40" version="1.1" xmlns="http://www.w3.org/2000/svg" xmlns:xlink="http://www.w3.org/1999/xlink">
    <!-- Generator: Sketch 59.1 (86144) - https://sketch.com -->
    <g id="页面1" stroke="none" stroke-width="1" fill="none" fill-rule="evenodd">
        <g id="公共模块-我的名片-编辑名片" transform="translate(-545.000000, -258.000000)">
            <g id="编组-10" transform="translate(545.000000, 258.000000)">
                <rect id="矩形" stroke="#979797" fill="#D8D8D8" opacity="0" x="0.5" y="0.5" width="39" height="39"></rect>
                <g id="相机" transform="translate(3.000000, 6.000000)" fill="#C5C6C9" fill-rule="nonzero">
                    <path d="M17.1583454,10.2163372 C14.3479581,10.2163372 12.0583454,12.4745766 12.0583454,15.2563372 C12.0583454,18.0336612 14.3434687,20.2963372 17.1583454,20.2963372 C19.9687328,20.2963372 22.2583454,18.0380978 22.2583454,15.2563372 C22.253856,12.4790133 19.9687328,10.2163372 17.1583454,10.2163372 Z" id="路径"></path>
                    <path d="M29.8286304,5.63959302 C28.4088259,5.63959302 27.1637093,4.63122093 26.8663681,3.24331395 C26.5132753,1.59494186 25.0340025,0.396802326 23.3503076,0.396802326 L10.9400267,0.396802326 C9.25633176,0.396802326 7.77705898,1.59494186 7.42396623,3.24331395 C7.12662497,4.63122093 5.88150843,5.63959302 4.4617039,5.63959302 C2.29854621,5.63959302 0.540515988,7.39959302 0.540515988,9.56517442 L0.540515988,23.0386628 C0.540515988,25.2042442 2.29854621,26.9642442 4.4617039,26.9642442 L29.8286304,26.9642442 C31.9917881,26.9642442 33.7498183,25.2042442 33.7498183,23.0386628 L33.7498183,9.56517442 C33.7498183,7.39959302 31.9917881,5.63959302 29.8286304,5.63959302 Z M17.1470255,22.4209884 C13.3187568,22.4209884 10.2078238,19.3028488 10.2078238,15.4740116 C10.2078238,11.6451744 13.3224735,8.52703488 17.1470255,8.52703488 C20.9715775,8.52703488 24.0862273,11.6451744 24.0862273,15.4740116 C24.0862273,19.3028488 20.9715775,22.4209884 17.1470255,22.4209884 Z" id="形状"></path>
                </g>
            </g>
        </g>
    </g>
</svg>