<?xml version="1.0" encoding="utf-8"?>
<!-- Generator: Adobe Illustrator 22.0.1, SVG Export Plug-In . SVG Version: 6.00 Build 0)  -->
<svg version="1.1" id="图层_1" xmlns="http://www.w3.org/2000/svg" xmlns:xlink="http://www.w3.org/1999/xlink" x="0px" y="0px"
	 viewBox="0 0 88 88" style="enable-background:new 0 0 88 88;" xml:space="preserve">
<style type="text/css">
	.st0{fill:url(#path-2_2_);}
	.st1{fill:#FFFFFF;}
</style>
<title>icon_generate</title>
<desc>Created with Sketch.</desc>
<path id="path-2" d="M33,12h22c7.7,0,14,6.3,14,14v22c0,7.7-6.3,14-14,14H33c-7.7,0-14-6.3-14-14V26C19,18.3,25.3,12,33,12z"/>
<linearGradient id="path-2_2_" gradientUnits="userSpaceOnUse" x1="-199.9655" y1="289.9149" x2="-200.7926" y2="290.8383" gradientTransform="matrix(50 0 0 -50 10064 14557)">
	<stop  offset="0" style="stop-color:#10BBB8"/>
	<stop  offset="1" style="stop-color:#18DAB1"/>
</linearGradient>
<path id="path-2_1_" class="st0" d="M33,12h22c7.7,0,14,6.3,14,14v22c0,7.7-6.3,14-14,14H33c-7.7,0-14-6.3-14-14V26
	C19,18.3,25.3,12,33,12z"/>
<path class="st1" d="M39,47.1L39,47.1c-0.9,0-1.6-0.7-1.6-1.6v-17c0-0.9,0.7-1.6,1.6-1.6l0,0c0.9,0,1.6,0.7,1.6,1.6v17
	C40.6,46.4,39.9,47.1,39,47.1z"/>
<path class="st1" d="M49,47.1L49,47.1c-0.9,0-1.6-0.7-1.6-1.6v-17c0-0.9,0.7-1.6,1.6-1.6l0,0c0.9,0,1.6,0.7,1.6,1.6v17
	C50.6,46.4,49.9,47.1,49,47.1z"/>
</svg>
