<?xml version="1.0" encoding="UTF-8"?>
<svg width="130px" height="130px" viewBox="0 0 130 130" version="1.1" xmlns="http://www.w3.org/2000/svg" xmlns:xlink="http://www.w3.org/1999/xlink">
    <!-- Generator: Sketch 59.1 (86144) - https://sketch.com -->
    <title>image_invite</title>
    <desc>Created with Sketch.</desc>
    <g id="页面1" stroke="none" stroke-width="1" fill="none" fill-rule="evenodd">
        <g id="团队邀请通知-正常状态" transform="translate(-895.000000, -354.000000)">
            <g id="编组-2" transform="translate(895.000000, 354.000000)">
                <rect id="矩形" stroke="#979797" fill="#D8D8D8" opacity="0" x="10" y="10" width="110" height="110"></rect>
                <g id="image_invite" transform="translate(13.000000, 13.000000)">
                    <g id="编组-5" fill="#36C5C2" fill-opacity="0.27067854">
                        <circle id="椭圆形" cx="3.5" cy="3.5" r="3.5"></circle>
                        <circle id="椭圆形备份" cx="3.5" cy="52.5" r="3.5"></circle>
                        <circle id="椭圆形备份-4" transform="translate(52.500000, 101.500000) rotate(-270.000000) translate(-52.500000, -101.500000) " cx="52.5" cy="101.5" r="3.5"></circle>
                        <circle id="椭圆形备份-6" transform="translate(52.500000, 3.500000) rotate(-270.000000) translate(-52.500000, -3.500000) " cx="52.5" cy="3.5" r="3.5"></circle>
                        <circle id="椭圆形备份-3" transform="translate(3.500000, 101.500000) rotate(-270.000000) translate(-3.500000, -101.500000) " cx="3.5" cy="101.5" r="3.5"></circle>
                        <circle id="椭圆形备份-5" transform="translate(101.500000, 101.500000) rotate(-180.000000) translate(-101.500000, -101.500000) " cx="101.5" cy="101.5" r="3.5"></circle>
                        <circle id="椭圆形备份-4" transform="translate(101.500000, 52.500000) rotate(-180.000000) translate(-101.500000, -52.500000) " cx="101.5" cy="52.5" r="3.5"></circle>
                        <circle id="椭圆形备份-3" transform="translate(101.500000, 3.500000) rotate(-180.000000) translate(-101.500000, -3.500000) " cx="101.5" cy="3.5" r="3.5"></circle>
                    </g>
                    <g id="编组" transform="translate(29.000000, 26.000000)">
                        <path d="M4,51.1751652 L45.8400853,51.1751652 C48.0492243,51.1751652 49.8400853,49.3843042 49.8400853,47.1751652 L49.8400853,20.4384382 C49.8400853,18.2292992 48.0492243,16.4384382 45.8400853,16.4384382 L4,16.4384382 C1.790861,16.4384382 -2.705415e-16,18.2292992 0,20.4384382 L0,47.1751652 C2.23265109e-15,49.3843042 1.790861,51.1751652 4,51.1751652 Z" id="Fill-1" fill="#10BBB8" opacity="0.6"></path>
                        <path d="M5.23266525,4.00018124 L5.23266525,16.5896802 L5.23266525,16.5896802 L25.3725906,34.2602559 L45.5134222,16.5896802 L45.5134222,4.00018124 C45.5134222,1.79104224 43.7225612,0.000181236674 41.5134222,0.000181236674 L9.23266525,0.000181236674 C7.02352625,0.000181236674 5.23266525,1.79104224 5.23266525,4.00018124 Z" id="Fill-2" fill="#FFCF6C" opacity="0.6"></path>
                        <path d="M45.5139659,16.6651652 L45.5139659,16.6769456 L25.3731343,34.3475213 L5.23230277,16.6769456 L5.23230277,16.6651652 L4,16.6651652 C1.790861,16.6651652 -2.705415e-16,18.4560262 0,20.6651652 L0,47.4018923 C2.23265109e-15,49.6110313 1.790861,51.4018923 4,51.4018923 L45.8400853,51.4018923 C48.0492243,51.4018923 49.8400853,49.6110313 49.8400853,47.4018923 L49.8400853,20.6651652 C49.8400853,18.4560262 48.0492243,16.6651652 45.8400853,16.6651652 L45.5139659,16.6651652 L45.5139659,16.6651652 Z" id="Fill-3" fill="#10BBB8" opacity="0.6"></path>
                        <g id="纸飞机" transform="translate(3.731343, 3.731343)">
                            <path d="M28.8379187,1.59981343 C29.0503053,1.75214552 29.1339727,1.95811567 29.095357,2.21128731 L26.643258,16.9231343 C26.6110782,17.1076493 26.5081029,17.2513993 26.3364774,17.3543843 C26.2485194,17.4037313 26.1476894,17.4316231 26.0404235,17.4316231 C25.969628,17.4316231 25.8923965,17.414459 25.8108744,17.3822761 L21.4730405,15.6100746 L19.1539513,18.4378731 C19.0381041,18.5859142 18.8814958,18.6567164 18.6841265,18.6567164 C18.6026044,18.6567164 18.5318089,18.6438433 18.47174,18.618097 C18.3516022,18.573041 18.2529175,18.5000933 18.1799767,18.3928172 C18.1070359,18.2876866 18.0684201,18.1718284 18.0684201,18.043097 L18.0684201,14.7025187 L26.3429134,4.55848881 L16.1054537,13.4194963 L12.3232573,11.8682836 C12.0872723,11.7803172 11.9585532,11.6043843 11.9413906,11.3404851 C11.9285187,11.0851679 12.0293487,10.8963619 12.2481712,10.7740672 L28.1835966,1.57835821 C28.2801359,1.5204291 28.3809659,1.49253731 28.4903772,1.49253731 C28.6190963,1.49253731 28.7349435,1.52901119 28.8379187,1.59981343 Z" id="路径" fill="#FDF9F0" opacity="0.992209821" transform="translate(20.522388, 10.074627) rotate(9.000000) translate(-20.522388, -10.074627) "></path>
                            <path d="M9.58896166,18.4632413 L0.870959814,26.049636 C0.558030081,26.3178615 0.521790128,26.7889809 0.790015614,27.1019106 C1.0582411,27.4148403 1.52936049,27.4510803 1.84229022,27.1828548 L10.5602921,19.5964602 C10.8732218,19.3282347 10.9094618,18.8571153 10.6412363,18.5441855 C10.3730108,18.2312558 9.90189139,18.1950159 9.58896166,18.4632413 Z" id="直线" fill-opacity="0.771853147" fill="#FFF9EC" opacity="0.87"></path>
                            <path d="M14.7992801,19.9676909 L8.95003068,25.4077884 C8.64367991,25.6835041 8.61884528,26.1553622 8.89456096,26.4617129 C9.17027665,26.7680637 9.64213474,26.7928983 9.9484855,26.5171826 L15.7977349,21.0770852 C16.1040856,20.8013695 16.1289203,20.3295114 15.8532046,20.0231606 C15.5774889,19.7168099 15.1056308,19.6919752 14.7992801,19.9676909 Z" id="直线备份" fill-opacity="0.771853147" fill="#FFF9EC" opacity="0.87"></path>
                        </g>
                    </g>
                </g>
            </g>
        </g>
    </g>
</svg>