<?xml version="1.0" encoding="UTF-8"?>
<svg width="130px" height="130px" viewBox="0 0 130 130" version="1.1" xmlns="http://www.w3.org/2000/svg" xmlns:xlink="http://www.w3.org/1999/xlink">
    <!-- Generator: Sketch 59.1 (86144) - https://sketch.com -->
    <title>image_success</title>
    <desc>Created with Sketch.</desc>
    <g id="页面1" stroke="none" stroke-width="1" fill="none" fill-rule="evenodd">
        <g id="团队邀请通知-已加入状态" transform="translate(-894.000000, -394.000000)">
            <g id="编组-4" transform="translate(894.000000, 394.000000)">
                <rect id="矩形" stroke="#979797" fill="#D8D8D8" opacity="0" x="0" y="0" width="130" height="130"></rect>
                <g id="编组-3" transform="translate(5.000000, 4.000000)">
                    <g id="编组" fill="#C9EFEF">
                        <path d="M64.5137,3.4997 C64.5137,5.4327 62.9467,6.9997 61.0137,6.9997 C59.0807,6.9997 57.5137,5.4327 57.5137,3.4997 C57.5137,1.5667 59.0807,-0.0003 61.0137,-0.0003 C62.9467,-0.0003 64.5137,1.5667 64.5137,3.4997" id="Fill-1"></path>
                        <path d="M22.8721,17.7453 C24.2391,19.1123 24.2391,21.3283 22.8721,22.6953 C21.5051,24.0613 19.2891,24.0613 17.9221,22.6953 C16.5561,21.3283 16.5561,19.1123 17.9221,17.7453 C19.2891,16.3783 21.5051,16.3783 22.8721,17.7453" id="Fill-3"></path>
                        <path d="M3.5,57.2633 C5.433,57.2633 7,58.8303 7,60.7633 C7,62.6963 5.433,64.2633 3.5,64.2633 C1.567,64.2633 0,62.6963 0,60.7633 C0,58.8303 1.567,57.2633 3.5,57.2633" id="Fill-5"></path>
                        <path d="M17.7456,98.9049 C19.1126,97.5379 21.3286,97.5379 22.6956,98.9049 C24.0616,100.2719 24.0616,102.4879 22.6956,103.8549 C21.3286,105.2209 19.1126,105.2209 17.7456,103.8549 C16.3786,102.4879 16.3786,100.2719 17.7456,98.9049" id="Fill-7"></path>
                        <path d="M57.2637,118.277 C57.2637,116.344 58.8307,114.777 60.7637,114.777 C62.6967,114.777 64.2637,116.344 64.2637,118.277 C64.2637,120.21 62.6967,121.777 60.7637,121.777 C58.8307,121.777 57.2637,120.21 57.2637,118.277" id="Fill-9"></path>
                        <path d="M98.9053,104.0314 C97.5383,102.6644 97.5383,100.4484 98.9053,99.0814 C100.2723,97.7154 102.4883,97.7154 103.8553,99.0814 C105.2213,100.4484 105.2213,102.6644 103.8553,104.0314 C102.4883,105.3984 100.2723,105.3984 98.9053,104.0314" id="Fill-11"></path>
                        <path d="M118.2773,64.5133 C116.3443,64.5133 114.7773,62.9463 114.7773,61.0133 C114.7773,59.0803 116.3443,57.5133 118.2773,57.5133 C120.2103,57.5133 121.7773,59.0803 121.7773,61.0133 C121.7773,62.9463 120.2103,64.5133 118.2773,64.5133" id="Fill-13"></path>
                        <path d="M104.0317,22.8717 C102.6647,24.2387 100.4487,24.2387 99.0817,22.8717 C97.7157,21.5047 97.7157,19.2887 99.0817,17.9217 C100.4487,16.5557 102.6647,16.5557 104.0317,17.9217 C105.3987,19.2887 105.3987,21.5047 104.0317,22.8717" id="Fill-15"></path>
                    </g>
                    <g id="编组-2" transform="translate(64.000000, 55.500000) rotate(-315.000000) translate(-64.000000, -55.500000) translate(47.000000, 28.000000)" opacity="0.6">
                        <rect id="矩形" fill="#FFCF6C" transform="translate(16.750000, 48.750000) rotate(-360.000000) translate(-16.750000, -48.750000) " x="-5.63886715e-11" y="43" width="33.5" height="11.5"></rect>
                        <path d="M4.13185398,21.6286616 L50.2983505,21.2055139 C52.5073967,21.1852665 54.3145963,22.9596385 54.3348437,25.1686847 C54.3349557,25.1809048 54.3350117,25.1931253 54.3350117,25.2053459 L54.3350117,29.2050099 C54.3350117,31.3998452 52.566416,33.1847256 50.3716729,33.2048419 L4.20517638,33.6279895 C1.99613017,33.6482369 0.188930613,31.8738649 0.168683189,29.6648187 C0.168571183,29.6525986 0.16851518,29.6403781 0.16851518,29.6281575 L0.16851518,25.6284936 C0.16851518,23.4336583 1.9371109,21.6487779 4.13185398,21.6286616 Z" id="矩形备份" fill="#10BBB8" transform="translate(27.251763, 27.416752) rotate(-90.000000) translate(-27.251763, -27.416752) "></path>
                    </g>
                </g>
            </g>
        </g>
    </g>
</svg>