<?xml version="1.0" encoding="UTF-8"?>
<svg width="130px" height="131px" viewBox="0 0 130 131" version="1.1" xmlns="http://www.w3.org/2000/svg" xmlns:xlink="http://www.w3.org/1999/xlink">
    <!-- Generator: Sketch 59.1 (86144) - https://sketch.com -->
    <title>image_invaild</title>
    <desc>Created with Sketch.</desc>
    <g id="页面1" stroke="none" stroke-width="1" fill="none" fill-rule="evenodd">
        <g id="团队邀请通知-已失效状态" transform="translate(-894.000000, -393.000000)">
            <g id="编组" transform="translate(894.000000, 394.000000)">
                <rect id="矩形" stroke="#979797" fill="#D8D8D8" opacity="0" x="0" y="-2.84217094e-14" width="130" height="130"></rect>
                <g id="编组-2" transform="translate(14.000000, 14.000000)">
                    <circle id="椭圆形" fill-opacity="0.27067854" fill="#36C5C2" cx="3.5" cy="3.5" r="3.5"></circle>
                    <circle id="椭圆形备份" fill-opacity="0.27067854" fill="#36C5C2" cx="3.5" cy="52.5" r="3.5"></circle>
                    <circle id="椭圆形备份-4" fill-opacity="0.27067854" fill="#36C5C2" transform="translate(52.500000, 101.500000) rotate(-270.000000) translate(-52.500000, -101.500000) " cx="52.5" cy="101.5" r="3.5"></circle>
                    <circle id="椭圆形备份-6" fill-opacity="0.27067854" fill="#36C5C2" transform="translate(52.500000, 3.500000) rotate(-270.000000) translate(-52.500000, -3.500000) " cx="52.5" cy="3.5" r="3.5"></circle>
                    <circle id="椭圆形备份-3" fill-opacity="0.27067854" fill="#36C5C2" transform="translate(3.500000, 101.500000) rotate(-270.000000) translate(-3.500000, -101.500000) " cx="3.5" cy="101.5" r="3.5"></circle>
                    <circle id="椭圆形备份-5" fill-opacity="0.27067854" fill="#36C5C2" transform="translate(101.500000, 101.500000) rotate(-180.000000) translate(-101.500000, -101.500000) " cx="101.5" cy="101.5" r="3.5"></circle>
                    <circle id="椭圆形备份-4" fill-opacity="0.27067854" fill="#36C5C2" transform="translate(101.500000, 52.500000) rotate(-180.000000) translate(-101.500000, -52.500000) " cx="101.5" cy="52.5" r="3.5"></circle>
                    <circle id="椭圆形备份-3" fill-opacity="0.27067854" fill="#36C5C2" transform="translate(101.500000, 3.500000) rotate(-180.000000) translate(-101.500000, -3.500000) " cx="101.5" cy="3.5" r="3.5"></circle>
                    <path d="M24,32.0001622 L24,65.3244865 C24,66.9813407 25.3431458,68.3244865 27,68.3244865 L35.3513514,68.3244865 L35.3513514,68.3244865 L35.3513514,41.3244865 C35.3513514,39.6676322 36.6944971,38.3244865 38.3513514,38.3244865 L72.6486486,38.3244865 L72.6486486,38.3244865 L72.6486486,32.0001622 C72.6486486,30.3433079 71.3055029,29.0001622 69.6486486,29.0001622 L27,29.0001622 C25.3431458,29.0001622 24,30.3433079 24,32.0001622 Z" id="Fill-1" fill="#10BBB8" opacity="0.650251116"></path>
                    <path d="M72.6488919,38.3246486 L72.6488919,65.3246486 C72.6488919,66.9815029 71.3057461,68.3246486 69.6488919,68.3246486 L56.229973,68.3246486 L56.229973,68.3246486 L53.0880811,72.2765405 L49.8448378,68.3246486 L35.3515946,68.3246486 L35.3515946,74.6481622 C35.3515946,76.3050164 36.6947403,77.6481622 38.3515946,77.6481622 L54.0504827,77.6481622 C54.3594566,77.6481622 54.6510796,77.7909876 54.8405048,78.0350839 L58.2304692,82.4034441 C58.9076568,83.2760785 60.1640358,83.4345194 61.0366701,82.7573318 C61.1689849,82.654652 61.287878,82.5357589 61.3905578,82.4034441 L64.7805222,78.0350839 C64.9699474,77.7909876 65.2615704,77.6481622 65.5705443,77.6481622 L80.9994324,77.6481622 C82.6562867,77.6481622 83.9994324,76.3050164 83.9994324,74.6481622 L83.9994324,41.3246486 C83.9994324,39.6677944 82.6562867,38.3246486 80.9994324,38.3246486 L72.6488919,38.3246486 L72.6488919,38.3246486 Z" id="Fill-2" fill="#10BBB8" opacity="0.419387091"></path>
                    <rect id="矩形" fill="#FFCF6C" opacity="0.6" x="51" y="41" width="5" height="15"></rect>
                    <path d="M52,59 L56,59 L56,59 L56,64 L51,64 L51,60 C51,59.4477153 51.4477153,59 52,59 Z" id="矩形备份" fill="#FFCF6C" opacity="0.6"></path>
                </g>
            </g>
        </g>
    </g>
</svg>