<?xml version="1.0" encoding="UTF-8"?>
<svg width="130px" height="130px" viewBox="0 0 130 130" version="1.1" xmlns="http://www.w3.org/2000/svg" xmlns:xlink="http://www.w3.org/1999/xlink">
    <!-- Generator: Sketch 59.1 (86144) - https://sketch.com -->
    <title>image_refuse</title>
    <desc>Created with Sketch.</desc>
    <g id="页面1" stroke="none" stroke-width="1" fill="none" fill-rule="evenodd">
        <g id="团队邀请通知-已拒绝状态" transform="translate(-894.000000, -394.000000)">
            <g id="编组" transform="translate(894.000000, 394.000000)">
                <rect id="矩形" stroke="#979797" fill="#D8D8D8" opacity="0" x="0" y="0" width="130" height="130"></rect>
                <g id="编组-4" transform="translate(5.000000, 3.999700)">
                    <path d="M64.5137,3.5 C64.5137,5.433 62.9467,7 61.0137,7 C59.0807,7 57.5137,5.433 57.5137,3.5 C57.5137,1.567 59.0807,8.52651283e-14 61.0137,8.52651283e-14 C62.9467,8.52651283e-14 64.5137,1.567 64.5137,3.5" id="Fill-1" fill="#FCD5DE"></path>
                    <path d="M22.8721,17.7456 C24.2391,19.1126 24.2391,21.3286 22.8721,22.6956 C21.5051,24.0616 19.2891,24.0616 17.9221,22.6956 C16.5561,21.3286 16.5561,19.1126 17.9221,17.7456 C19.2891,16.3786 21.5051,16.3786 22.8721,17.7456" id="Fill-3" fill="#FCD5DE"></path>
                    <path d="M3.5,57.2636 C5.433,57.2636 7,58.8306 7,60.7636 C7,62.6966 5.433,64.2636 3.5,64.2636 C1.567,64.2636 0,62.6966 0,60.7636 C0,58.8306 1.567,57.2636 3.5,57.2636" id="Fill-5" fill="#FCD5DE"></path>
                    <path d="M17.7456,98.9052 C19.1126,97.5382 21.3286,97.5382 22.6956,98.9052 C24.0616,100.2722 24.0616,102.4882 22.6956,103.8552 C21.3286,105.2212 19.1126,105.2212 17.7456,103.8552 C16.3786,102.4882 16.3786,100.2722 17.7456,98.9052" id="Fill-7" fill="#FCD5DE"></path>
                    <path d="M57.2637,118.2773 C57.2637,116.3443 58.8307,114.7773 60.7637,114.7773 C62.6967,114.7773 64.2637,116.3443 64.2637,118.2773 C64.2637,120.2103 62.6967,121.7773 60.7637,121.7773 C58.8307,121.7773 57.2637,120.2103 57.2637,118.2773" id="Fill-9" fill="#FCD5DE"></path>
                    <path d="M98.9053,104.0317 C97.5383,102.6647 97.5383,100.4487 98.9053,99.0817 C100.2723,97.7157 102.4883,97.7157 103.8553,99.0817 C105.2213,100.4487 105.2213,102.6647 103.8553,104.0317 C102.4883,105.3987 100.2723,105.3987 98.9053,104.0317" id="Fill-11" fill="#FCD5DE"></path>
                    <path d="M118.2773,64.5136 C116.3443,64.5136 114.7773,62.9466 114.7773,61.0136 C114.7773,59.0806 116.3443,57.5136 118.2773,57.5136 C120.2103,57.5136 121.7773,59.0806 121.7773,61.0136 C121.7773,62.9466 120.2103,64.5136 118.2773,64.5136" id="Fill-13" fill="#FCD5DE"></path>
                    <path d="M104.0317,22.872 C102.6647,24.239 100.4487,24.239 99.0817,22.872 C97.7157,21.505 97.7157,19.289 99.0817,17.922 C100.4487,16.556 102.6647,16.556 104.0317,17.922 C105.3987,19.289 105.3987,21.505 104.0317,22.872" id="Fill-15" fill="#FCD5DE"></path>
                    <rect id="矩形" fill="#FFCF6C" opacity="0.6" x="40" y="37.0003" width="42" height="49" rx="4"></rect>
                    <path d="M61.9131501,43.1013261 C62.1131628,43.2447832 62.1919557,43.4387534 62.1555897,43.677175 L59.8463522,57.5318969 C59.8160472,57.7056618 59.7190714,57.8410368 59.5574449,57.9380219 C59.4746114,57.9844939 59.3796559,58.0107607 59.2786393,58.0107607 C59.2119684,58.0107607 59.1392366,57.9945965 59.062464,57.9642887 L54.9773561,56.2953372 L52.793379,58.9583857 C52.6842812,59.0978018 52.5367971,59.164479 52.3509267,59.164479 C52.2741541,59.164479 52.2074832,59.1523559 52.150914,59.1281096 C52.0377755,59.0856786 51.9448403,59.0169809 51.8761491,58.9159547 C51.8074578,58.8169492 51.7710919,58.7078409 51.7710919,58.5866096 L51.7710919,55.4406563 L59.5635059,45.8876265 L49.9224896,54.2323839 L46.3606473,52.7715462 C46.138411,52.6887048 46.0171911,52.523022 46.0010285,52.2744977 C45.9889065,52.0340555 46.083862,51.8562496 46.2899357,51.7410798 L61.2969493,43.0811209 C61.3878642,43.0265668 61.4828197,43.0003 61.5858566,43.0003 C61.7070764,43.0003 61.8161742,43.0346489 61.9131501,43.1013261 Z" id="路径" fill="#FDF9F0" opacity="0.992209821" transform="translate(54.082090, 51.082390) rotate(9.000000) translate(-54.082090, -51.082390) "></path>
                    <rect id="矩形" fill="#FFFFFF" opacity="0.40280878" x="47" y="68.0003" width="14" height="3" rx="1"></rect>
                    <rect id="矩形备份-2" fill="#FFFFFF" opacity="0.40280878" x="47" y="75.0003" width="10" height="3" rx="1"></rect>
                    <circle id="椭圆形" fill="#F10940" opacity="0.515113467" cx="78" cy="80.0003" r="14"></circle>
                    <rect id="矩形" fill="#FFFFFF" opacity="0.584123884" transform="translate(78.500000, 80.000300) rotate(-315.000000) translate(-78.500000, -80.000300) " x="72" y="78.0003" width="13" height="4" rx="1"></rect>
                    <rect id="矩形备份" fill="#FFFFFF" opacity="0.584123884" transform="translate(78.500000, 80.000300) rotate(-225.000000) translate(-78.500000, -80.000300) " x="72" y="78.0003" width="13" height="4" rx="1"></rect>
                </g>
            </g>
        </g>
    </g>
</svg>