<?xml version="1.0" encoding="UTF-8"?>
<svg width="25px" height="25px" viewBox="0 0 25 25" version="1.1" xmlns="http://www.w3.org/2000/svg" xmlns:xlink="http://www.w3.org/1999/xlink">
    <!-- Generator: Sketch 54.1 (76490) - https://sketchapp.com -->
    <defs>
        <polygon id="path-1" points="0 0.19461 12.34987 0.19461 12.34987 10.4 0 10.4"></polygon>
    </defs>
    <g id="页面1" stroke="none" stroke-width="1" fill="none" fill-rule="evenodd">
        <g id="工作台" transform="translate(-997.000000, -146.000000)">
            <g id="编组-14" transform="translate(998.000000, 146.000000)">
                <rect id="矩形" stroke="#979797" fill="#D8D8D8" opacity="0" x="0.5" y="0.5" width="23" height="23"></rect>
                <g id="编组" transform="translate(5.000000, 3.000000)">
                    <g transform="translate(0.000000, 6.606170)">
                        <mask id="mask-2" fill="white">
                            <use xlink:href="#path-1"></use>
                        </mask>
                        <g id="Clip-4"></g>
                        <path d="M0.38337,3.70136 L5.73547,0.32136 C6.00327,0.15236 6.34647,0.15236 6.61427,0.32136 L11.96637,3.70136 C12.20557,3.85216 12.34987,4.11476 12.34987,4.39686 L12.34987,9.57736 C12.34987,10.03106 11.98067,10.40026 11.52697,10.40026 L0.82277,10.40026 C0.36907,10.40026 -0.00013,10.03106 -0.00013,9.57736 L-0.00013,4.39686 C-0.00013,4.11476 0.14417,3.85216 0.38337,3.70136" id="Fill-3" fill="#B4F4E7" opacity="0.87" mask="url(#mask-2)"></path>
                    </g>
                    <path d="M11.96663,6.99916 L6.61453,10.37916 C6.34673,10.54816 6.00353,10.54816 5.73573,10.37916 L0.38363,6.99916 C0.14443,6.84836 0.00013,6.58576 0.00013,6.30236 L0.00013,1.12316 C0.00013,0.66816 0.36933,0.30026 0.82303,0.30026 L11.52723,0.30026 C11.98093,0.30026 12.35013,0.66816 12.35013,1.12316 L12.35013,6.30236 C12.35013,6.58576 12.20583,6.84836 11.96663,6.99916" id="Fill-1" fill="#10BBB8" opacity="0.6"></path>
                </g>
            </g>
        </g>
    </g>
</svg>