<?xml version="1.0" encoding="UTF-8"?>
<svg width="24px" height="25px" viewBox="0 0 24 25" version="1.1" xmlns="http://www.w3.org/2000/svg" xmlns:xlink="http://www.w3.org/1999/xlink">
    <!-- Generator: Sketch 54.1 (76490) - https://sketchapp.com -->
    <defs>
        <polygon id="path-1" points="0 0.0396883117 14.084639 0.0396883117 14.084639 14.4412468 0 14.4412468"></polygon>
    </defs>
    <g id="页面1" stroke="none" stroke-width="1" fill="none" fill-rule="evenodd">
        <g id="工作台" transform="translate(-998.000000, -282.000000)">
            <g id="编组-16" transform="translate(998.000000, 282.000000)">
                <rect id="矩形" stroke="#979797" fill="#D8D8D8" opacity="0" x="0.5" y="0.5" width="23" height="23"></rect>
                <g id="编组" transform="translate(3.000000, 4.000000)">
                    <g transform="translate(0.000000, 0.564260)">
                        <mask id="mask-2" fill="white">
                            <use xlink:href="#path-1"></use>
                        </mask>
                        <g id="Clip-2"></g>
                        <path d="M12.3182487,14.4412468 L1.76562834,14.4412468 C0.791751337,14.4412468 -0.000762032086,13.6324156 -0.000762032086,12.635013 L-0.000762032086,1.84592208 C-0.000762032086,0.848519481 0.791751337,0.0396883117 1.76562834,0.0396883117 L12.3182487,0.0396883117 C13.2936497,0.0396883117 14.084639,0.848519481 14.084639,1.84592208 L14.084639,12.635013 C14.084639,13.6324156 13.2936497,14.4412468 12.3182487,14.4412468" id="Fill-1" fill="#B4F4E7" opacity="0.87" mask="url(#mask-2)"></path>
                    </g>
                    <path d="M8.39860163,11.7972095 L8.38796439,11.7972095 C7.91460706,11.7953966 7.46075134,11.5977945 7.12922392,11.2497247 L2.73958814,6.64686417 C2.05525881,5.93078307 2.0694418,4.78324045 2.76972699,4.08347512 C3.47178506,3.3837098 4.59401424,3.40002557 5.27657069,4.11610667 L8.03161673,7.00399828 C8.24258873,7.22516763 8.58829914,7.2269805 8.80281688,7.00762401 L15.1372953,0.530262585 C15.8287162,-0.176754195 16.9509453,-0.176754195 17.644139,0.530262585 C18.3355599,1.23909223 18.3355599,2.38663485 17.644139,3.09365163 L9.65202348,11.2660405 C9.32049606,11.6068588 8.86841322,11.7972095 8.39860163,11.7972095" id="Fill-3" fill="#10BBB8" opacity="0.6"></path>
                </g>
            </g>
        </g>
    </g>
</svg>