<?xml version="1.0" encoding="UTF-8"?>
<svg width="88px" height="88px" viewBox="0 0 88 88" version="1.1" xmlns="http://www.w3.org/2000/svg" xmlns:xlink="http://www.w3.org/1999/xlink">
    <!-- Generator: Sketch 54.1 (76490) - https://sketchapp.com -->
    <defs>
        <rect id="path-1" x="0" y="0" width="50" height="50" rx="14"></rect>
        <filter x="-64.0%" y="-50.0%" width="228.0%" height="228.0%" filterUnits="objectBoundingBox" id="filter-2">
            <feOffset dx="0" dy="7" in="SourceAlpha" result="shadowOffsetOuter1"></feOffset>
            <feGaussianBlur stdDeviation="9.5" in="shadowOffsetOuter1" result="shadowBlurOuter1"></feGaussianBlur>
            <feColorMatrix values="0 0 0 0 0.853799539   0 0 0 0 0.867911342   0 0 0 0 0.902683424  0 0 0 1 0" type="matrix" in="shadowBlurOuter1"></feColorMatrix>
        </filter>
        <path d="M0.098974359,0.98974359 C0.098974359,0.98974359 0.153333333,4.54153846 0.310769231,4.49641026 L0.310769231,4.49641026 C0.468205128,4.45128205 3.10666667,4.14153846 3.10666667,4.14153846 L3.10666667,4.14153846 C2.39692308,2.01435897 0.276410256,0.414358974 0.276410256,0.414358974 L0.276410256,0.414358974 L0.098974359,0.98974359 Z" id="path-3"></path>
        <path d="M3.85230769,0.367692308 C3.85230769,0.367692308 3.39846154,0.262564103 3.08666667,0.577435897 L3.08666667,0.577435897 C2.64,0.998974359 2.03230769,1.31128205 1.61282051,1.2625641 L1.61282051,1.2625641 C1.48666667,1.51641026 1.29948718,1.81538462 1.02974359,2.09589744 L1.02974359,2.09589744 C0.798974359,2.33641026 0.607179487,2.49179487 0.456410256,2.59179487 L0.456410256,2.59179487 C0.815384615,2.85333333 1.71025641,3.33692308 3.1174359,3.02769231 L3.1174359,3.02769231 C3.13179487,2.92153846 3.14615385,2.81641026 3.16051282,2.71384615 L3.16051282,2.71384615 L4.06564103,0.490769231 L4.11589744,0.277435897 L3.85230769,0.367692308 Z" id="path-5"></path>
        <path d="M4.02307692,0.410769231 L0.103076923,1.43282051 C0.0333333333,1.45076923 -0.00871794872,1.5225641 0.00923076923,1.59179487 L0.00923076923,1.59179487 L0.684615385,4.18358974 C0.703076923,4.25282051 0.774358974,4.29487179 0.844102564,4.27692308 L0.844102564,4.27692308 L4.76410256,3.25487179 C4.83384615,3.23692308 4.87589744,3.16564103 4.85794872,3.09589744 L4.85794872,3.09589744 L4.1825641,0.504102564 C4.16717949,0.445641026 4.11384615,0.406666667 4.05589744,0.406666667 L4.05589744,0.406666667 C4.04512821,0.406666667 4.03384615,0.408205128 4.02307692,0.410769231" id="path-7"></path>
        <linearGradient x1="0.000677258111%" y1="49.997007%" x2="99.9953475%" y2="49.997007%" id="linearGradient-9">
            <stop stop-color="#F9F9F9" offset="0%"></stop>
            <stop stop-color="#E2EBEB" offset="100%"></stop>
        </linearGradient>
        <path d="M0.96974359,0.352820513 C0.421025641,0.433846154 0.0194871795,0.839487179 0.0723076923,1.25794872 L0.0723076923,1.25794872 C0.125641026,1.6774359 0.613333333,1.95076923 1.16102564,1.86923077 L1.16102564,1.86923077 C1.70923077,1.78769231 2.11128205,1.3825641 2.05846154,0.963076923 L2.05846154,0.963076923 C2.01179487,0.594358974 1.62820513,0.338461538 1.1625641,0.338461538 L1.1625641,0.338461538 C1.09948718,0.338461538 1.03487179,0.343076923 0.96974359,0.352820513 L0.96974359,0.352820513 Z" id="path-10"></path>
        <path d="M0.612307692,1.87846154 C0.612307692,1.87846154 -0.0651282051,3.90205128 1.26666667,4.31025641 L1.26666667,4.31025641 C2.59846154,4.71846154 3.12358974,2.22051282 3.12358974,2.22051282 L3.12358974,2.22051282 L3.33897436,0.885641026 L1.11282051,0.12974359" id="path-12"></path>
        <path d="M0.303076923,0.515384615 L0.468717949,2.32615385 C0.468717949,2.32615385 0.56974359,4.4574359 1.95948718,4.35589744 L1.95948718,4.35589744 C3.34871795,4.25487179 2.93384615,1.73641026 2.93384615,1.73641026 L2.93384615,1.73641026 L2.65128205,0.413333333" id="path-14"></path>
        <path d="M1.59589744,0.161538462 C1.48410256,0.188205128 1.36153846,0.207179487 1.23282051,0.217435897 L1.23282051,0.217435897 L1.22615385,0.217948718 L1.22564103,0.217948718 L1.21948718,0.217948718 L1.21487179,0.218461538 L1.21333333,0.218461538 L1.20666667,0.218974359 L1.20461538,0.22 L1.2025641,0.22 L1.19384615,0.220512821 L1.18461538,0.220512821 L1.18205128,0.220512821 L1.17333333,0.221025641 L1.17282051,0.221538462 C1.03128205,0.229230769 0.895897436,0.225641026 0.773333333,0.211794872 L0.773333333,0.211794872 C0.725641026,0.206666667 0.678974359,0.2 0.635384615,0.191794872 L0.635384615,0.191794872 C0.57025641,0.54 0.479487179,1.08153846 0.413333333,1.70051282 L0.413333333,1.70051282 C0.334358974,2.44102564 0.291794872,3.29179487 0.371282051,4.05128205 L0.371282051,4.05128205 C0.487179487,4.19025641 0.887179487,4.63589744 1.47692308,4.93435897 L1.47692308,4.93435897 C2.02358974,4.56307692 2.36358974,4.07025641 2.46102564,3.91794872 L2.46102564,3.91794872 C2.44358974,3.16 2.29487179,2.32820513 2.12410256,1.60666667 L2.12410256,1.60666667 C1.98102564,1.00051282 1.82102564,0.471282051 1.71128205,0.130769231 L1.71128205,0.130769231 C1.67435897,0.142051282 1.63589744,0.151794872 1.59589744,0.161538462" id="path-16"></path>
        <path d="M1.11948718,0.157948718 C1.11076923,0.158974359 1.10205128,0.159487179 1.09282051,0.159487179 L1.09282051,0.159487179 C0.942564103,0.159487179 0.432307692,0.199487179 0.135384615,0.223589744 L0.135384615,0.223589744 C0.158461538,0.322564103 0.188205128,0.417948718 0.22,0.507179487 L0.22,0.507179487 C0.312820513,0.766666667 0.421538462,0.965128205 0.458461538,1.02923077 L0.458461538,1.02923077 C0.46,1.03128205 0.461538462,1.03384615 0.462564103,1.03641026 L0.462564103,1.03641026 L0.464102564,1.03846154 L0.464615385,1.04051282 C0.475384615,1.05282051 0.494871795,1.06461538 0.522051282,1.07589744 L0.522051282,1.07589744 C0.531794872,1.07794872 0.541538462,1.08102564 0.551282051,1.08461538 L0.551282051,1.08461538 C0.621538462,1.11128205 0.711794872,1.13128205 0.816923077,1.1425641 L0.816923077,1.1425641 C0.912820513,1.15333333 1.01948718,1.15641026 1.13230769,1.15128205 L1.13230769,1.15128205 L1.13282051,1.15128205 L1.13897436,1.15025641 L1.14410256,1.15025641 L1.14512821,1.15025641 L1.15025641,1.14974359 L1.15641026,1.14974359 L1.15692308,1.14974359 L1.16153846,1.14974359 L1.16871795,1.14923077 L1.17384615,1.14871795 L1.1774359,1.14871795 L1.17948718,1.14871795 L1.18512821,1.14820513 L1.18666667,1.14820513 L1.18666667,1.14820513 L1.19538462,1.14717949 L1.19641026,1.14717949 C1.30564103,1.13897436 1.40717949,1.12358974 1.49794872,1.10307692 L1.49794872,1.10307692 C1.59589744,1.08051282 1.68102564,1.05179487 1.74923077,1.01897436 L1.74923077,1.01897436 C1.75641026,1.01538462 1.76410256,1.01230769 1.77230769,1.00923077 L1.77230769,1.00923077 L1.77333333,1.00923077 C1.81128205,0.98974359 1.83794872,0.971282051 1.85076923,0.954871795 L1.85076923,0.954871795 C1.85179487,0.952307692 1.85282051,0.949230769 1.85487179,0.946666667 L1.85487179,0.946666667 C1.85538462,0.944615385 1.85641026,0.942564103 1.85692308,0.941025641 L1.85692308,0.941025641 C1.87948718,0.887179487 1.93641026,0.743076923 1.98871795,0.551282051 L1.98871795,0.551282051 C2.02512821,0.417435897 2.05897436,0.262564103 2.07589744,0.1 L2.07589744,0.1 C1.77897436,0.113333333 1.27025641,0.138974359 1.11948718,0.157948718 L1.11948718,0.157948718 Z" id="path-18"></path>
        <path d="M2.59538462,0.134871795 C2.11897436,2.11384615 1.37641026,3.26666667 0.0676923077,4.38564103 L0.0676923077,4.38564103 C0.0676923077,4.38564103 0.112820513,5.81128205 0.110769231,6.95333333 L0.110769231,6.95333333 L0.253333333,6.96717949 L0.253333333,6.95076923 C0.435897436,6.94717949 0.619487179,6.94102564 0.805641026,6.93333333 L0.805641026,6.93333333 C2.14358974,6.87794872 3.40358974,6.73025641 4.51435897,6.51487179 L4.51435897,6.51487179 C4.50461538,6.2425641 4.44410256,4.97384615 4.13384615,3.24717949 L4.13384615,3.24717949 L3.03794872,1.05948718 L2.95487179,0.0948717949" id="path-20"></path>
        <path d="M9.45384615,0.344102564 C5.43384615,0.663076923 2.12461538,2.34666667 1.03333333,4.41128205 L1.03333333,4.41128205 C0.385128205,5.46615385 0.04,6.93025641 0.158461538,8.51589744 L0.158461538,8.51589744 C0.276923077,10.1020513 0.835897436,11.4938462 1.63282051,12.434359 L1.63282051,12.434359 C3.0174359,14.3020513 6.53846154,15.4441026 10.5579487,15.1251282 L10.5579487,15.1251282 C14.5779487,14.8061538 17.8876923,13.1220513 18.9794872,11.0574359 L18.9794872,11.0574359 C19.6266667,10.0025641 19.9728205,8.53846154 19.854359,6.95282051 L19.854359,6.95282051 C19.7358974,5.36666667 19.1769231,3.97487179 18.38,3.03435897 L18.38,3.03435897 C17.1507692,1.37641026 14.2379487,0.291282051 10.7882051,0.290769231 L10.7882051,0.290769231 C10.3507692,0.290769231 9.90615385,0.308205128 9.45384615,0.344102564" id="path-22"></path>
        <linearGradient x1="7.86058386%" y1="43.7120699%" x2="77.345634%" y2="54.0798492%" id="linearGradient-24">
            <stop stop-color="#5BBFA5" offset="0%"></stop>
            <stop stop-color="#10BAB8" offset="100%"></stop>
        </linearGradient>
        <path d="M9.45384615,0.344102564 C5.43384615,0.663076923 2.12461538,2.34666667 1.03333333,4.41128205 L1.03333333,4.41128205 C0.385128205,5.46615385 0.04,6.93025641 0.158461538,8.51589744 L0.158461538,8.51589744 C0.276923077,10.1020513 0.835897436,11.4938462 1.63282051,12.434359 L1.63282051,12.434359 C3.0174359,14.3020513 6.53846154,15.4441026 10.5579487,15.1251282 L10.5579487,15.1251282 C14.5779487,14.8061538 17.8876923,13.1220513 18.9794872,11.0574359 L18.9794872,11.0574359 C19.6266667,10.0025641 19.9728205,8.53846154 19.854359,6.95282051 L19.854359,6.95282051 C19.7358974,5.36666667 19.1769231,3.97487179 18.38,3.03435897 L18.38,3.03435897 C17.1507692,1.37641026 14.2379487,0.291282051 10.7882051,0.290769231 L10.7882051,0.290769231 C10.3507692,0.290769231 9.90615385,0.308205128 9.45384615,0.344102564" id="path-25"></path>
        <path d="M9.45384615,0.344102564 C5.43384615,0.663076923 2.12461538,2.34666667 1.03333333,4.41128205 L1.03333333,4.41128205 C0.385128205,5.46615385 0.04,6.93025641 0.158461538,8.51589744 L0.158461538,8.51589744 C0.276923077,10.1020513 0.835897436,11.4938462 1.63282051,12.434359 L1.63282051,12.434359 C3.0174359,14.3020513 6.53846154,15.4441026 10.5579487,15.1251282 L10.5579487,15.1251282 C14.5779487,14.8061538 17.8876923,13.1220513 18.9794872,11.0574359 L18.9794872,11.0574359 C19.6266667,10.0025641 19.9728205,8.53846154 19.854359,6.95282051 L19.854359,6.95282051 C19.7358974,5.36666667 19.1769231,3.97487179 18.38,3.03435897 L18.38,3.03435897 C17.1507692,1.37641026 14.2379487,0.291282051 10.7882051,0.290769231 L10.7882051,0.290769231 C10.3507692,0.290769231 9.90615385,0.308205128 9.45384615,0.344102564 L9.45384615,0.344102564 Z" id="path-27"></path>
        <path d="M3.16205128,0.0953846154 C1.40871795,0.22974359 0.0964102564,1.76205128 0.231794872,3.51435897 L0.231794872,3.51435897 C0.366153846,5.26717949 1.89794872,6.57948718 3.65076923,6.44461538 L3.65076923,6.44461538 C5.40358974,6.30923077 6.71589744,4.77846154 6.58051282,3.02564103 L6.58051282,3.02564103 C6.45230769,1.35538462 5.05692308,0.0861538462 3.41025641,0.0861538462 L3.41025641,0.0861538462 C3.32820513,0.0861538462 3.24512821,0.0892307692 3.16205128,0.0953846154" id="path-29"></path>
        <linearGradient x1="44.3139569%" y1="49.9956345%" x2="144.317825%" y2="49.9956345%" id="linearGradient-31">
            <stop stop-color="#F9F9F9" offset="0%"></stop>
            <stop stop-color="#E2EBEB" offset="100%"></stop>
        </linearGradient>
        <path d="M2.95128205,0.268717949 C1.19846154,0.403589744 -0.113846154,1.93435897 0.0215384615,3.68769231 L0.0215384615,3.68769231 C0.155897436,5.44051282 1.68717949,6.75230769 3.44,6.61794872 L3.44,6.61794872 C5.19282051,6.4825641 6.50512821,4.95179487 6.36974359,3.19846154 L6.36974359,3.19846154 C6.24153846,1.52923077 4.84666667,0.258974359 3.19948718,0.259487179 L3.19948718,0.259487179 C3.1174359,0.259487179 3.03435897,0.262564103 2.95128205,0.268717949" id="path-32"></path>
        <linearGradient x1="33.6644317%" y1="49.9938913%" x2="133.676399%" y2="49.9938913%" id="linearGradient-34">
            <stop stop-color="#F9F9F9" offset="0%"></stop>
            <stop stop-color="#E2EBEB" offset="100%"></stop>
        </linearGradient>
    </defs>
    <g id="页面1" stroke="none" stroke-width="1" fill="none" fill-rule="evenodd">
        <g id="工作台" transform="translate(-1541.000000, -787.000000)">
            <g id="icon_appdownload" transform="translate(1560.000000, 799.000000)">
                <g id="矩形">
                    <use fill="black" fill-opacity="1" filter="url(#filter-2)" xlink:href="#path-1"></use>
                    <use fill="#FFFFFF" fill-rule="evenodd" xlink:href="#path-1"></use>
                </g>
                <text id="APP" font-family="DIN-BoldItalicAlt" font-size="16" font-style="italic" font-weight="bold" letter-spacing="1" fill="#23BCB4">
                    <tspan x="10" y="31">AP</tspan>
                    <tspan x="31.264" y="31">P</tspan>
                </text>
                <ellipse id="椭圆形" fill="#CACED7" cx="44.5" cy="55" rx="6.5" ry="2"></ellipse>
                <g id="编组" transform="translate(34.000000, 26.000000)">
                    <path d="M13.0967692,18.2741026 C13.0967692,18.2741026 15.2172821,19.8735897 15.9275385,22.0017949 C15.9275385,22.0017949 13.2885641,22.3110256 13.1311282,22.3561538 C12.9736923,22.4012821 12.9193333,18.8494872 12.9193333,18.8494872 L13.0967692,18.2741026 Z" id="Fill-1" fill="#FFFFFF"></path>
                    <g transform="translate(12.820513, 17.859692)">
                        <mask id="mask-4" fill="white">
                            <use xlink:href="#path-3"></use>
                        </mask>
                        <g id="Clip-4"></g>
                        <path d="M-0.108102564,0.900717949 C-0.0373333333,0.919179487 1.80933333,2.13046154 2.46215385,4.0545641 C3.11497436,5.97866667 6.36523077,3.95866667 6.36523077,3.95866667 L4.55087179,0.948923077 C4.55087179,0.948923077 1.01907692,-0.384410256 0.963692308,-0.466974359 C0.908820513,-0.549025641 -0.520410256,0.701230769 -0.520410256,0.701230769 L-0.108102564,0.900717949 Z" id="Fill-3" fill="#DCDDDD" mask="url(#mask-4)"></path>
                    </g>
                    <path d="M5.59502564,20.6498974 C5.46887179,20.9037436 5.40220513,21.214 5.13194872,21.494 C4.90117949,21.7345128 4.70989744,21.8898974 4.55912821,21.9898974 C4.91810256,22.2514359 5.81297436,22.7345128 7.21964103,22.4257949 C7.23451282,22.319641 7.24887179,22.2150256 7.26271795,22.1119487 L8.16835897,19.8893846 L8.21861538,19.6760513 L7.95502564,19.7657949 C7.95502564,19.7657949 7.50066667,19.6601538 7.18938462,19.9760513 C6.74271795,20.3970769 6.01502564,20.6981026 5.59502564,20.6498974" id="Fill-5" fill="#FFFFFF"></path>
                    <g transform="translate(4.102564, 19.398154)">
                        <mask id="mask-6" fill="white">
                            <use xlink:href="#path-5"></use>
                        </mask>
                        <g id="Clip-8"></g>
                        <path d="M0.109487179,3.69169231 C0.123333333,3.5265641 0.590512821,2.05630769 0.590512821,2.05630769 C0.590512821,2.05630769 2.12282051,2.59989744 3.00948718,1.75374359 L3.49051282,0.977333333 C3.49051282,0.977333333 3.58487179,0.727589744 3.99820513,0.656307692 C4.41153846,0.585025641 4.72076923,1.46502564 4.72076923,1.46502564 L3.18128205,4.17220513 L1.31205128,4.06297436 L0.109487179,3.69169231 Z" id="Fill-7" fill="#DCDDDD" mask="url(#mask-6)"></path>
                    </g>
                    <g transform="translate(12.820513, 20.423795)">
                        <mask id="mask-8" fill="white">
                            <use xlink:href="#path-7"></use>
                        </mask>
                        <g id="Clip-10"></g>
                        <path d="M4.02307692,0.410769231 L0.103076923,1.43282051 C0.0333333333,1.45076923 -0.00871794872,1.5225641 0.00923076923,1.59179487 L0.00923076923,1.59179487 L0.684615385,4.18358974 C0.703076923,4.25282051 0.774358974,4.29487179 0.844102564,4.27692308 L0.844102564,4.27692308 L4.76410256,3.25487179 C4.83384615,3.23692308 4.87589744,3.16564103 4.85794872,3.09589744 L4.85794872,3.09589744 L4.1825641,0.504102564 C4.16717949,0.445641026 4.11384615,0.406666667 4.05589744,0.406666667 L4.05589744,0.406666667 C4.04512821,0.406666667 4.03384615,0.408205128 4.02307692,0.410769231" id="Fill-9" fill="url(#linearGradient-9)" mask="url(#mask-8)"></path>
                    </g>
                    <g transform="translate(13.333333, 20.936615)">
                        <path d="M2.98533333,0.0348205128 L3.01969231,0.168153846 C3.04687179,0.270205128 2.98482051,0.375846154 2.88225641,0.402512821 L0.383794872,1.05328205 C0.28174359,1.07994872 0.176102564,1.01841026 0.149435897,0.915846154 L0.114564103,0.783025641 L2.98533333,0.0348205128 Z" id="Fill-11" fill="#595757"></path>
                        <path d="M3.084,3.0145641 C3.13682051,3.43353846 2.73528205,3.83917949 2.1865641,3.92071795 C1.63887179,4.00225641 1.15117949,3.72892308 1.09784615,3.3094359 C1.04502564,2.89097436 1.44707692,2.48533333 1.99528205,2.40430769 C2.54348718,2.32225641 3.03066667,2.59610256 3.084,3.0145641" id="Fill-13" fill="#10BBB8"></path>
                    </g>
                    <g transform="translate(14.358974, 22.987897)">
                        <mask id="mask-11" fill="white">
                            <use xlink:href="#path-10"></use>
                        </mask>
                        <g id="Clip-16"></g>
                        <path d="M2.44225641,2.662 L2.04841026,0.908153846 C2.04841026,0.908153846 1.03251282,0.317384615 0.0725128205,1.25841026 C-0.887487179,2.19994872 -0.95825641,3.31276923 -0.927487179,3.34405128 C-0.896717949,3.37533333 0.257128205,4.10507692 0.702769231,4.07276923 C1.14841026,4.04046154 1.95764103,3.71482051 1.95764103,3.71482051 L2.44225641,2.662 Z" id="Fill-15" fill="#0C9E9C" mask="url(#mask-11)"></path>
                    </g>
                    <path d="M7.26697436,24.6563077 L6.76594872,26.4045128 C6.76594872,26.4045128 6.08851282,28.4281026 7.42082051,28.8363077 C8.75261538,29.2445128 9.27723077,26.7470769 9.27723077,26.7470769 L9.49261538,25.4122051 L7.26697436,24.6563077 Z" id="Fill-17" fill="#10BBB8"></path>
                    <g transform="translate(6.153846, 24.526359)">
                        <mask id="mask-13" fill="white">
                            <use xlink:href="#path-12"></use>
                        </mask>
                        <g id="Clip-20"></g>
                        <path d="M5.43528205,-0.630717949 L2.44605128,1.39287179 C2.44605128,1.39287179 2.41682051,4.37389744 0.633230769,3.8154359 C-1.14984615,3.25748718 -1.11446154,5.41492308 -1.11446154,5.41492308 L2.84297436,6.66620513 C2.84297436,6.66620513 6.39374359,5.76517949 6.72194872,5.62364103 C7.05066667,5.48312821 5.43528205,-0.630717949 5.43528205,-0.630717949" id="Fill-19" fill="#0C9E9C" mask="url(#mask-13)"></path>
                    </g>
                    <path d="M12.0979487,25.0414359 L12.2635897,26.8522051 C12.2635897,26.8522051 12.3646154,28.9834872 13.7538462,28.8819487 C15.1435897,28.7809231 14.7287179,26.2629744 14.7287179,26.2629744 L14.4461538,24.9398974 L12.0979487,25.0414359 Z" id="Fill-21" fill="#10BBB8"></path>
                    <g transform="translate(11.794872, 24.526359)">
                        <mask id="mask-15" fill="white">
                            <use xlink:href="#path-14"></use>
                        </mask>
                        <g id="Clip-24"></g>
                        <path d="M4.05682051,-1.7585641 L2.00246154,1.20964103 C2.00246154,1.20964103 3.05425641,3.99887179 1.18964103,4.124 C-0.674974359,4.24912821 0.139384615,6.24758974 0.139384615,6.24758974 L4.2814359,5.98194872 C4.2814359,5.98194872 7.26502564,3.85579487 7.51989744,3.60605128 C7.77528205,3.35630769 4.05682051,-1.7585641 4.05682051,-1.7585641" id="Fill-23" fill="#0C9E9C" mask="url(#mask-15)"></path>
                    </g>
                    <path d="M10.3791795,20.6153846 C10.3140513,20.9641026 10.2227692,21.5051282 10.1571282,22.1241026 C10.0781538,22.8651282 10.0355897,23.7158974 10.1150769,24.4748718 C10.2304615,24.6138462 10.6309744,25.0594872 11.2202051,25.3584615 C11.7673846,24.9866667 12.1073846,24.4938462 12.2043077,24.3420513 C12.1873846,23.5835897 12.0386667,22.7517949 11.8678974,22.0307692 C11.7248205,21.4241026 11.5648205,20.8953846 11.4550769,20.5548718 C11.4181538,20.565641 11.3796923,20.5758974 11.3396923,20.5851282 C11.2278974,20.6117949 11.1048205,20.6307692 10.9761026,20.6415385 L10.9694359,20.6420513 L10.9689231,20.6420513 L10.9632821,20.6420513 L10.9586667,20.6425641 L10.9566154,20.6425641 L10.9504615,20.6430769 L10.9478974,20.6435897 L10.9458462,20.6435897 L10.937641,20.6441026 L10.9278974,20.6446154 L10.9258462,20.6446154 L10.9166154,20.6451282 L10.9161026,20.645641 C10.7750769,20.6528205 10.6396923,20.6492308 10.5171282,20.6358974 C10.4689231,20.6302564 10.4227692,20.6241026 10.3791795,20.6153846" id="Fill-25" fill="#008CD6"></path>
                    <g transform="translate(9.743590, 20.423795)">
                        <mask id="mask-17" fill="white">
                            <use xlink:href="#path-16"></use>
                        </mask>
                        <g id="Clip-28"></g>
                        <path d="M1.37102564,0.202615385 C1.88794872,1.60466667 2.69410256,3.71851282 1.47666667,4.93492308 C2.02333333,4.56312821 2.36384615,4.07030769 2.46076923,3.918 C2.44384615,3.16005128 2.29512821,2.32825641 2.12435897,1.60671795 C1.98076923,1.0005641 1.82128205,0.471333333 1.71153846,0.130820513 C1.67461538,0.142102564 1.63615385,0.151846154 1.59564103,0.161589744 C1.52487179,0.178 1.44948718,0.191846154 1.37102564,0.202615385" id="Fill-27" fill="#0075B3" mask="url(#mask-17)"></path>
                    </g>
                    <path d="M11.5941026,20.3530256 C11.5951282,20.3504615 11.5966667,20.3473846 11.5982051,20.3448205 C11.5987179,20.3427692 11.5997436,20.3407179 11.6007692,20.3386667 C11.6228205,20.2853333 11.6802564,20.1417436 11.7325641,19.9494359 C11.7684615,19.8155897 11.8023077,19.6602051 11.8192308,19.4981538 C11.5223077,19.5114872 11.0141026,19.5371282 10.8628205,19.5561026 C10.8541026,19.5571282 10.8453846,19.557641 10.8361538,19.557641 C10.6864103,19.557641 10.1761538,19.597641 9.87923077,19.6217436 C9.90230769,19.7202051 9.93205128,19.8161026 9.96384615,19.9053333 C10.0561538,20.1653333 10.1653846,20.3632821 10.2023077,20.4273846 C10.2038462,20.4294359 10.2048718,20.432 10.2058974,20.4345641 L10.2074359,20.4371282 L10.2084615,20.4386667 C10.2187179,20.4504615 10.2382051,20.4627692 10.2658974,20.4740513 C10.275641,20.4761026 10.2853846,20.4791795 10.2951282,20.4827692 C10.3648718,20.5094359 10.455641,20.5294359 10.5602564,20.5407179 C10.6561538,20.5514872 10.7628205,20.5545641 10.8761538,20.5494359 L10.8766667,20.5494359 L10.8823077,20.5489231 L10.8879487,20.5489231 L10.8884615,20.5489231 L10.8941026,20.5484103 L10.8941026,20.5484103 L10.9002564,20.5478974 L10.9002564,20.5478974 L10.9048718,20.5478974 L10.9120513,20.5473846 L10.9176923,20.5468718 L10.9212821,20.5468718 L10.9233333,20.5468718 L10.9289744,20.546359 L10.93,20.546359 L10.9305128,20.546359 L10.9387179,20.5453333 L10.9402564,20.5453333 C11.0489744,20.5371282 11.1505128,20.5217436 11.2417949,20.5012308 C11.3392308,20.4786667 11.424359,20.4494359 11.4925641,20.4171282 C11.5002564,20.4135385 11.5079487,20.4104615 11.515641,20.4073846 L11.5166667,20.4073846 C11.5551282,20.3878974 11.5817949,20.3694359 11.5941026,20.3530256 L11.5941026,20.3530256 Z" id="Fill-29" fill="#008CD6"></path>
                    <g transform="translate(9.743590, 19.398154)">
                        <mask id="mask-19" fill="white">
                            <use xlink:href="#path-18"></use>
                        </mask>
                        <g id="Clip-32"></g>
                        <path d="M0.265025641,0.62574359 C0.265025641,0.62574359 1.29989744,0.649846154 1.54451282,0.562153846 C1.54451282,0.562153846 1.83784615,0.899076923 1.35579487,1.12933333 L1.71528205,1.24676923 L2.08246154,1.02830769 L2.3414359,-0.0311794872 C2.3414359,-0.0311794872 1.96912821,-0.155794872 1.94810256,-0.150666667 C1.92758974,-0.144512821 -0.0662564103,-0.0260512821 -0.0662564103,-0.0260512821 L-0.00215384615,0.638564103 L0.265025641,0.62574359 Z" id="Fill-31" fill="#0075B3" mask="url(#mask-19)"></path>
                    </g>
                    <g transform="translate(6.153846, 17.859692)">
                        <path d="M2.38892308,0.774512821 L2.95251282,1.81553846 L4.8745641,4.42220513 L5.76071795,7.74579487 C5.54328205,7.75912821 5.32379487,7.77092308 5.10225641,7.78015385 C3.38174359,7.85194872 1.76687179,7.7765641 0.385333333,7.58733333 C0.587897436,6.43912821 0.761230769,5.27553846 0.901230769,4.24733333 L1.90225641,1.78989744 L2.13610256,0.802205128 L2.38892308,0.774512821 Z" id="Fill-33" fill="#595757"></path>
                        <path d="M6.79246154,0.438974359 C6.30476923,2.4625641 5.54630769,3.64153846 4.20784615,4.78564103 C4.20784615,4.78564103 4.25451282,6.2425641 4.25194872,7.41128205 L4.39758974,7.42512821 L4.39758974,7.40820513 C4.58425641,7.40410256 4.77297436,7.39794872 4.96220513,7.39076923 C6.33092308,7.33333333 7.61861538,7.18205128 8.75451282,6.96307692 C8.74425641,6.68461538 8.68220513,5.38666667 8.36528205,3.62205128 L7.24528205,1.38512821 L7.15964103,0.398974359 L6.79246154,0.438974359 Z" id="Fill-35" fill="#595757"></path>
                        <path d="M4.73138462,4.22805128 L3.80471795,4.85215385 L3.8734359,7.27779487 L3.95241026,7.25369231 C3.95241026,7.25369231 3.99497436,4.97112821 3.98574359,4.95266667 C3.97138462,4.92292308 4.77394872,4.27830769 4.77394872,4.27830769 L4.73138462,4.22805128 Z" id="Fill-37" fill="#444545"></path>
                    </g>
                    <g transform="translate(10.256410, 18.372513)">
                        <mask id="mask-21" fill="white">
                            <use xlink:href="#path-20"></use>
                        </mask>
                        <g id="Clip-40"></g>
                        <path d="M3.72005128,-0.526051282 L3.48620513,2.40112821 C3.48620513,2.40112821 3.76517949,5.1985641 3.66671795,6.58984615 C3.56876923,7.98112821 7.11492308,8.86112821 7.11492308,8.86112821 C7.11492308,8.86112821 9.84979487,7.60984615 9.84979487,7.37651282 C9.84979487,7.14266667 9.89082051,3.51446154 9.47851282,2.85497436 C9.06620513,2.19548718 3.72005128,-0.526051282 3.72005128,-0.526051282" id="Fill-39" fill="#444545" mask="url(#mask-21)"></path>
                    </g>
                    <g transform="translate(0.000000, 4.526359)">
                        <g>
                            <mask id="mask-23" fill="white">
                                <use xlink:href="#path-22"></use>
                            </mask>
                            <g id="Clip-42"></g>
                            <path d="M9.45384615,0.344102564 C5.43384615,0.663076923 2.12461538,2.34666667 1.03333333,4.41128205 L1.03333333,4.41128205 C0.385128205,5.46615385 0.04,6.93025641 0.158461538,8.51589744 L0.158461538,8.51589744 C0.276923077,10.1020513 0.835897436,11.4938462 1.63282051,12.434359 L1.63282051,12.434359 C3.0174359,14.3020513 6.53846154,15.4441026 10.5579487,15.1251282 L10.5579487,15.1251282 C14.5779487,14.8061538 17.8876923,13.1220513 18.9794872,11.0574359 L18.9794872,11.0574359 C19.6266667,10.0025641 19.9728205,8.53846154 19.854359,6.95282051 L19.854359,6.95282051 C19.7358974,5.36666667 19.1769231,3.97487179 18.38,3.03435897 L18.38,3.03435897 C17.1507692,1.37641026 14.2379487,0.291282051 10.7882051,0.290769231 L10.7882051,0.290769231 C10.3507692,0.290769231 9.90615385,0.308205128 9.45384615,0.344102564" id="Fill-41" fill="url(#linearGradient-24)" mask="url(#mask-23)"></path>
                        </g>
                        <g>
                            <mask id="mask-26" fill="white">
                                <use xlink:href="#path-25"></use>
                            </mask>
                            <g id="Clip-44"></g>
                            <path d="M9.83907692,-1.69292308 C10.0329231,-1.42266667 12.0236923,0.145538462 12.0236923,0.145538462 L11.9026667,1.36092308 C11.9026667,1.36092308 11.8134359,4.984 16.5031795,4.55784615 C16.5031795,4.55784615 20.6595897,12.5686154 10.5426667,14.9106667 C0.425230769,17.2527179 20.0642051,18.7527179 20.0642051,18.7527179 C20.0642051,18.7527179 29.2508718,14.2075897 29.7698462,13.638359 C30.2888205,13.0691282 28.5226667,-1.79958974 27.6795897,-2.41035897 C26.836,-3.02164103 17.3636923,-6.63138462 16.9939487,-6.57702564 C16.6242051,-6.52266667 9.83907692,-1.69292308 9.83907692,-1.69292308" id="Fill-43" fill="#0C9E9C" mask="url(#mask-26)"></path>
                        </g>
                        <g>
                            <mask id="mask-28" fill="white">
                                <use xlink:href="#path-27"></use>
                            </mask>
                            <g id="Clip-46"></g>
                            <path d="M9.38158974,-1.82717949 L8.34005128,0.686153846 C8.34005128,0.686153846 8.36005128,3.74307692 5.46107692,4.64410256 C5.46107692,4.64410256 4.0005641,5.2825641 1.88466667,3.58717949 C-0.23174359,1.89179487 -1.02558974,1.55589744 -1.02558974,1.55589744 L5.06466667,-2.0425641 L6.75389744,-3.13589744 L9.38158974,-1.82717949 Z" id="Fill-45" fill="#0C9E9C" mask="url(#mask-28)"></path>
                        </g>
                    </g>
                    <g transform="translate(0.512821, 2.475077)">
                        <mask id="mask-30" fill="white">
                            <use xlink:href="#path-29"></use>
                        </mask>
                        <g id="Clip-48"></g>
                        <path d="M3.16205128,0.0953846154 C1.40871795,0.22974359 0.0964102564,1.76205128 0.231794872,3.51435897 L0.231794872,3.51435897 C0.366153846,5.26717949 1.89794872,6.57948718 3.65076923,6.44461538 L3.65076923,6.44461538 C5.40358974,6.30923077 6.71589744,4.77846154 6.58051282,3.02564103 L6.58051282,3.02564103 C6.45230769,1.35538462 5.05692308,0.0861538462 3.41025641,0.0861538462 L3.41025641,0.0861538462 C3.32820513,0.0861538462 3.24512821,0.0892307692 3.16205128,0.0953846154" id="Fill-47" fill="url(#linearGradient-31)" mask="url(#mask-30)"></path>
                    </g>
                    <g transform="translate(11.794872, 1.449436)">
                        <mask id="mask-33" fill="white">
                            <use xlink:href="#path-32"></use>
                        </mask>
                        <g id="Clip-50"></g>
                        <path d="M2.95128205,0.268717949 C1.19846154,0.403589744 -0.113846154,1.93435897 0.0215384615,3.68769231 L0.0215384615,3.68769231 C0.155897436,5.44051282 1.68717949,6.75230769 3.44,6.61794872 L3.44,6.61794872 C5.19282051,6.4825641 6.50512821,4.95179487 6.36974359,3.19846154 L6.36974359,3.19846154 C6.24153846,1.52923077 4.84666667,0.258974359 3.19948718,0.259487179 L3.19948718,0.259487179 C3.1174359,0.259487179 3.03435897,0.262564103 2.95128205,0.268717949" id="Fill-49" fill="url(#linearGradient-34)" mask="url(#mask-33)"></path>
                    </g>
                    <g transform="translate(2.051282, 0.423795)">
                        <path d="M4.11789744,1.81615385 C4.11789744,1.81615385 4.22302564,1.19410256 3.3794359,0.920769231 C3.3794359,0.920769231 2.67482051,0.711538462 2.422,1.25153846 C2.422,1.25153846 2.33225641,1.49769231 2.63071795,1.60333333 C2.92866667,1.70948718 3.91584615,2.00538462 3.91584615,2.00538462 C3.91584615,2.00538462 4.1245641,2.00487179 4.11789744,1.81615385" id="Fill-51" fill="#231815"></path>
                        <path d="M10.1390256,1.53923077 C10.1390256,1.53923077 9.82005128,0.995128205 10.5113333,0.43974359 C10.5113333,0.43974359 11.0959487,-0.00641025641 11.523641,0.409487179 C11.523641,0.409487179 11.6949231,0.607435897 11.4538974,0.812051282 C11.2128718,1.01717949 10.3954359,1.64487179 10.3954359,1.64487179 C10.3954359,1.64487179 10.2000513,1.71871795 10.1390256,1.53923077" id="Fill-53" fill="#231815"></path>
                        <path d="M13.4811282,2.92994872 C14.3308718,3.2294359 14.7770256,4.16071795 14.4775385,5.01097436 C14.1785641,5.86071795 13.2467692,6.30687179 12.3970256,6.00738462 C11.5472821,5.70789744 11.1011282,4.77661538 11.4006154,3.92635897 C11.4483077,3.79046154 11.5129231,3.66482051 11.590359,3.55046154 C11.5877949,3.57302564 11.5862564,3.59610256 11.5862564,3.61969231 C11.5862564,3.94020513 11.8462564,4.20020513 12.1667692,4.20020513 C12.4877949,4.20020513 12.7477949,3.94020513 12.7477949,3.61969231 C12.7477949,3.29866667 12.4877949,3.03866667 12.1667692,3.03866667 C12.1626667,3.03866667 12.1580513,3.03917949 12.1539487,3.03917949 C12.5462564,2.82328205 13.0252308,2.76994872 13.4811282,2.92994872" id="Fill-55" fill="#2D4C4E"></path>
                        <path d="M12.9390256,3.6225641 C13.4062051,3.6225641 13.7851795,4.00153846 13.7851795,4.46871795 C13.7851795,4.93589744 13.4062051,5.31487179 12.9390256,5.31487179 C12.4718462,5.31487179 12.0933846,4.93589744 12.0933846,4.46871795 C12.0933846,4.37487179 12.1087692,4.28410256 12.1369744,4.19948718 C12.1472308,4.2 12.1569744,4.2 12.1672308,4.2 C12.4795385,4.2 12.7338974,3.95384615 12.7472308,3.64461538 C12.8087692,3.63076923 12.8733846,3.6225641 12.9390256,3.6225641" id="Fill-57" fill="#231815"></path>
                        <path d="M11.7826667,5.59523077 C11.9995897,5.59523077 12.1765128,5.41779487 12.1765128,5.20087179 C12.1765128,4.98446154 11.9995897,4.80753846 11.7826667,4.80753846 C11.5657436,4.80753846 11.3888205,4.98446154 11.3888205,5.20087179 C11.3888205,5.41779487 11.5657436,5.59523077 11.7826667,5.59523077" id="Fill-59" fill="#FFFFFF"></path>
                        <path d="M2.40969231,3.78230769 C3.2594359,4.08179487 3.70558974,5.01307692 3.40610256,5.86333333 C3.10712821,6.71307692 2.17533333,7.15923077 1.32558974,6.85974359 C0.475846154,6.56025641 0.0296923077,5.62897436 0.328666667,4.77871795 C0.376871795,4.64282051 0.441487179,4.51717949 0.518923077,4.40282051 C0.516358974,4.42538462 0.514820513,4.44846154 0.514820513,4.47205128 C0.514820513,4.7925641 0.774820513,5.05307692 1.09533333,5.05307692 C1.41635897,5.05307692 1.67635897,4.7925641 1.67635897,4.47205128 C1.67635897,4.15153846 1.41635897,3.89153846 1.09533333,3.89153846 L1.082,3.89153846 C1.47482051,3.67564103 1.95379487,3.62230769 2.40969231,3.78230769" id="Fill-61" fill="#2D4C4E"></path>
                        <path d="M1.86758974,4.4754359 C2.33476923,4.4754359 2.71374359,4.85389744 2.71374359,5.32107692 C2.71374359,5.78876923 2.33476923,6.16723077 1.86758974,6.16723077 C1.40041026,6.16723077 1.02194872,5.78876923 1.02194872,5.32107692 C1.02194872,5.22723077 1.03733333,5.13646154 1.06553846,5.05184615 C1.07579487,5.05235897 1.08553846,5.05287179 1.09579487,5.05287179 C1.40810256,5.05287179 1.66246154,4.80620513 1.67579487,4.49697436 C1.73733333,4.48312821 1.80194872,4.4754359 1.86758974,4.4754359" id="Fill-63" fill="#231815"></path>
                        <path d="M1.68851282,6.48415385 C1.9054359,6.48415385 2.08235897,6.30671795 2.08235897,6.08979487 C2.08235897,5.87338462 1.9054359,5.69646154 1.68851282,5.69646154 C1.47158974,5.69646154 1.29466667,5.87338462 1.29466667,6.08979487 C1.29466667,6.30671795 1.47158974,6.48415385 1.68851282,6.48415385" id="Fill-65" fill="#FFFFFF"></path>
                        <path d="M4.73917949,24.6442051 L4.51148718,26.041641 C5.35251282,26.1831795 6.41148718,26.4252308 7.23815385,26.4667692 C7.68687179,25.4667692 9.74533333,25.3170256 10.0878974,26.4257436 L12.8391795,25.9893333 L12.7258462,24.3995897 C11.6125128,24.6144615 10.3499487,24.7621538 9.00892308,24.8180513 C7.45148718,24.8826667 5.98994872,24.8149744 4.73917949,24.6442051" id="Fill-67" fill="#231815"></path>
                        <path d="M9.28220513,23.9310769 C9.58887179,23.9310769 9.83861538,23.6813333 9.83861538,23.3746667 C9.83861538,23.068 9.58887179,22.8182564 9.28220513,22.8182564 C8.97553846,22.8182564 8.72579487,23.068 8.72579487,23.3746667 C8.72579487,23.6813333 8.97553846,23.9310769 9.28220513,23.9310769" id="Fill-69" fill="#231815"></path>
                        <path d="M9.40635897,22.656 C9.80328205,22.656 10.1248205,22.9780513 10.1248205,23.3744615 C10.1248205,23.7718974 9.80328205,24.0934359 9.40635897,24.0934359 C9.37302564,24.0934359 9.34020513,24.0908718 9.30789744,24.0862564 C9.6894359,24.0734359 9.9945641,23.7590769 9.9945641,23.3744615 C9.9945641,22.9898462 9.6894359,22.6765128 9.30789744,22.6631795 C9.34020513,22.6585641 9.37302564,22.656 9.40635897,22.656" id="Fill-71" fill="#444545"></path>
                        <path d="M6.86082051,11.4050256 C6.98082051,11.4778462 7.13210256,11.5434872 7.27620513,11.5947692 C7.42492308,11.6429744 7.57569231,11.6845128 7.72953846,11.7081026 C8.03671795,11.7573333 8.3505641,11.7593846 8.65671795,11.7086154 C8.73312821,11.6968205 8.808,11.6747692 8.88389744,11.6588718 C8.92133333,11.6501538 8.95928205,11.6429744 8.99671795,11.6316923 L9.10697436,11.5937436 C9.17979487,11.5670769 9.25466667,11.5460513 9.32646154,11.5163077 L9.53825641,11.4173333 C9.57312821,11.4004103 9.60902564,11.3860513 9.64338462,11.3670769 L9.74441026,11.3070769 L9.9454359,11.1865641 C10.0756923,11.098359 10.1992821,11.0009231 10.3264615,10.9091282 L10.3474872,10.8937436 C10.4526154,10.8178462 10.5997949,10.8414359 10.6756923,10.9470769 C10.7515897,11.0527179 10.728,11.1993846 10.622359,11.2752821 C10.6208205,11.2768205 10.6177436,11.2788718 10.6151795,11.2804103 C10.4710769,11.3763077 10.3300513,11.4773333 10.1828718,11.5675897 L9.95312821,11.6922051 L9.83825641,11.7537436 C9.79928205,11.7732308 9.75774359,11.7881026 9.71774359,11.8050256 L9.47569231,11.9055385 C9.39364103,11.9357949 9.308,11.9568205 9.22492308,11.9824615 L9.09876923,12.0193846 C9.05620513,12.0301538 9.01261538,12.0363077 8.96953846,12.0450256 C8.88338462,12.0593846 8.79774359,12.0793846 8.7105641,12.0891282 C8.36184615,12.1322051 8.00697436,12.1147692 7.6654359,12.0434872 C7.32133333,11.9701538 6.99979487,11.8522051 6.6905641,11.6511795 C6.62184615,11.6065641 6.60235897,11.5142564 6.64697436,11.4450256 C6.69107692,11.3768205 6.78030769,11.3568205 6.84902564,11.3978462 L6.86082051,11.4050256 Z" id="Fill-73" fill="#231815"></path>
                        <path d="M2.79682051,19.8755897 C2.79682051,19.8755897 2.8465641,19.2489231 3.22964103,19.2596923 C3.22964103,19.2596923 3.55528205,19.2827692 3.52194872,20.1099487 L3.51630769,20.1432821 C3.4614359,20.9278974 2.77117949,21.832 1.91887179,21.4596923 C1.41835897,21.2407179 0.331692308,20.4884103 0.604,19.7140513 C0.875794872,18.9402051 1.35784615,19.0904615 1.63630769,19.1453333 C2.31630769,19.2786667 2.79835897,19.9012308 2.79835897,19.9012308 L2.79682051,19.8755897 Z" id="Fill-75" fill="#15BBB7"></path>
                    </g>
                </g>
            </g>
        </g>
    </g>
</svg>