<?xml version="1.0" encoding="UTF-8"?>
<svg width="36px" height="36px" viewBox="0 0 36 36" version="1.1" xmlns="http://www.w3.org/2000/svg" xmlns:xlink="http://www.w3.org/1999/xlink">
    <!-- Generator: Sketch 59.1 (86144) - https://sketch.com -->
    <title>pause_task</title>
    <desc>Created with Sketch.</desc>
    <g id="法律生产-企大宝" stroke="none" stroke-width="1" fill="none" fill-rule="evenodd">
        <g id="通知icon" transform="translate(-252.000000, -1147.000000)">
            <g id="pause_task" transform="translate(252.000000, 1147.000000)">
                <circle id="椭圆形" fill="#E7E8EB" cx="18" cy="18" r="18"></circle>
                <g id="编组-2" transform="translate(12.000000, 12.000000)" stroke="#979797" stroke-linecap="round" stroke-linejoin="round" stroke-width="1.5">
                    <polyline id="路径" points="5.1 13 0 13 0 0 13 0 13 4.47549295"></polyline>
                    <g id="编组-4" transform="translate(4.600000, 5.000000)">
                        <line x1="0.5" y1="3.5" x2="0.5" y2="4.46185443e-14" id="直线-4备份-2"></line>
                        <line x1="3.5" y1="3.5" x2="3.5" y2="4.46185443e-14" id="直线-4备份-3"></line>
                    </g>
                </g>
                <g id="编组-2" transform="translate(21.000000, 20.000000)" stroke="#979797" stroke-linecap="round" stroke-linejoin="round" stroke-width="1.5">
                    <g id="编组-4" transform="translate(0.600000, 0.000000)">
                        <g id="编组-5" transform="translate(0.400000, 0.000000)">
                            <path d="M1.92592265,4.80993539 L0.935998769,2.12621867 C0.646558841,1.29005887 1.08976286,0.377580012 1.92592265,0.0881400847 C2.09449025,0.0297897608 2.27161896,-1.75237602e-12 2.45,-1.75237602e-12 C3.33483822,-1.75237602e-12 4.05214132,0.7173031 4.05214132,1.60214132 C4.05214132,1.78052236 4.02235156,1.95765106 3.96400123,2.12621867 L2.99080947,4.93766155" id="路径"></path>
                            <line x1="0" y1="5" x2="5" y2="5" id="路径"></line>
                        </g>
                    </g>
                </g>
            </g>
        </g>
    </g>
</svg>