<?xml version="1.0" encoding="UTF-8"?>
<svg width="36px" height="36px" viewBox="0 0 36 36" version="1.1" xmlns="http://www.w3.org/2000/svg" xmlns:xlink="http://www.w3.org/1999/xlink">
    <!-- Generator: Sketch 59.1 (86144) - https://sketch.com -->
    <title>unknown_inform</title>
    <desc>Created with Sketch.</desc>
    <g id="页面1" stroke="none" stroke-width="1" fill="none" fill-rule="evenodd">
        <g id="通知icon" transform="translate(-1260.000000, -744.000000)">
            <g id="unknown_inform" transform="translate(1260.000000, 744.000000)">
                <g id="编组-2复制-10">
                    <circle id="椭圆形" fill="#E7E8EB" cx="18" cy="18" r="18"></circle>
                    <g id="编组" transform="translate(14.000000, 10.000000)">
                        <path d="M0,3.89064834 C0,1.72314834 1.7715,-0.0303516567 3.94575,0.000398343304 C6.012,0.0288983433 7.752,1.76889834 7.78125,3.83514834 C7.80225,5.36964834 6.9345,6.70389834 5.66025,7.35639834 C4.6065,7.89564834 3.89025,8.92089834 3.89025,10.1051483 L3.89025,10.1613983" id="Stroke-1" stroke="#979797" stroke-width="1.5" stroke-linecap="round" stroke-linejoin="round"></path>
                        <path d="M5.43735,14.1820733 C5.43735,15.0106448 4.76592143,15.6820733 3.93735,15.6820733 C3.10767967,15.6820733 2.43735,15.0106448 2.43735,14.1820733 C2.43735,13.3535019 3.10767967,12.6820733 3.93735,12.6820733 C4.76592143,12.6820733 5.43735,13.3535019 5.43735,14.1820733" id="Fill-3" fill="#979797"></path>
                    </g>
                </g>
            </g>
        </g>
    </g>
</svg>