<?xml version="1.0" standalone="no"?><!DOCTYPE svg PUBLIC "-//W3C//DTD SVG 1.1//EN" "http://www.w3.org/Graphics/SVG/1.1/DTD/svg11.dtd"><svg class="icon" width="200px" height="200.00px" viewBox="0 0 1024 1024" version="1.1" xmlns="http://www.w3.org/2000/svg"><path d="M511.7 378.4c-31.6 0-61.2 12.7-83.6 35.8-22.3 23.2-34.7 53.8-34.7 86.4 0 32.7 12.4 63.3 34.7 86.4 22.4 23.1 52 35.8 83.6 35.8 31.6 0 61.2-12.8 83.6-35.8 22.3-23.2 34.7-53.7 34.7-86.4s-12.4-63.3-34.7-86.4c-22.4-23.1-52-35.8-83.6-35.8z m435.9 257.3l-69.1-61.1c3.3-20.8 5-42 5-63 0-21.1-1.7-42.4-5-63l69.1-61.1c10.7-9.4 14.6-24.7 9.8-38.5l-1-2.8c-19.1-55.1-47.4-105.8-84.2-150.4l-1.9-2.3c-9.1-11-23.8-15.2-37.1-10.4l-85.9 31.6c-31.7-26.9-67-48.1-105.3-62.8l-16.6-92.8C623 44.8 612.1 33.6 598.3 31l-2.9-0.5c-55-10.3-112.9-10.3-167.9 0l-2.9 0.5c-13.8 2.6-24.7 13.8-27.3 28.1l-16.7 93.2c-38 14.9-73.1 35.9-104.6 62.6l-86.5-31.8c-13.2-4.8-28-0.8-37.1 10.4l-1.9 2.3c-36.8 44.9-65 95.5-84.2 150.4l-1 2.8c-4.8 13.7-0.8 28.9 9.8 38.5l70 61.7c-3.3 20.5-4.9 41.5-4.9 62.3 0 21 1.6 42 4.9 62.3l-69.8 61.7c-10.7 9.4-14.6 24.7-9.8 38.5l1 2.8c19.1 55 47.4 105.8 84.2 150.4l1.9 2.3c9.1 11 23.8 15.2 37.1 10.4l86.5-31.8c31.5 26.8 66.6 48 104.6 62.6l16.7 93.2c2.5 14.3 13.4 25.5 27.3 28.1l2.9 0.5c27.6 5.1 55.7 7.8 83.9 7.8s56.5-2.6 83.9-7.8l2.9-0.5c13.9-2.6 24.7-13.8 27.3-28.1l16.6-92.8c38.3-14.9 73.6-35.9 105.3-62.8l85.9 31.6c13.2 4.8 28 0.8 37.1-10.4l1.9-2.3c36.8-44.9 65-95.5 84.2-150.4l1-2.8c4.5-13.6 0.6-28.8-10.1-38.3z m-435.9 57c-102.7 0-185.9-86-185.9-192.1S409 308.5 511.7 308.5s185.9 86 185.9 192.1c-0.1 106.1-83.3 192.1-185.9 192.1z"  /></svg>
