<?xml version="1.0" standalone="no"?><!DOCTYPE svg PUBLIC "-//W3C//DTD SVG 1.1//EN" "http://www.w3.org/Graphics/SVG/1.1/DTD/svg11.dtd"><svg class="icon" width="200px" height="200.00px" viewBox="0 0 1024 1024" version="1.1" xmlns="http://www.w3.org/2000/svg"><path d="M226.7 780.3c2.2 0 4.5-0.2 6.7-0.6l188.4-33c2.2-0.4 4.4-1.5 5.9-3.1l474.8-474.8c4.4-4.4 4.4-11.4 0-15.8L716.3 66.7c-2.1-2.1-4.9-3.2-8-3.2s-5.8 1.1-8 3.2L225.7 541.5c-1.7 1.7-2.7 3.7-3.1 5.9l-33 188.4c-2.1 12.4 1.7 24.5 10.5 33.4 7.3 7.2 16.6 11.1 26.6 11.1zM302.2 585l406.2-406.1 82.1 82.1-406.2 406.1-99.6 17.6 17.5-99.7z m621.5 289.4H99.3c-19.8 0-35.8 16-35.8 35.8v40.3c0 4.9 4 9 9 9h878.1c4.9 0 9-4 9-9v-40.3c-0.1-19.8-16.1-35.8-35.9-35.8z m0 0"  /></svg>
