<?xml version="1.0" standalone="no"?><!DOCTYPE svg PUBLIC "-//W3C//DTD SVG 1.1//EN" "http://www.w3.org/Graphics/SVG/1.1/DTD/svg11.dtd"><svg class="icon" width="200px" height="200.00px" viewBox="0 0 1024 1024" version="1.1" xmlns="http://www.w3.org/2000/svg"><path d="M956.4 885L760.1 688.7c52.2-67.5 80.4-150 80.4-236.7 0-103.9-40.5-201.2-113.8-274.7S555.7 63.5 452 63.5 250.6 104 177.3 177.3C103.9 250.6 63.5 348.1 63.5 452c0 103.7 40.5 201.4 113.8 274.7 73.3 73.4 170.8 113.8 274.7 113.8 86.8 0 169.1-28.2 236.6-80.3l196.3 196.2c4.1 4.1 10.9 4.1 15 0l56.5-56.3c4.1-4.2 4.1-10.9 0-15.1zM657.1 657.1c-54.9 54.8-127.7 85-205.1 85-77.4 0-150.2-30.2-205.1-85-54.8-54.9-85-127.7-85-205.1 0-77.4 30.2-150.3 85-205.1 54.9-54.8 127.7-85 205.1-85 77.4 0 150.3 30 205.1 85 54.8 54.9 85 127.7 85 205.1 0 77.4-30.2 150.3-85 205.1z m0 0"  /></svg>
