<?xml version="1.0" standalone="no"?><!DOCTYPE svg PUBLIC "-//W3C//DTD SVG 1.1//EN" "http://www.w3.org/Graphics/SVG/1.1/DTD/svg11.dtd"><svg class="icon" width="200px" height="200.00px" viewBox="0 0 1024 1024" version="1.1" xmlns="http://www.w3.org/2000/svg"><path d="M922.2 224.8H772.8v-89.6c0-39.5-33.5-71.7-74.7-71.7H324.8c-41.2 0-74.7 32.1-74.7 71.7v89.6H100.8c-20.7 0-37.3 16-37.3 35.8v35.8c0 4.9 4.2 9 9.3 9h70.5l28.8 585.8c1.9 38.2 34.8 68.3 74.6 68.3h529.7c39.9 0 72.7-30 74.6-68.3l28.8-585.8h70.5c5.1 0 9.3-4 9.3-9v-35.8c-0.1-19.8-16.8-35.8-37.4-35.8z m-597.4-80.7c5.1 0 9.3-4 9.3-9v9h354.7v-9c0 4.9 4.2 9 9.3 9h-9.3v80.6H334.2v-80.6h-9.4z m442.6 734.8H255.7l-28.2-573.4h568.2l-28.3 573.4z"  /></svg>
