<?xml version="1.0" standalone="no"?><!DOCTYPE svg PUBLIC "-//W3C//DTD SVG 1.1//EN" "http://www.w3.org/Graphics/SVG/1.1/DTD/svg11.dtd"><svg class="icon" width="200px" height="200.00px" viewBox="0 0 1024 1024" version="1.1" xmlns="http://www.w3.org/2000/svg"><path d="M889.9 794.7c-20.6-50.4-50.3-95.7-88-134.5s-81.6-69.3-130.5-90.7c-0.4-0.2-0.9-0.3-1.3-0.6 68-50.7 112.3-133.2 112.3-226.3 0-154.2-121.2-279.2-270.9-279.2s-270.8 125-270.8 279.3c0 93.1 44.2 175.6 112.3 226.4-0.4 0.2-0.9 0.3-1.3 0.6-48.9 21.3-92.8 51.8-130.5 90.7-37.7 38.8-67.3 84.1-88 134.5-20.3 49.3-31.1 101.6-32.2 155.4-0.1 5.1 3.8 9.2 8.7 9.2h65.5c4.8 0 8.6-3.9 8.7-8.8 2.2-86.9 36-168.3 95.9-230 61.9-63.8 144.2-98.9 231.8-98.9s169.8 35.1 231.8 98.9c59.8 61.7 93.7 143.1 95.9 230 0.1 5 3.9 8.8 8.7 8.8h65.5c4.9 0 8.8-4.2 8.7-9.2-1.1-53.8-12-106.2-32.3-155.6zM511.5 536.3c-50.1 0-97.3-20.1-132.8-56.7-35.5-36.6-55-85.2-55-136.9s19.6-100.3 55-136.9c35.5-36.6 82.7-56.7 132.8-56.7 50.1 0 97.3 20.1 132.8 56.7 35.5 36.6 55 85.2 55 136.9s-19.5 100.3-55 136.9c-35.5 36.5-82.7 56.7-132.8 56.7z m0 0"  /></svg>
