<svg xmlns="http://www.w3.org/2000/svg" viewBox="0 0 25 25"><defs><style>.cls-1{fill:#d8d9db;}</style></defs><title>资源 1</title><g id="图层_2" data-name="图层 2"><g id="图层_1-2" data-name="图层 1"><g id="页面1"><g id="案例-案例预览"><g id="icon_step" data-name="icon step"><g id="椭圆形"><path class="cls-1" d="M12.5,25A12.5,12.5,0,1,1,25,12.5,12.52,12.52,0,0,1,12.5,25Zm0-24A11.5,11.5,0,1,0,24,12.5,11.51,11.51,0,0,0,12.5,1Z"/></g><g id="直线"><path class="cls-1" d="M18.75,9.75h-8a.75.75,0,0,1,0-1.5h8a.75.75,0,0,1,0,1.5Z"/></g><g id="直线复制-2"><path class="cls-1" d="M18.75,13.58h-8a.75.75,0,0,1,0-1.5h8a.75.75,0,0,1,0,1.5Z"/></g><g id="直线复制-4"><path class="cls-1" d="M18.75,17.42h-8a.75.75,0,0,1,0-1.5h8a.75.75,0,0,1,0,1.5Z"/></g><g id="直线复制"><path class="cls-1" d="M8.25,9.75h-.5a.75.75,0,0,1,0-1.5h.5a.75.75,0,0,1,0,1.5Z"/></g><g id="直线复制-3"><path class="cls-1" d="M8.25,13.58h-.5a.75.75,0,1,1,0-1.5h.5a.75.75,0,0,1,0,1.5Z"/></g><g id="直线复制-5"><path class="cls-1" d="M8.25,17.42h-.5a.75.75,0,1,1,0-1.5h.5a.75.75,0,1,1,0,1.5Z"/></g></g></g></g></g></g></svg>