<?xml version="1.0" standalone="no"?><!DOCTYPE svg PUBLIC "-//W3C//DTD SVG 1.1//EN" "http://www.w3.org/Graphics/SVG/1.1/DTD/svg11.dtd"><svg class="icon" width="200px" height="200.00px" viewBox="0 0 1024 1024" version="1.1" xmlns="http://www.w3.org/2000/svg"><path d="M353.5 286.8H467V686c0 5.2 4.2 9.4 9.3 9.4h70c5.1 0 9.3-4.2 9.3-9.4V286.7h113.8c7.8 0 12.1-9.1 7.4-15.2l-158-167.2c-3.7-4.8-11-4.8-14.7 0l-158 167.3c-4.8 6.2-0.5 15.2 7.4 15.2z m596.4 348H878c-5.3 0-9.6 4.3-9.6 9.7v186.1H154.5V644.4c0-5.3-4.3-9.7-9.6-9.7H73.1c-5.3 0-9.6 4.3-9.6 9.7v239.2c0 21.4 17.1 38.7 38.3 38.7h819.3c21.2 0 38.3-17.3 38.3-38.7V644.4c0.1-5.3-4.2-9.6-9.5-9.6z"  /></svg>
