<?xml version="1.0" standalone="no"?><!DOCTYPE svg PUBLIC "-//W3C//DTD SVG 1.1//EN" "http://www.w3.org/Graphics/SVG/1.1/DTD/svg11.dtd"><svg class="icon" width="200px" height="200.00px" viewBox="0 0 1024 1024" version="1.1" xmlns="http://www.w3.org/2000/svg"><path d="M913.7 486.3L598 71.3c-3.7-5-9.5-7.8-15.6-7.8h-95.6c-8.3 0-12.9 9.8-7.8 16.4l328.3 431.6L479 943.1c-5.1 6.6-0.5 16.4 7.8 16.4h95.6c6.1 0 11.9-2.9 15.6-7.8l315.8-415.2c11.2-14.7 11.2-35.4-0.1-50.2z m-376 0l-315.8-415c-3.7-5-9.5-7.8-15.6-7.8h-95.6c-8.3 0-12.9 9.8-7.8 16.4l328.3 431.6L103 943.1c-5.1 6.6-0.5 16.4 7.8 16.4h95.6c6.1 0 11.9-2.9 15.6-7.8l315.8-415.2c11.2-14.7 11.2-35.4-0.1-50.2z"  /></svg>
