<?xml version="1.0" standalone="no"?><!DOCTYPE svg PUBLIC "-//W3C//DTD SVG 1.1//EN" "http://www.w3.org/Graphics/SVG/1.1/DTD/svg11.dtd"><svg class="icon" width="200px" height="200.00px" viewBox="0 0 1024 1024" version="1.1" xmlns="http://www.w3.org/2000/svg"><path d="M138.2 436.8c-41.2 0-74.7 33.4-74.7 74.7 0 41.2 33.4 74.7 74.7 74.7 41.2 0 74.7-33.4 74.7-74.7-0.1-41.2-33.5-74.7-74.7-74.7z m373.3 0c-41.2 0-74.7 33.4-74.7 74.7 0 41.2 33.4 74.7 74.7 74.7 41.2 0 74.7-33.4 74.7-74.7 0-41.2-33.5-74.7-74.7-74.7z m373.3 0c-41.2 0-74.7 33.4-74.7 74.7 0 41.2 33.4 74.7 74.7 74.7 41.2 0 74.7-33.4 74.7-74.7 0-41.2-33.4-74.7-74.7-74.7z"  /></svg>
