<?xml version="1.0" standalone="no"?><!DOCTYPE svg PUBLIC "-//W3C//DTD SVG 1.1//EN" "http://www.w3.org/Graphics/SVG/1.1/DTD/svg11.dtd"><svg class="icon" width="200px" height="200.00px" viewBox="0 0 1024 1024" version="1.1" xmlns="http://www.w3.org/2000/svg"><path d="M512.1 81.7c-11.3 0-20.3 3.5-26.8 10.5-6.6 6.9-11.7 15.4-15.2 25L367.4 361.6 91.5 387.1c-6.5 1.3-12.4 4.2-17.8 9.1-5.4 4.9-8.7 11.5-9.8 20.1-1.2 8.5 0.7 16.8 5.7 25 5.1 8.2 11.2 15.6 18.3 22.4l9.8 8.6 22.8 20.1c9.4 8.2 19.7 17.3 31.4 27.3l35.2 30.5c28 24.3 59.5 52 94.7 83l-30.4 127.7c-4.1 16.1-8.1 32.2-12.1 48.3-3.8 15.8-7.3 30.2-10.3 43.3-3 13.1-5.6 24.2-8 33.7l-4.5 17.8c-1.3 5.4-0.6 10.8 1.8 15.9s6.1 9.6 11.2 13.2c5 3.7 10.7 5.9 16.9 6.9 1.4 0.2 2.8 0.3 4.1 0.3 4.8 0 9.5-1.2 14.2-3.5 3-1.3 8.8-4.4 17.4-9.1 8.7-4.9 18.9-11 30.8-18.3 11.8-7.3 25.2-15.1 39.7-23.7 14.5-8.5 29.4-17 44.2-25.5 34.6-20 72.9-42.8 115.3-68.3l233.1 138.5 13 5c5.6 2.2 9.9 3.2 12.9 3.2 9 0 16.9-2 24.2-5.9 7.1-4 9.8-12 8-24.2-0.6-2.4-1.7-8.3-3.5-17.8l-6.7-34.1c-3-14.9-5.8-29.8-8.5-44.7-3-16.4-6.3-32.8-9.8-49.2-7.8-39-16.7-82.4-26.8-130.3l184.9-169.6c7.7-9.2 14.1-16.9 19.2-23.3 5.1-6.4 7.6-13.8 7.6-22.3 0-9.1-2.4-15.8-7.1-20.1-4.8-4.2-13.2-7.8-25-10.9l-276-26.4-100-244.4c-1.2-2.4-2.9-5.4-5-9.1-2.1-3.6-4.6-7.3-7.6-10.9-3-3.7-6.7-6.9-11-9.6-4.7-2.7-9.9-4.1-15.9-4.1"  /></svg>
