<?xml version="1.0" standalone="no"?><!DOCTYPE svg PUBLIC "-//W3C//DTD SVG 1.1//EN" "http://www.w3.org/Graphics/SVG/1.1/DTD/svg11.dtd"><svg class="icon" width="200px" height="200.00px" viewBox="0 0 1024 1024" version="1.1" xmlns="http://www.w3.org/2000/svg"><path d="M956.5 505.2L813.6 392.4c-5.3-4.1-13.1-0.4-13.1 6.4v72.5H551.9V222.6h72.6c6.7 0 10.5-7.8 6.4-13.1l-113-142.9c-3.2-4.1-9.5-4.1-12.7 0L392.4 209.5c-4.1 5.3-0.4 13.1 6.4 13.1h72.5v248.6H222.6v-72.6c0-6.7-7.8-10.5-13.1-6.4l-142.9 113c-4.1 3.2-4.1 9.5 0 12.7l142.8 112.9c5.3 4.1 13.1 0.4 13.1-6.4v-72.5h248.6v248.6h-72.6c-6.7 0-10.5 7.8-6.4 13.1L505 956.4c3.2 4.1 9.5 4.1 12.7 0l112.9-142.8c4.1-5.3 0.4-13.1-6.4-13.1h-72.3V551.9h248.6v72.6c0 6.7 7.8 10.5 13.1 6.4L956.4 518c4.1-3.3 4.1-9.6 0.1-12.8z m0 0"  /></svg>
