<?xml version="1.0" standalone="no"?><!DOCTYPE svg PUBLIC "-//W3C//DTD SVG 1.1//EN" "http://www.w3.org/Graphics/SVG/1.1/DTD/svg11.dtd"><svg class="icon" width="200px" height="200.00px" viewBox="0 0 1024 1024" version="1.1" xmlns="http://www.w3.org/2000/svg"><path d="M144.6 503.2c1.1-46.6 10.7-91.8 28.7-134.4 18.5-43.7 44.9-82.9 78.6-116.7 33.7-33.8 73-60.3 116.7-78.7 45.2-19.1 93.2-28.8 142.8-28.8s97.6 9.7 142.7 28.8c43.6 18.5 82.9 44.9 116.6 78.7 10.6 10.6 20.5 21.8 29.7 33.5l-64.2 50.1c-5.7 4.4-3.7 13.3 3.2 15l187.4 45.9c5.3 1.3 10.6-2.8 10.6-8.2l0.8-193c0-7.1-8.2-11.2-13.8-6.7l-60.2 47c-82-105-209.6-172.3-353-172.3C266.8 63.4 68 259.2 63.4 502.7c-0.1 4.8 3.7 8.7 8.5 8.7h64c4.8 0.1 8.6-3.6 8.7-8.2z m806.4 8.3h-64c-4.7 0-8.4 3.7-8.5 8.3-1.1 46.6-10.7 91.8-28.7 134.4-18.5 43.7-44.9 83-78.6 116.7-33.7 33.7-73 60.3-116.7 78.7-45.2 19.1-93.2 28.8-142.8 28.8s-97.6-9.7-142.8-28.8c-43.6-18.5-82.9-44.9-116.6-78.7-10.6-10.6-20.5-21.8-29.7-33.5l64.2-50.1c5.6-4.4 3.7-13.3-3.2-15L96.1 626.4c-5.3-1.3-10.6 2.8-10.6 8.2l-0.7 193.1c0 7.1 8.2 11.2 13.8 6.7l60.2-47c82 104.9 209.6 172.2 353 172.2 244.5 0 443.2-195.9 447.8-439.3 0-4.9-3.8-8.8-8.6-8.8z m0 0"  /></svg>
