<?xml version="1.0" standalone="no"?><!DOCTYPE svg PUBLIC "-//W3C//DTD SVG 1.1//EN" "http://www.w3.org/Graphics/SVG/1.1/DTD/svg11.dtd"><svg class="icon" width="200px" height="200.00px" viewBox="0 0 1024 1024" version="1.1" xmlns="http://www.w3.org/2000/svg"><path d="M692.8 653.6c26.5-14.2 56.8-22.2 89-22.2h0.1c3.3 0 4.8-3.9 2.4-6.1-33.7-30.1-71.7-54.2-113.4-71.7-0.4-0.2-0.9-0.3-1.3-0.5 67.9-49.2 112.1-129.1 112.1-219.2 0-149.3-121.2-270.3-270.7-270.3s-270.6 121-270.6 270.3c0 90.1 44.2 170 112.2 219.2-0.4 0.2-0.9 0.3-1.3 0.5-48.9 20.6-92.7 50.1-130.5 87.9-37.7 37.6-67.3 81.4-87.9 130.3-20.2 47.7-31.1 98.4-32.2 150.5-0.1 4.9 3.8 8.9 8.8 8.9H175c4.7 0 8.6-3.8 8.8-8.5 2.2-84.1 36-163 95.8-222.7 61.8-61.8 144-95.8 231.5-95.8 62 0 121.5 17.1 172.8 49.2 2.8 1.5 6.1 1.8 8.9 0.2zM511.2 521.3c-50.1 0-97.2-19.5-132.8-54.9-35.4-35.4-55-82.5-55-132.5s19.6-97.1 55-132.5c35.4-35.4 82.6-54.9 132.8-54.9 50.2 0 97.2 19.5 132.8 54.9 35.4 35.4 55 82.5 55 132.5s-19.6 97.1-55 132.5c-35.6 35.4-82.7 54.9-132.8 54.9z m402.2 259.4h-91.9v-91.6c0-4.8-3.9-8.7-8.8-8.7h-61.2c-4.8 0-8.7 3.9-8.7 8.7v91.6h-91.9c-4.8 0-8.8 3.9-8.8 8.7v61c0 4.8 3.9 8.7 8.8 8.7h91.9v91.6c0 4.8 3.9 8.7 8.7 8.7h61.2c4.8 0 8.8-3.9 8.8-8.7v-91.6h91.9c4.8 0 8.7-3.9 8.7-8.7v-61c0-4.7-3.9-8.7-8.7-8.7z m0 0"  /></svg>
