<?xml version="1.0" standalone="no"?><!DOCTYPE svg PUBLIC "-//W3C//DTD SVG 1.1//EN" "http://www.w3.org/Graphics/SVG/1.1/DTD/svg11.dtd"><svg class="icon" width="200px" height="200.00px" viewBox="0 0 1024 1024" version="1.1" xmlns="http://www.w3.org/2000/svg"><path d="M949.1 464.2H561V73.5c0-6.6-3.5-10-10.4-10h-78.1c-6.9 0-10.4 3.3-10.4 10v390.8H73.9c-6.9 0-10.4 3.3-10.4 10V549c0 6.6 3.5 10 10.4 10H462v390.8c0 6.6 3.5 10 10.4 10h78.1c6.9 0 10.4-3.3 10.4-10v-391H949c6.9 0 10.4-3.3 10.4-10v-74.7c0.1-6.6-3.4-9.9-10.3-9.9z"  /></svg>
