<?xml version="1.0" standalone="no"?><!DOCTYPE svg PUBLIC "-//W3C//DTD SVG 1.1//EN" "http://www.w3.org/Graphics/SVG/1.1/DTD/svg11.dtd"><svg t="1571292738494" class="icon" viewBox="0 0 1024 1024" version="1.1" xmlns="http://www.w3.org/2000/svg" p-id="4174" xmlns:xlink="http://www.w3.org/1999/xlink" width="200" height="200"><defs><style type="text/css"></style></defs><path d="M108.3 64h806.4v896H108.3z" fill="#8095FF" p-id="4175"></path><path d="M160.5 136.4c0 20.6 16.7 37.3 37.3 37.3 20.6 0 37.3-16.7 37.3-37.3 0-20.6-16.7-37.3-37.3-37.3-20.6 0-37.3 16.7-37.3 37.3z m0 0M160.5 285.8c0 20.6 16.7 37.3 37.3 37.3 20.6 0 37.3-16.7 37.3-37.3 0-20.6-16.7-37.3-37.3-37.3-20.6-0.1-37.3 16.6-37.3 37.3z m0 0M160.5 435.1c0 20.6 16.7 37.3 37.3 37.3 20.6 0 37.3-16.7 37.3-37.3 0-20.6-16.7-37.3-37.3-37.3-20.6 0-37.3 16.7-37.3 37.3z m0 0M160.5 584.4c0 20.6 16.7 37.3 37.3 37.3 20.6 0 37.3-16.7 37.3-37.3 0-20.6-16.7-37.3-37.3-37.3-20.6 0-37.3 16.7-37.3 37.3z m0 0M160.5 733.8c0 20.6 16.7 37.3 37.3 37.3 20.6 0 37.3-16.7 37.3-37.3 0-20.6-16.7-37.3-37.3-37.3-20.6-0.1-37.3 16.6-37.3 37.3z m0 0M160.5 883.1c0 20.6 16.7 37.3 37.3 37.3 20.6 0 37.3-16.7 37.3-37.3 0-20.6-16.7-37.3-37.3-37.3-20.6 0-37.3 16.7-37.3 37.3z m0 0M802.7 136.4c0 20.6 16.7 37.3 37.3 37.3 20.6 0 37.3-16.7 37.3-37.3 0-20.6-16.7-37.3-37.3-37.3-20.6 0-37.3 16.7-37.3 37.3z m0 0M802.7 285.8c0 20.6 16.7 37.3 37.3 37.3 20.6 0 37.3-16.7 37.3-37.3 0-20.6-16.7-37.3-37.3-37.3-20.6-0.1-37.3 16.6-37.3 37.3z m0 0M802.7 435.1c0 20.6 16.7 37.3 37.3 37.3 20.6 0 37.3-16.7 37.3-37.3 0-20.6-16.7-37.3-37.3-37.3-20.6 0-37.3 16.7-37.3 37.3z m0 0M802.7 584.4c0 20.6 16.7 37.3 37.3 37.3 20.6 0 37.3-16.7 37.3-37.3 0-20.6-16.7-37.3-37.3-37.3-20.6 0-37.3 16.7-37.3 37.3z m0 0M802.7 733.8c0 20.6 16.7 37.3 37.3 37.3 20.6 0 37.3-16.7 37.3-37.3 0-20.6-16.7-37.3-37.3-37.3-20.6-0.1-37.3 16.6-37.3 37.3z m0 0M802.7 883.1c0 20.6 16.7 37.3 37.3 37.3 20.6 0 37.3-16.7 37.3-37.3 0-20.6-16.7-37.3-37.3-37.3-20.6 0-37.3 16.7-37.3 37.3z m0 0M638.4 506L440.5 370.1c-4.5-3-10.5-3.7-15.7-0.7-5.2 3-8.2 8.2-8.2 13.4v271c0 5.2 3 10.4 8.2 13.4 5.2 3 11.2 2.2 15.7-0.7l197.9-136.6c4.5-2.2 6.7-7.5 6.7-11.9 0-4.5-3-9-6.7-12z m0 0" fill="#FFFFFF" p-id="4176"></path></svg>