<?xml version="1.0" standalone="no"?><!DOCTYPE svg PUBLIC "-//W3C//DTD SVG 1.1//EN" "http://www.w3.org/Graphics/SVG/1.1/DTD/svg11.dtd"><svg class="icon" width="200px" height="200.00px" viewBox="0 0 1024 1024" version="1.1" xmlns="http://www.w3.org/2000/svg"><path d="M511.5 63.5c-247.4 0-448 200.6-448 448s200.6 448 448 448 448-200.6 448-448-200.6-448-448-448z m0 708c-22.1 0-40-17.9-40-40s17.9-40 40-40 40 17.9 40 40-17.9 40-40 40zM574.4 552c-18.5 7.1-30.9 25.1-30.9 44.8v22.7c0 4.4-3.6 8-8 8h-48c-4.4 0-8-3.6-8-8V598c0-23.1 6.7-45.9 19.9-64.9 12.9-18.6 30.9-32.8 52.1-40.9 34-13.1 56-41.6 56-72.7 0-44.1-43.1-80-96-80s-96 35.9-96 80v7.6c0 4.4-3.6 8-8 8h-48c-4.4 0-8-3.6-8-8v-7.6c0-39.3 17.2-76 48.4-103.3 30-26.3 69.6-40.7 111.6-40.7s81.6 14.5 111.6 40.7c31.2 27.3 48.4 64 48.4 103.3 0 57.8-38.1 109.8-97.1 132.5z m0 0"  /></svg>
