<?xml version="1.0" standalone="no"?><!DOCTYPE svg PUBLIC "-//W3C//DTD SVG 1.1//EN" "http://www.w3.org/Graphics/SVG/1.1/DTD/svg11.dtd"><svg class="icon" width="200px" height="200.00px" viewBox="0 0 1024 1024" version="1.1" xmlns="http://www.w3.org/2000/svg"><path d="M504 685.3c3.8 4.8 11.3 4.8 15.1 0L681.2 520c4.9-6.1 0.5-15.1-7.5-15.1H556.9V110.2c0-5.1-4.3-9.3-9.6-9.3h-71.9c-5.3 0-9.6 4.2-9.6 9.3v394.7H349.3c-8 0-12.5 9-7.6 15L504 685.3z m445.9-40.8H878c-5.3 0-9.6 4.2-9.6 9.3v179.7H154.5V653.8c0-5.1-4.3-9.3-9.6-9.3H73.1c-5.3 0-9.6 4.2-9.6 9.3v231c0 20.6 17.1 37.3 38.3 37.3h819.3c21.2 0 38.3-16.7 38.3-37.3v-231c0.1-5.1-4.2-9.3-9.5-9.3z"  /></svg>
