<?xml version="1.0" standalone="no"?><!DOCTYPE svg PUBLIC "-//W3C//DTD SVG 1.1//EN" "http://www.w3.org/Graphics/SVG/1.1/DTD/svg11.dtd"><svg class="icon" width="200px" height="200.00px" viewBox="0 0 1024 1024" version="1.1" xmlns="http://www.w3.org/2000/svg"><path d="M647.7 436.3h-340c-4.8 0-8.7 3.9-8.7 8.7v65.4c0 4.8 3.9 8.7 8.7 8.7h340c4.8 0 8.7-3.9 8.7-8.7V445c0-4.8-3.9-8.7-8.7-8.7z m309.5 462.1L798.1 739.2C931.2 577 921.9 336.6 769.8 184.6c-161.3-161.4-423.3-161.4-585.2 0-161.4 161.9-161.4 423.9 0 585.2 152 152.1 392.4 161.4 554.7 28.3l159.1 159.1c3.5 3.1 9 3.1 12 0l46.9-46.9c3-2.9 3-8.5-0.1-11.9zM712 712c-129.5 129.4-339.1 129.4-468.6 0-129.4-129.5-129.4-339.1 0-468.6C372.9 114 582.5 114 712 243.4c129.4 129.5 129.4 339.1 0 468.6z"  /></svg>
