<?xml version="1.0" standalone="no"?><!DOCTYPE svg PUBLIC "-//W3C//DTD SVG 1.1//EN" "http://www.w3.org/Graphics/SVG/1.1/DTD/svg11.dtd"><svg class="icon" width="200px" height="200.00px" viewBox="0 0 1024 1024" version="1.1" xmlns="http://www.w3.org/2000/svg"><path d="M923.7 144.1H735.5V72.5c0-4.9-4-9-9-9h-62.7c-4.9 0-9 4-9 9v71.7H368.1V72.5c0-4.9-4-9-9-9h-62.7c-4.9 0-9 4-9 9v71.7H99.3c-19.8 0-35.8 16-35.8 35.8v743.7c0 19.8 16 35.8 35.8 35.8h824.3c19.8 0 35.8-16 35.8-35.8V180c0.1-19.8-15.9-35.9-35.7-35.9z m-44.8 734.8H144.1V453.3h734.7v425.6zM144.1 377.1V224.8h143.4v53.8c0 4.9 4 9 9 9h62.7c4.9 0 9-4 9-9v-53.8h286.7v53.8c0 4.9 4 9 9 9h62.7c4.9 0 9-4 9-9v-53.8H879v152.3H144.1z m0 0"  /></svg>
