<?xml version="1.0" standalone="no"?><!DOCTYPE svg PUBLIC "-//W3C//DTD SVG 1.1//EN" "http://www.w3.org/Graphics/SVG/1.1/DTD/svg11.dtd"><svg class="icon" width="200px" height="200.00px" viewBox="0 0 1024 1024" version="1.1" xmlns="http://www.w3.org/2000/svg"><path d="M821 145.5c-109.2-109.3-287.1-109.3-396.3 0L122 448.2c-2 2-3 4.6-3 7.4 0 2.8 1 5.5 3 7.4l42.8 42.8c4.1 4.1 10.7 4.1 14.7 0l302.7-302.7c37.6-37.6 87.6-58.3 140.7-58.3 53.1 0 103.1 20.7 140.5 58.3 37.6 37.6 58.2 87.6 58.2 140.7 0 53.2-20.6 103.1-58.2 140.7L455 793.1l-50 50c-46.7 46.8-122.7 46.8-169.4 0-22.6-22.6-35-52.7-35-84.7s12.4-62.1 35-84.7l306-306.2c7.8-7.7 18-11.9 28.9-11.9h0.1c10.9 0 21 4.3 28.6 11.9 7.8 7.8 11.9 18 11.9 28.9 0 10.8-4.3 21-11.9 28.7L349.1 675.2c-2 2-3 4.6-3 7.4 0 2.8 1 5.5 3 7.4l42.8 42.8c4.1 4.1 10.7 4.1 14.7 0l250-250.2c23.1-23.1 35.7-53.7 35.7-86.3 0-32.6-12.8-63.4-35.7-86.3-47.7-47.7-125.1-47.6-172.8 0l-29.7 29.8-276.2 276.3c-38 38.1-58.9 88.5-58.9 142.4 0 53.7 21 104.2 58.9 142.2 39.3 39.2 90.8 58.8 142.3 58.8 51.5 0 103-19.6 142.2-58.8L821 542.1c52.8-52.9 82-123.4 82-198.2 0.1-75-29.1-145.5-82-198.4z m0 0"  /></svg>
