<?xml version="1.0" standalone="no"?><!DOCTYPE svg PUBLIC "-//W3C//DTD SVG 1.1//EN" "http://www.w3.org/Graphics/SVG/1.1/DTD/svg11.dtd"><svg class="icon" width="200px" height="200.00px" viewBox="0 0 1024 1024" version="1.1" xmlns="http://www.w3.org/2000/svg"><path d="M215.8 511.5L544 79.9c5.1-6.6 0.5-16.4-7.8-16.4h-95.6c-6.1 0-11.9 2.9-15.6 7.8L109.3 486.4c-11.3 14.8-11.3 35.5 0 50.3l315.8 415c3.7 5 9.5 7.8 15.6 7.8h95.6c8.3 0 12.9-9.8 7.8-16.4L215.8 511.5z m376 0L920 79.9c5.1-6.6 0.5-16.4-7.8-16.4h-95.6c-6.1 0-11.9 2.9-15.6 7.8L485.3 486.4c-11.3 14.8-11.3 35.5 0 50.3l315.8 415c3.7 5 9.5 7.8 15.6 7.8h95.6c8.3 0 12.9-9.8 7.8-16.4L591.8 511.5z"  /></svg>
