<?xml version="1.0" standalone="no"?><!DOCTYPE svg PUBLIC "-//W3C//DTD SVG 1.1//EN" "http://www.w3.org/Graphics/SVG/1.1/DTD/svg11.dtd"><svg class="icon" width="200px" height="200.00px" viewBox="0 0 1024 1024" version="1.1" xmlns="http://www.w3.org/2000/svg"><path d="M762.8 294.2V144.1h94.1c4.8 0 8.8-4 8.8-9V72.5c0-4.9-3.9-9-8.8-9H165.1c-4.8 0-8.8 4-8.8 9v62.7c0 4.9 3.9 9 8.8 9h94.1v150.1c0 91.3 46.4 171.6 116.5 217.3-70.1 45.7-116.5 126-116.5 217.3V879h-94.1c-4.8 0-8.8 4-8.8 9v62.7c0 4.9 3.9 9 8.8 9h691.8c4.8 0 8.8-4 8.8-9V888c0-4.9-3.9-9-8.8-9h-94.1V728.8c0-91.3-46.4-171.6-116.5-217.3 70.1-45.7 116.5-126 116.5-217.3zM684 728.8v150.1H338V728.8c0-47.3 18-91.7 50.7-125.1 32.6-33.5 76.1-51.9 122.3-51.9s89.7 18.4 122.3 51.9C666 637.1 684 681.5 684 728.8z m0-434.6c0 47.3-18 91.7-50.7 125.1-32.6 33.5-76.1 51.9-122.3 51.9s-89.7-18.4-122.3-51.9C356 385.9 338 341.5 338 294.2V144.1h346v150.1z m0 0"  /></svg>
