<?xml version="1.0" standalone="no"?><!DOCTYPE svg PUBLIC "-//W3C//DTD SVG 1.1//EN" "http://www.w3.org/Graphics/SVG/1.1/DTD/svg11.dtd"><svg class="icon" width="200px" height="200.00px" viewBox="0 0 1024 1024" version="1.1" xmlns="http://www.w3.org/2000/svg"><path d="M953.7 503.1l-0.2-0.2c-37.4-74.4-82.2-134.6-134.3-180.5L767 371.7c44.9 39 83.8 90.9 117.2 156.2-85.6 167.2-207 246.6-372.8 246.6-52.7 0-101-8.1-145.1-24.4l-56.2 53.1c60.1 27.4 127.1 41.2 201.3 41.2 197.5 0 344.6-97.5 442.1-291.4 8-15.8 8-34.1 0.2-49.9z m-65.8-322.4l-43.6-41.2c-3.2-3-8.4-3-11.6 0l-120 113.3c-60-27.5-127-41.2-201.2-41.2-197.5 0-344.7 97.5-442.1 291.4v0.1c-7.9 15.7-7.9 34.2 0 50 37.4 74.4 82.2 134.6 134.3 180.6l-103.5 97.5c-3.2 3-3.2 8 0 11l43.6 41.2c3.2 3 8.4 3 11.6 0l732.5-691.8c3.2-2.9 3.2-7.9 0-10.9zM395.3 552.6c-2-8-3-16.2-3-24.7 0-60.1 51.5-108.7 115.1-108.7 8.9 0 17.8 1 26.1 2.8L395.3 552.6z m189.6-179c-23.5-10.5-49.7-16.4-77.5-16.4-99.9 0-180.8 76.5-180.8 170.8 0 26.2 6.3 51 17.4 73.2l-88 83.1c-44.9-39-83.7-90.9-117.2-156.1C224.5 361 345.9 281.6 511.6 281.6c52.7 0 101 8.1 145.1 24.4l-71.8 67.6z m-77.5 263.1c-6.6 0-13-0.5-19.3-1.6l-52.5 49.6c22 9 46.3 14 71.8 14 99.9 0 180.9-76.5 180.9-170.8 0-24.1-5.2-47.1-14.8-67.8L621 509.7c1 5.9 1.6 12 1.6 18.3-0.1 60-51.6 108.7-115.2 108.7z"  /></svg>
