<?xml version="1.0" standalone="no"?><!DOCTYPE svg PUBLIC "-//W3C//DTD SVG 1.1//EN" "http://www.w3.org/Graphics/SVG/1.1/DTD/svg11.dtd"><svg class="icon" width="200px" height="200.00px" viewBox="0 0 1024 1024" version="1.1" xmlns="http://www.w3.org/2000/svg"><path d="M579.9 511.5l344-399.3c5.8-6.6 0.9-16.7-8-16.7H811.3c-6.2 0-12.1 2.7-16.1 7.3L511.5 432.1 227.8 102.8c-3.9-4.6-9.8-7.3-16.1-7.3H107.1c-8.9 0-13.8 10.1-8 16.7l344 399.3-344 399.3c-5.8 6.6-0.9 16.7 8 16.7h104.6c6.2 0 12.1-2.7 16.1-7.3l283.7-329.4 283.7 329.4c3.9 4.6 9.8 7.3 16.1 7.3h104.6c8.9 0 13.8-10.1 8-16.7l-344-399.3z m0 0"  /></svg>
