<?xml version="1.0" standalone="no"?><!DOCTYPE svg PUBLIC "-//W3C//DTD SVG 1.1//EN" "http://www.w3.org/Graphics/SVG/1.1/DTD/svg11.dtd"><svg t="1571292745027" class="icon" viewBox="0 0 1024 1024" version="1.1" xmlns="http://www.w3.org/2000/svg" p-id="4287" xmlns:xlink="http://www.w3.org/1999/xlink" width="200" height="200"><defs><style type="text/css"></style></defs><path d="M946.6 260.4c-9-9-20.2-13.4-31.4-13.4H474.7l-98.6-98.6c-3.7-3.7-9-7.5-14.2-9.7-6-2.2-11.2-3.7-17.2-3.7h-236c-11.2 0-23.1 4.5-31.4 13.4-8.2 9-13.4 20.2-13.4 31.4v261.3h896V291.7c0.1-11.2-4.4-23.1-13.3-31.3z m0 0" fill="#FFD766" p-id="4288"></path><path d="M915.2 889.1H108.8c-24.6 0-44.8-20.2-44.8-44.8V366.4h896v477.9c0 24.6-20.2 44.8-44.8 44.8z m0 0" fill="#FFAC33" p-id="4289"></path></svg>