<?xml version="1.0" standalone="no"?><!DOCTYPE svg PUBLIC "-//W3C//DTD SVG 1.1//EN" "http://www.w3.org/Graphics/SVG/1.1/DTD/svg11.dtd"><svg class="icon" width="200px" height="200.00px" viewBox="0 0 1024 1024" version="1.1" xmlns="http://www.w3.org/2000/svg"><path d="M953.6 487.9c-97.4-183-244.7-275-442.1-275-197.5-0.1-344.7 92-442.1 275.1-7.9 14.8-7.9 32.2 0 47.2 97.4 183 244.7 275 442.1 275 197.5 0 344.7-92.1 442.1-275.1 7.9-14.9 7.9-32.1 0-47.2zM511.5 744.2c-165.8 0-287.1-74.9-372.7-232.7 85.6-157.8 207-232.7 372.7-232.7s287.1 74.9 372.7 232.7c-85.5 157.8-206.9 232.7-372.7 232.7z m-4.1-393.9c-99.9 0-180.8 72.2-180.8 161.2 0 89 81 161.2 180.8 161.2 99.9 0 180.9-72.2 180.9-161.2-0.1-89.1-81-161.2-180.9-161.2z m0 263.8c-63.6 0-115.1-45.9-115.1-102.6 0-56.7 51.5-102.6 115.1-102.6 63.6 0 115.1 45.9 115.1 102.6 0 56.7-51.5 102.6-115.1 102.6z"  /></svg>
