<?xml version="1.0" standalone="no"?><!DOCTYPE svg PUBLIC "-//W3C//DTD SVG 1.1//EN" "http://www.w3.org/Graphics/SVG/1.1/DTD/svg11.dtd"><svg t="1574131818330" class="icon" viewBox="0 0 1024 1024" version="1.1" xmlns="http://www.w3.org/2000/svg" p-id="1886" xmlns:xlink="http://www.w3.org/1999/xlink" width="200" height="200"><defs><style type="text/css"></style></defs><path d="M729.212121 0c68.266667 0 124.121212 55.854545 124.121212 124.121212v775.757576c0 68.266667-55.854545 124.121212-124.121212 124.121212H294.787879c-68.266667 0-124.121212-55.854545-124.121212-124.121212V124.121212c0-68.266667 55.854545-124.121212 124.121212-124.121212h434.424242z m0 62.060606H294.787879c-34.133333 0-62.060606 27.927273-62.060606 62.060606v775.757576c0 34.133333 27.927273 62.060606 62.060606 62.060606h434.424242c34.133333 0 62.060606-27.927273 62.060606-62.060606V124.121212c0-34.133333-27.927273-62.060606-62.060606-62.060606z m-217.212121 868.848485c-43.442424 0-77.575758-37.236364-77.575758-83.781818 0-46.545455 34.133333-83.781818 77.575758-83.781818s77.575758 37.236364 77.575758 83.781818c0 46.545455-34.133333 83.781818-77.575758 83.781818z m0-62.060606c6.206061 0 15.515152-9.309091 15.515152-21.721212 0-12.412121-9.309091-21.721212-15.515152-21.721212s-15.515152 9.309091-15.515152 21.721212c0 12.412121 9.309091 21.721212 15.515152 21.721212z m46.545455-750.933333c18.618182 0 31.030303 12.412121 31.030303 31.030303s-12.412121 31.030303-31.030303 31.030303h-93.09091c-18.618182 0-31.030303-12.412121-31.030303-31.030303s12.412121-31.030303 31.030303-31.030303h93.09091z" fill="#515151" p-id="1887"></path></svg>