<?xml version="1.0" standalone="no"?><!DOCTYPE svg PUBLIC "-//W3C//DTD SVG 1.1//EN" "http://www.w3.org/Graphics/SVG/1.1/DTD/svg11.dtd"><svg t="1574146911522" class="icon" viewBox="0 0 1024 1024" version="1.1" xmlns="http://www.w3.org/2000/svg" p-id="1403" xmlns:xlink="http://www.w3.org/1999/xlink" width="200" height="200"><defs><style type="text/css"></style></defs><path d="M809.2 848.5c-10.9 10.9-28.7 10.9-39.6 0l-594-594c-10.9-10.9-10.9-28.7 0-39.6 10.9-10.9 28.7-10.9 39.6 0l594 594c11 11 11 28.7 0 39.6z" p-id="1404"></path><path d="M566 644.9c-16.6 6.7-34.7 10.6-53.7 10.6-79.3 0-143.5-64.3-143.5-143.5 0-19 3.9-37.1 10.6-53.7L235.1 314c-46.1 25.5-89.7 57.3-128.8 96.5-56.1 56-56.1 146.9 0 203 154.8 154.8 376 202.6 571.9 143.6L566 644.9zM918.2 410.5c-154.8-154.8-376-202.6-571.9-143.6L458.5 379c16.6-6.7 34.7-10.6 53.7-10.6 79.3 0 143.5 64.3 143.5 143.5 0 19-3.9 37.1-10.6 53.7l144.2 144.2c46.1-25.5 89.7-57.3 128.8-96.5 56.2-55.9 56.2-146.8 0.1-202.8z" p-id="1405"></path></svg>