<?xml version="1.0" standalone="no"?><!DOCTYPE svg PUBLIC "-//W3C//DTD SVG 1.1//EN" "http://www.w3.org/Graphics/SVG/1.1/DTD/svg11.dtd"><svg t="1574144459425" class="icon" viewBox="0 0 1228 1024" version="1.1" xmlns="http://www.w3.org/2000/svg" p-id="1355" xmlns:xlink="http://www.w3.org/1999/xlink" width="239.84375" height="200"><defs><style type="text/css"></style></defs><path d="M1075.263857 1024H153.599313A153.805303 153.805303 0 0 1 0 870.400687V307.198627a153.805303 153.805303 0 0 1 153.599313-153.599314H330.956053l87.188381-130.816903A51.277589 51.277589 0 0 1 460.79794 0h307.198627a51.277589 51.277589 0 0 1 42.57111 22.78241l87.188381 130.816903H1075.263857A153.805303 153.805303 0 0 1 1228.794507 307.198627v563.20206A153.805303 153.805303 0 0 1 1075.263857 1024zM614.397253 819.19176c141.157563 0 256.003433-114.832138 256.003434-255.9897S755.554816 307.198627 614.397253 307.198627 358.421286 422.044497 358.421286 563.20206s114.818405 255.989701 255.975967 255.9897z m0-409.589013a153.599313 153.599313 0 1 1-153.599313 153.599313A153.805303 153.805303 0 0 1 614.397253 409.602747z" p-id="1356"></path></svg>