<?xml version="1.0" standalone="no"?><!DOCTYPE svg PUBLIC "-//W3C//DTD SVG 1.1//EN" "http://www.w3.org/Graphics/SVG/1.1/DTD/svg11.dtd"><svg class="icon" width="200px" height="200.00px" viewBox="0 0 1024 1024" version="1.1" xmlns="http://www.w3.org/2000/svg"><path fill="#333333" d="M509.09375 682.90625c-8.15625 0-16.3125-2.34375-23.4375-7.125l-382.5-254.25c-11.8125-7.875-18.84375-21.09375-18.84375-35.25 0-14.15625 7.125-27.375 18.84375-35.25L485.5625 96.6875c14.25-9.46875 32.71875-9.46875 46.96875 0l382.3125 254.25c11.8125 7.875 18.84375 21.09375 18.84375 35.25 0 14.15625-7.125 27.375-18.84375 35.25L532.53125 675.875c-7.125 4.6875-15.28125 7.03125-23.4375 7.03125zM203.09375 386.1875l305.90625 203.4375 305.8125-203.4375-305.8125-203.4375-305.90625 203.4375z"  /><path fill="#333333" d="M509.09375 947.65625c-8.15625 0-16.3125-2.34375-23.4375-7.125l-382.5-254.25c-19.40625-12.9375-24.75-39.28125-11.8125-58.78125s39.1875-24.84375 58.78125-11.8125l358.96875 238.6875 358.875-238.6875c19.59375-12.9375 45.84375-7.6875 58.78125 11.8125 12.9375 19.5 7.6875 45.75-11.8125 58.78125L532.53125 940.625c-7.125 4.6875-15.28125 7.03125-23.4375 7.03125z"  /></svg>