<?xml version="1.0" standalone="no"?><!DOCTYPE svg PUBLIC "-//W3C//DTD SVG 1.1//EN" "http://www.w3.org/Graphics/SVG/1.1/DTD/svg11.dtd"><svg t="1573811066462" class="icon" viewBox="0 0 1024 1024" version="1.1" xmlns="http://www.w3.org/2000/svg" p-id="2260" xmlns:xlink="http://www.w3.org/1999/xlink" width="200" height="200"><defs><style type="text/css"></style></defs><path d="M944.35536 244.927959L527.094461 4.0252a30.330423 30.330423 0 0 0-30.188998 0L79.644564 244.927959A30.210755 30.210755 0 0 0 64.544626 271.091757v481.80552a30.210755 30.210755 0 0 0 15.099938 26.109403l417.260899 240.957154a30.243392 30.243392 0 0 0 30.188998 0l417.260899-240.902759a30.210755 30.210755 0 0 0 15.099938-26.109404V271.091757a30.210755 30.210755 0 0 0-15.099938-26.163798zM512.114191 472.003615l-163.18377-94.646587 351.650145-203.435766L866.592854 269.797166z m-0.10879-406.958564l128.262443 74.052794L288.759126 342.457459l-128.371233-74.422678zM124.944379 317.294522l142.513825 82.625382-0.565704 109.38752a30.199876 30.199876 0 0 0 30.047572 30.352181h0.152305a30.210755 30.210755 0 0 0 30.199876-30.025813l0.40252-74.792561 149.780943 86.86816v417.282657l-352.476943-203.522798z m412.887574 626.734465V526.84424l361.180077-206.101101v414.726111z" p-id="2261"></path></svg>