<?xml version="1.0" standalone="no"?><!DOCTYPE svg PUBLIC "-//W3C//DTD SVG 1.1//EN" "http://www.w3.org/Graphics/SVG/1.1/DTD/svg11.dtd"><svg t="1574652610199" class="icon" viewBox="0 0 1024 1024" version="1.1" xmlns="http://www.w3.org/2000/svg" p-id="1730" xmlns:xlink="http://www.w3.org/1999/xlink" width="200" height="200"><defs><style type="text/css"></style></defs><path d="M949.752359 162.650652H74.247641a38.976763 38.976763 0 1 0 0 77.953526h52.7733v744.419059a38.989137 38.989137 0 0 0 38.976763 38.976763h692.029339a38.989137 38.989137 0 0 0 38.976763-38.976763V240.591805h52.748553a38.976763 38.976763 0 1 0 0-77.953527zM819.05028 946.046473H204.974467V240.591805h614.075813zM281.344176 77.953527h461.336395a38.976763 38.976763 0 0 0 0-77.953527H281.344176a38.976763 38.976763 0 0 0 0 77.953527z" p-id="1731"></path><path d="M408.272315 804.406153A38.989137 38.989137 0 0 0 447.310947 765.42939v-345.222761a38.976763 38.976763 0 0 0-77.953527 0v345.222761a38.989137 38.989137 0 0 0 38.914895 38.976763zM623.795256 804.406153a38.989137 38.989137 0 0 0 38.976763-38.976763v-345.222761a38.976763 38.976763 0 0 0-77.953526 0v345.222761a38.989137 38.989137 0 0 0 38.976763 38.976763z" p-id="1732"></path></svg>