<svg 
 xmlns="http://www.w3.org/2000/svg"
 xmlns:xlink="http://www.w3.org/1999/xlink"
 width="14px" height="15px">
<path fill-rule="evenodd"  fill="rgb(191, 198, 210)"
 d="M13.459,14.125 L0.539,14.125 C0.241,14.125 -0.002,13.874 -0.002,13.563 L-0.002,1.256 C-0.002,0.945 0.241,0.694 0.539,0.694 L6.409,0.694 C6.707,0.694 6.949,0.945 6.949,1.256 C6.949,1.567 6.707,1.817 6.409,1.817 L1.618,1.817 C1.319,1.817 1.079,2.068 1.079,2.379 L1.079,12.442 C1.079,12.752 1.319,13.003 1.618,13.003 L12.380,13.003 C12.679,13.003 12.920,12.752 12.920,12.442 L12.920,5.132 C12.920,4.821 13.161,4.570 13.459,4.570 C13.758,4.570 13.999,4.821 13.999,5.132 L13.999,13.563 C13.999,13.874 13.758,14.125 13.459,14.125 ZM5.766,8.804 C5.554,9.008 5.212,9.008 5.002,8.804 C4.792,8.601 4.792,8.271 5.002,8.067 L13.065,0.277 C13.275,0.074 13.617,0.074 13.829,0.277 C14.039,0.481 14.039,0.811 13.829,1.015 L5.766,8.804 Z"/>
</svg>