<?xml version="1.0" standalone="no"?><!DOCTYPE svg PUBLIC "-//W3C//DTD SVG 1.1//EN" "http://www.w3.org/Graphics/SVG/1.1/DTD/svg11.dtd"><svg t="1574220110623" class="icon" viewBox="0 0 1024 1024" version="1.1" xmlns="http://www.w3.org/2000/svg" p-id="1696" xmlns:xlink="http://www.w3.org/1999/xlink" width="200" height="200"><defs><style type="text/css"></style></defs><path d="M914.7 954.5h-802c-25.5 0-46.3-20.7-46.3-46.3v-802c0-25.5 20.7-46.3 46.3-46.3h460.1c25.5 0 46.3 20.7 46.3 46.3s-20.7 46.3-46.3 46.3H159V862h709.4V452c0-25.5 20.7-46.3 46.3-46.3 25.5 0 46.3 20.7 46.3 46.3v456.2c0 25.6-20.7 46.3-46.3 46.3z" p-id="1697"></path><path d="M418.6 685.2c-12.3 0-24.7-4.7-34.1-14.1-18.8-18.8-18.8-49.3 0-68.2l480.8-480.8c18.8-18.8 49.3-18.8 68.2 0s18.8 49.3 0 68.2L452.6 671.1c-9.4 9.4-21.7 14.1-34 14.1z" p-id="1698"></path></svg>