<?xml version="1.0" standalone="no"?><!DOCTYPE svg PUBLIC "-//W3C//DTD SVG 1.1//EN" "http://www.w3.org/Graphics/SVG/1.1/DTD/svg11.dtd"><svg t="1573811242413" class="icon" viewBox="0 0 1024 1024" version="1.1" xmlns="http://www.w3.org/2000/svg" p-id="2714" xmlns:xlink="http://www.w3.org/1999/xlink" width="200" height="200"><defs><style type="text/css"></style></defs><path d="M988.659943 1024H35.375971A35.352024 35.352024 0 0 1 0.000012 988.624041V35.375971A35.352024 35.352024 0 0 1 35.375971 0.000012h953.283972a35.352024 35.352024 0 0 1 35.37596 35.375959v953.24807a35.352024 35.352024 0 0 1-35.37596 35.375959z m-917.908012-70.763886h882.520085V70.763898H70.763898z" p-id="2715"></path><path d="M767.524294 304.57314H252.514472a35.387927 35.387927 0 0 1 0-70.763886h515.009822a35.387927 35.387927 0 0 1 0 70.763886zM567.822456 528.604926H252.514472a35.387927 35.387927 0 0 1 0-70.763886h315.307984a35.387927 35.387927 0 0 1 0 70.763886z" p-id="2716"></path></svg>