<?xml version="1.0" standalone="no"?><!DOCTYPE svg PUBLIC "-//W3C//DTD SVG 1.1//EN" "http://www.w3.org/Graphics/SVG/1.1/DTD/svg11.dtd"><svg class="icon" width="200px" height="200.00px" viewBox="0 0 1024 1024" version="1.1" xmlns="http://www.w3.org/2000/svg"><path fill="#333333" d="M791.2 167.8l2.8 25.1c4.7 42.5 33.1 78.7 72 91.6l25.1 8.3 2.4 26.3c23.3 259-118.6 506.4-357.1 617.6l-35 16.3-34.8-16.3C228 825.4 86.1 577.9 109.4 318.8l2.4-26.3 25.1-8.3c38.9-12.9 67.3-49 72.1-91.7l2.8-25L501.3 64.8l289.9 103z m-289.9-17.6l-217 77c-13.3 53-48.4 98-96.3 122.6-9.9 216.6 112.1 420.4 313.3 514.2l22-10.8c187.9-97.6 301-294.4 291.5-503.2-47.9-24.6-83-69.7-96.2-122.6l-217.3-77.2zM468.2 400.7v179.9c0 22.2 18 40.2 40.2 40.2 22.2 0 40.2-18 40.2-40.2V400.7c0-22.2-18-40.2-40.2-40.2-22.2-0.1-40.2 17.9-40.2 40.2z" /></svg>