<?xml version="1.0" standalone="no"?><!DOCTYPE svg PUBLIC "-//W3C//DTD SVG 1.1//EN" "http://www.w3.org/Graphics/SVG/1.1/DTD/svg11.dtd"><svg class="icon" width="200px" height="200.00px" viewBox="0 0 1024 1024" version="1.1" xmlns="http://www.w3.org/2000/svg"><path fill="#333333" d="M660.4 505.8c59.7-44.7 98.5-115.9 98.5-196.1C758.8 174.8 649 65 513.9 65c-135 0-244.7 109.8-244.7 244.7 0 80.1 38.7 151.4 98.4 196.1C213 564.9 103 714.7 103 889.8c0 21.2 17.2 38.3 38.3 38.3s38.3-17.2 38.3-38.3c0-184.3 150-334.3 334.3-334.3 184.4 0 334.3 150 334.3 334.3 0 21.2 17.2 38.3 38.3 38.3S925 911 925 889.8c0-175.1-110.1-324.9-264.6-384zM513.9 141.7c92.7 0 168.2 75.4 168.2 168.1s-75.5 168.1-168.2 168.1c-92.6 0-168.1-75.4-168.1-168.1s75.5-168.1 168.1-168.1z" /></svg>