<?xml version="1.0" standalone="no"?><!DOCTYPE svg PUBLIC "-//W3C//DTD SVG 1.1//EN" "http://www.w3.org/Graphics/SVG/1.1/DTD/svg11.dtd"><svg t="1574221193211" class="icon" viewBox="0 0 1024 1024" version="1.1" xmlns="http://www.w3.org/2000/svg" p-id="1433" xmlns:xlink="http://www.w3.org/1999/xlink" width="200" height="200"><defs><style type="text/css"></style></defs><path d="M512.7 956.3C267.8 956.3 68.5 757 68.5 512S267.8 67.8 512.7 67.8 957 267.1 957 512 757.7 956.3 512.7 956.3z m0-836.3c-216.2 0-392 175.8-392 392s175.8 392 392 392 392-175.8 392-392-175.8-392-392-392z" p-id="1434"></path><path d="M512.7 747.2c-14.4 0-26.1-11.7-26.1-26.1v-52.3c0-14.4 11.7-26.1 26.1-26.1 14.4 0 26.1 11.7 26.1 26.1v52.3c0.1 14.4-11.6 26.1-26.1 26.1zM512.7 590.4c-14.4 0-26.1-11.7-26.1-26.1V303c0-14.4 11.7-26.1 26.1-26.1 14.4 0 26.1 11.7 26.1 26.1v261.3c0.1 14.4-11.6 26.1-26.1 26.1z" p-id="1435"></path></svg>