<?xml version="1.0" standalone="no"?><!DOCTYPE svg PUBLIC "-//W3C//DTD SVG 1.1//EN" "http://www.w3.org/Graphics/SVG/1.1/DTD/svg11.dtd"><svg t="1577950584445" class="icon" viewBox="0 0 1024 1024" version="1.1" xmlns="http://www.w3.org/2000/svg" p-id="1956" xmlns:xlink="http://www.w3.org/1999/xlink" width="200" height="200"><defs><style type="text/css"></style></defs><path d="M512 61C265.1 61 65 261.1 65 508s200.1 447 447 447 447-200.1 447-447S758.9 61 512 61z m41.9 642.6c0 23.1-18.8 41.9-41.9 41.9s-41.9-18.8-41.9-41.9v-27.9c0-23.1 18.8-41.9 41.9-41.9s41.9 18.8 41.9 41.9v27.9z m0-195.6c0 23.1-18.8 41.9-41.9 41.9s-41.9-18.8-41.9-41.9V284.5c0-23.1 18.8-41.9 41.9-41.9s41.9 18.8 41.9 41.9V508z" p-id="1957"></path></svg>