<?xml version="1.0" standalone="no"?><!DOCTYPE svg PUBLIC "-//W3C//DTD SVG 1.1//EN" "http://www.w3.org/Graphics/SVG/1.1/DTD/svg11.dtd"><svg class="icon" width="200px" height="200.00px" viewBox="0 0 1024 1024" version="1.1" xmlns="http://www.w3.org/2000/svg"><path fill="#333333" d="M953.8 814.7L657.3 518.3l123.9-124 9.8 9.8c7.5 7.5 17.2 11.2 27 11.2s19.6-3.7 27-11.2c14.9-14.9 14.9-39.1 0-54.1L676.8 181.6 611 115.8c-0.2-0.2-0.3-0.3-0.5-0.4L574.1 79C559.2 64 535 64 520 79c-14.9 14.9-14.9 39.1 0 54.1l9.8 9.8-302.3 302.4-9.8-9.8c-14.9-14.9-39.1-14.9-54.1 0-14.9 14.9-14.9 39.1 0 54.1l271 271c7.5 7.5 17.2 11.2 27 11.2s19.6-3.7 27-11.2c14.9-14.9 14.9-39.1 0-54.1l-9.7-9.7 124.3-124.4 296.5 296.5c7.5 7.5 17.2 11.2 27 11.2s19.6-3.7 27-11.2c15-15 15-39.2 0.1-54.2zM281.6 499.4L584 197.1 700.9 314l26.2 26.3-302.3 302.4-143.2-143.3zM465.3 873.4H93.1c-21.1 0-38.3 17.1-38.3 38.3S71.9 950 93.1 950h372.2c21.1 0 38.3-17.1 38.3-38.3s-17.2-38.3-38.3-38.3z" /></svg>