<?xml version="1.0" standalone="no"?><!DOCTYPE svg PUBLIC "-//W3C//DTD SVG 1.1//EN" "http://www.w3.org/Graphics/SVG/1.1/DTD/svg11.dtd"><svg t="1573811070962" class="icon" viewBox="0 0 1024 1024" version="1.1" xmlns="http://www.w3.org/2000/svg" p-id="2373" xmlns:xlink="http://www.w3.org/1999/xlink" width="200" height="200"><defs><style type="text/css"></style></defs><path d="M943.533699 244.095851L528.203791 4.321748a32.61759 32.61759 0 0 0-32.440741 0L80.466301 244.095851A32.451794 32.451794 0 0 0 64.240404 272.203791v479.581365a32.451794 32.451794 0 0 0 16.225897 28.10794L180.297569 837.523768l315.465481 182.143431a32.529165 32.529165 0 0 0 32.440741 0L843.702431 837.523768l99.831268-57.630672a32.451794 32.451794 0 0 0 16.225897-28.10794V272.203791a32.451794 32.451794 0 0 0-16.225897-28.10794zM234.579163 793.94154c1.359527-4.90756 2.608523-9.859332 4.22227-14.645309 2.387462-7.140279 4.874401-14.225293 7.803463-21.078192 3.459609-8.124002 7.427659-15.916411 11.583611-23.609343 3.481715-6.454989 6.952377-12.932084 10.89832-19.077588 4.730711-7.372393 10.025128-14.291611 15.385864-21.177669 4.421225-5.681275 8.754026-11.439921 13.573162-16.767497 5.913389-6.521307 12.390484-12.445749 18.845473-18.381244 5.205993-4.785976 10.24619-9.748802 15.783774-14.147922 7.051854-5.59285 14.656362-10.423039 22.194552-15.341651 5.747593-3.746988 11.285178-7.79241 17.286991-11.130435 8.278744-4.587021 17.06593-8.223479 25.797849-11.992574 5.946548-2.575364 11.649929-5.59285 17.784379-7.737144 10.003022-3.548033 20.481326-5.902336 30.948578-8.345063 5.349683-1.248996 10.489357-3.105911 15.938517-4.056474a282.129442 282.129442 0 0 1 98.759121 0c5.44916 0.950563 10.577782 2.807478 15.938517 4.056474 10.445145 2.442727 20.912396 4.797029 30.948578 8.345063 6.123397 2.210613 11.837831 5.19494 17.784379 7.737144 8.720867 3.769095 17.519105 7.405552 25.797849 11.992574 6.001813 3.315919 11.539398 7.383446 17.275938 11.130435 7.549242 4.918613 15.15375 9.748802 22.205605 15.341651 5.526532 4.421225 10.577782 9.361945 15.772721 14.147922 6.466042 5.935495 12.943137 11.859937 18.856526 18.381244 4.819136 5.327577 9.140883 11.053063 13.562109 16.767497 5.371789 6.886058 10.666206 13.805276 15.396917 21.177669 3.945944 6.145503 7.416606 12.622598 10.898321 19.077588 4.144899 7.737144 8.124002 15.474289 11.58361 23.609343 2.918009 6.852899 5.404948 13.937913 7.803463 21.078192 1.613747 4.785976 2.862743 9.737749 4.22227 14.645309l-277.43189 160.169941z m277.43189-278.316135a108.010535 108.010535 0 1 1 108.010535-108.010535 108.110013 108.110013 0 0 1-108.043694 108.010535z m382.856008 217.435862l-46.79867 27.02474c-1.016882-3.105911-2.652735-5.869177-3.758042-8.930876-2.818531-7.803463-6.233928-15.186909-9.560899-22.714045-4.609127-10.400933-9.395104-20.60291-14.932689-30.429083-4.11174-7.295022-8.58823-14.258452-13.197358-21.210829-6.079185-9.207202-12.467855-18.082812-19.353914-26.637882-5.228099-6.499201-10.599888-12.766288-16.259056-18.867579-7.471871-8.04663-15.319546-15.595872-23.487759-22.913001-6.13445-5.526532-12.246794-10.920427-18.790208-15.982729-8.842451-6.830793-18.016493-12.95419-27.42265-18.944951-6.797634-4.332801-13.418419-8.776132-20.503433-12.644704-10.213031-5.526532-20.879237-10.157765-31.633867-14.711628-7.040801-2.984327-13.838435-6.322352-21.089245-8.84245-0.663184-0.243167-1.282155-0.596865-1.945339-0.82898 35.712448-31.689133 58.702819-77.371443 58.702819-128.801347 0-95.332671-77.559345-172.892017-172.892016-172.892017s-172.858858 77.548292-172.858858 172.880964c0 51.396745 22.990372 97.112214 58.70282 128.801347-0.663184 0.232114-1.271102 0.585812-1.94534 0.817927-7.25081 2.542205-14.059497 5.88023-21.100298 8.84245-10.743578 4.553862-21.409784 9.12983-31.600708 14.700575-7.085014 3.857519-13.716852 8.311904-20.514485 12.644704-9.406157 5.99076-18.635465 12.15837-27.42265 18.944951-6.510254 5.062303-12.611545 10.478304-18.790208 15.971676-8.168214 7.328181-16.015889 14.877423-23.48776 22.924053-5.659168 6.101291-11.053063 12.357325-16.259056 18.856526-6.886058 8.555071-13.263676 17.419628-19.342861 26.615777-4.609127 6.985536-9.096671 13.948966-13.263676 21.277147-5.526532 9.748802-10.24619 19.895514-14.822158 30.208022-3.382237 7.626614-6.841846 15.120591-9.693536 23.023531-1.105306 3.006433-2.685894 5.73654-3.691723 8.776132L129.121886 733.061267v-442.122534l382.856008-221.061267 382.889167 221.061267z" p-id="2374"></path></svg>