<?xml version="1.0" standalone="no"?><!DOCTYPE svg PUBLIC "-//W3C//DTD SVG 1.1//EN" "http://www.w3.org/Graphics/SVG/1.1/DTD/svg11.dtd"><svg class="icon" width="200px" height="200.00px" viewBox="0 0 1024 1024" version="1.1" xmlns="http://www.w3.org/2000/svg"><path fill="#333333" d="M811.5 754H232.6c-22.1 0-40-17.9-40-40V564.8c0-17.2 11-32.5 27.3-38l134.7-45c26.9-9 45-34.1 45-62.4 0-16.9-5.5-30-15.5-39.7-35.1-34.7-54.4-80.9-54.4-130.3 0-101.5 82.6-184.1 184.1-184.1 101.6 0 184.2 82.6 184.2 184.1 0 49.5-19.3 95.8-54.3 130.2-10.1 9.9-15.6 23-15.6 36.9 0 28.8 18.4 54.1 45.9 62.8l149.7 47.4c16.7 5.3 28 20.7 28 38.2V714c-0.1 22-18.1 40-40.2 40z m-538.8-80.1h498.8v-79.7l-121.7-38.6C588.9 536.3 548 480.4 548 416.5c0-35.6 14.1-69 39.6-94.1 19.6-19.2 30.4-45.2 30.4-73 0-57.3-46.7-104-104.1-104-57.3 0-104 46.7-104 104 0 27.8 10.8 53.8 30.4 73.1 25.5 24.8 39.5 58.2 39.5 94 0 65.8-40.1 121.4-99.7 141.3l-107.3 35.9v80.2zM808 925.9H236.1c-22.1 0-40-17.9-40-40s17.9-40 40-40H808c22.1 0 40 17.9 40 40 0 22-17.9 40-40 40z" /></svg>