<?xml version="1.0" standalone="no"?><!DOCTYPE svg PUBLIC "-//W3C//DTD SVG 1.1//EN" "http://www.w3.org/Graphics/SVG/1.1/DTD/svg11.dtd"><svg t="1575345197628" class="icon" viewBox="0 0 1024 1024" version="1.1" xmlns="http://www.w3.org/2000/svg" p-id="1812" xmlns:xlink="http://www.w3.org/1999/xlink" width="200" height="200"><defs><style type="text/css"></style></defs><path d="M509.5 957C262.8 957 62 756.2 62 509.5S262.8 62 509.5 62 957 262.8 957 509.5 756.2 957 509.5 957z m0-842.4c-217.7 0-394.9 177.1-394.9 394.9s177.1 394.9 394.9 394.9 394.9-177.1 394.9-394.9-177.2-394.9-394.9-394.9z" p-id="1813"></path><path d="M479.7 650.4c-6.7 0-13.5-2.6-18.6-7.7L349.7 531.3c-10.3-10.3-10.3-26.9 0-37.2s26.9-10.3 37.2 0l92.8 92.8 205-204.5c10.3-10.3 26.9-10.3 37.2 0 10.3 10.3 10.3 27 0 37.2L498.3 642.7c-5.1 5.2-11.8 7.7-18.6 7.7z" p-id="1814"></path></svg>