<?xml version="1.0" standalone="no"?><!DOCTYPE svg PUBLIC "-//W3C//DTD SVG 1.1//EN" "http://www.w3.org/Graphics/SVG/1.1/DTD/svg11.dtd"><svg t="1574652665988" class="icon" viewBox="0 0 1024 1024" version="1.1" xmlns="http://www.w3.org/2000/svg" p-id="1956" xmlns:xlink="http://www.w3.org/1999/xlink" width="200" height="200"><defs><style type="text/css"></style></defs><path d="M512.375 45.3125C259.4375 45.3125 53.5625 251.09375 53.5625 504.125S259.4375 962.9375 512.375 962.9375s458.8125-205.875 458.8125-458.8125S765.40625 45.3125 512.375 45.3125z m-404.0625 458.8125c0-222.75 181.21875-404.0625 404.0625-404.0625 102.46875 0 195.84375 38.625 267.09375 101.71875L210.03125 771.21875C147.03125 699.875 108.3125 606.59375 108.3125 504.125z m404.0625 404.0625c-100.6875 0-192.65625-37.21875-263.4375-98.34375l569.15625-569.15625c61.125 70.78125 98.34375 162.75 98.34375 263.4375 0 222.75-181.21875 404.0625-404.0625 404.0625z" p-id="1957"></path></svg>