<?xml version="1.0" standalone="no"?><!DOCTYPE svg PUBLIC "-//W3C//DTD SVG 1.1//EN" "http://www.w3.org/Graphics/SVG/1.1/DTD/svg11.dtd"><svg class="icon" width="200px" height="157.18px" viewBox="0 0 1303 1024" version="1.1" xmlns="http://www.w3.org/2000/svg"><path fill="#333333" d="M651.633698 279.267396c-128.329878 0-232.732604 104.402726-232.732604 232.732604S523.30382 744.791249 651.633698 744.791249s232.717943-104.402726 232.717943-232.717943S779.978237 279.267396 651.633698 279.267396z m0 372.395624a139.633698 139.633698 0 1 1 139.633698-139.633698 139.633698 139.633698 0 0 1-139.633698 139.604376zM651.633698 0C292.726419 0 0 411.643778 0 512s292.726419 512 651.633698 512 651.633698-411.658439 651.633698-512S1010.540977 0 651.633698 0z m0 930.901094c-308.457935 0-558.593437-372.395625-558.593437-418.901094s250.091518-418.915755 558.593437-418.915755 558.593437 372.395625 558.593437 418.915755-250.135502 418.901094-558.593437 418.901094z" /></svg>