<?xml version="1.0" standalone="no"?><!DOCTYPE svg PUBLIC "-//W3C//DTD SVG 1.1//EN" "http://www.w3.org/Graphics/SVG/1.1/DTD/svg11.dtd"><svg t="1576562279798" class="icon" viewBox="0 0 1024 1024" version="1.1" xmlns="http://www.w3.org/2000/svg" p-id="2182" xmlns:xlink="http://www.w3.org/1999/xlink" width="200" height="200"><defs><style type="text/css"></style></defs><path d="M438.1 961c-9.5 0-19-3.6-26.3-10.9L76.4 614.7c-14.5-14.5-14.5-38.1 0-52.6l449-449c7-7 19.1-11 26.6-10.9l336.6 2.8c20.5 0.2 37 16.9 36.9 37.4L924.3 475c0 9.8-4 19.2-10.9 26.2l-449 449c-7.2 7.2-16.7 10.8-26.3 10.8zM155.4 588.4l282.7 282.7L850 459.3l1-280.2-284-2.4-411.6 411.7z m731.8-113.7h0.9-0.9z" p-id="2183"></path><path d="M656.9 499.3c-67.8 0-122.8-55.1-122.8-122.8s55.1-122.8 122.8-122.8 122.8 55.1 122.8 122.8-55 122.8-122.8 122.8z m0-171.2c-26.7 0-48.4 21.7-48.4 48.4s21.7 48.4 48.4 48.4 48.4-21.7 48.4-48.4-21.7-48.4-48.4-48.4z" p-id="2184"></path></svg>