<?xml version="1.0" standalone="no"?><!DOCTYPE svg PUBLIC "-//W3C//DTD SVG 1.1//EN" "http://www.w3.org/Graphics/SVG/1.1/DTD/svg11.dtd"><svg t="1574131823274" class="icon" viewBox="0 0 1024 1024" version="1.1" xmlns="http://www.w3.org/2000/svg" p-id="1998" xmlns:xlink="http://www.w3.org/1999/xlink" width="200" height="200"><defs><style type="text/css"></style></defs><path d="M863.260764 354.568629h-86.763865V264.629213c0-146.121348-118.507865-264.629213-264.629214-264.629213s-264.629213 118.507865-264.629213 264.629213v89.973933h-86.499236A115.688989 115.688989 0 0 0 45.050247 470.257618v438.053393A115.688989 115.688989 0 0 0 160.739236 1024h702.521528a115.688989 115.688989 0 0 0 115.688989-115.688989V470.257618a115.688989 115.688989 0 0 0-115.688989-115.688989zM324.429663 264.629213a187.472539 187.472539 0 0 1 374.945079 0v89.973933H324.429663z m577.397933 643.555236a38.566831 38.566831 0 0 1-38.566832 38.566832H160.739236A38.566831 38.566831 0 0 1 122.137888 908.184449V470.257618a38.566831 38.566831 0 0 1 38.566831-38.566831h702.556045a38.566831 38.566831 0 0 1 38.566832 38.566831z" p-id="1999"></path><path d="M511.902202 557.148045a38.566831 38.566831 0 0 0-38.566831 38.566831v187.150382a38.566831 38.566831 0 0 0 77.08764 0V595.714876a38.555326 38.555326 0 0 0-38.555326-38.566831z" p-id="2000"></path></svg>