<?xml version="1.0" encoding="UTF-8"?>
<svg width="14px" height="14px" viewBox="0 0 14 14" version="1.1" xmlns="http://www.w3.org/2000/svg" xmlns:xlink="http://www.w3.org/1999/xlink">
    <!-- Generator: Sketch 59.1 (86144) - https://sketch.com -->
    <g id="页面1" stroke="none" stroke-width="1" fill="none" fill-rule="evenodd">
        <g id="订单-办理中订单-产品详情-任务" transform="translate(-804.000000, -273.000000)">
            <g id="icon_star" transform="translate(805.000000, 274.000000)">
                <g id="编组-7">
                    <circle id="椭圆形" stroke-opacity="0.414909309" stroke="#FFAB2C" cx="6" cy="6" r="6"></circle>
                    <path d="M4.57915157,9 C4.4329429,9 4.29048316,8.95324675 4.17051706,8.85974026 C3.95307851,8.6961039 3.84810818,8.42337662 3.89309546,8.15064935 L4.06554673,7.0987013 C4.08804037,6.96233766 4.04305309,6.82597402 3.94932957,6.73246753 L3.2107883,5.98441558 C3.01959234,5.78961039 2.95211141,5.50519481 3.0345881,5.24025974 C3.1170648,4.97532467 3.33450334,4.78441558 3.60067811,4.74545455 L4.61664098,4.59350649 C4.74785389,4.57402597 4.86032211,4.48831169 4.91655621,4.36753247 L5.370178,3.40909091 C5.4901441,3.15584415 5.73007628,3 6,3 C6.26992372,3 6.5098559,3.15584415 6.62607306,3.40519481 L7.08344379,4.36363637 C7.14342684,4.48441558 7.25589505,4.57012987 7.38335902,4.58961039 L8.39932189,4.74155844 C8.66549666,4.78051948 8.8829352,4.97142858 8.9654119,5.23636364 C9.04788859,5.5012987 8.98040766,5.78571428 8.7892117,5.98051948 L8.05441937,6.72467532 C7.96069586,6.81818182 7.91570857,6.95844156 7.93820221,7.09090909 L8.11065348,8.14285715 C8.15564076,8.41948053 8.05067043,8.68831169 7.83323188,8.85194805 C7.61579333,9.01558442 7.3346228,9.03506494 7.09843955,8.90649351 L6.18744702,8.41948052 C6.07122987,8.35714285 5.93251907,8.35714285 5.81630192,8.41948052 L4.90530939,8.91818182 C4.80033906,8.97272728 4.68787084,9 4.57915157,9 Z" id="路径" fill="#FFAB2C" fill-rule="nonzero"></path>
                </g>
            </g>
        </g>
    </g>
</svg>