<?xml version="1.0" encoding="UTF-8"?>
<svg width="100px" height="101px" viewBox="0 0 100 101" version="1.1" xmlns="http://www.w3.org/2000/svg" xmlns:xlink="http://www.w3.org/1999/xlink">
    <!-- Generator: Sketch 59.1 (86144) - https://sketch.com -->
    <title>icon_settled_in</title>
    <desc>Created with Sketch.</desc>
    <g id="页面1" stroke="none" stroke-width="1" fill="none" fill-rule="evenodd">
        <g id="游客账号-入驻店铺" transform="translate(-927.000000, -300.000000)">
            <g id="icon_indentity" transform="translate(927.000000, 301.000000)">
                <rect id="矩形" stroke="#979797" fill="#D8D8D8" opacity="0" x="0.5" y="0.5" width="99" height="99"></rect>
                <g id="编组-3" transform="translate(11.000000, 17.000000)">
                    <path d="M59.4416786,0 C60.3196883,2.82801443e-16 61.0950264,0.572645052 61.3532366,1.4118283 L68.7800016,25.5488146 C69.1048399,26.6045389 68.5123396,27.7237061 67.4566153,28.0485443 C67.2660621,28.1071761 67.0678131,28.1369863 66.8684436,28.1369863 L62.001,28.136 L62.0010197,54.2739726 C62.0010197,55.3785421 61.1055892,56.2739726 60.0010197,56.2739726 L8.80923884,56.2739726 C7.70466934,56.2739726 6.80923884,55.3785421 6.80923884,54.2739726 L6.809,28.136 L1.94181491,28.1369863 C0.837245415,28.1369863 -0.0581850855,27.2415558 -0.0581850855,26.1369863 C-0.0581850855,25.9376168 -0.0283748549,25.7393678 0.0302568971,25.5488146 L7.45702191,1.4118283 C7.71523214,0.572645052 8.49057022,6.05376977e-16 9.36857993,0 L59.4416786,0 Z" id="形状结合" fill="#10BBB8" opacity="0.6"></path>
                    <rect id="矩形" fill="#B4F4E7" opacity="0.87" x="16.5489649" y="30.3013699" width="9.73972603" height="25.9726027"></rect>
                    <rect id="矩形备份" fill="#B4F4E7" opacity="0.87" x="37.1106087" y="37.8767123" width="18.3972603" height="6.49315068"></rect>
                    <circle id="椭圆形" fill="#FFCF6C" opacity="0.6" cx="61.4394859" cy="56.028527" r="17.0696229"></circle>
                    <path d="M61.6849315,47.6164384 C62.8802875,47.6164384 63.8493151,48.5854659 63.8493151,49.7808219 L63.8483973,54.1094384 L68.1780822,54.109589 C69.3734382,54.109589 70.3424658,55.0786166 70.3424658,56.2739726 C70.3424658,57.4693286 69.3734382,58.4383562 68.1780822,58.4383562 L63.8483973,58.4374384 L63.8493151,62.7671233 C63.8493151,63.9624793 62.8802875,64.9315068 61.6849315,64.9315068 C60.4895755,64.9315068 59.5205479,63.9624793 59.5205479,62.7671233 L59.5203973,58.4374384 L55.1917808,58.4383562 C53.9964248,58.4383562 53.0273973,57.4693286 53.0273973,56.2739726 C53.0273973,55.0786166 53.9964248,54.109589 55.1917808,54.109589 L59.5203973,54.1094384 L59.5205479,49.7808219 C59.5205479,48.5854659 60.4895755,47.6164384 61.6849315,47.6164384 Z" id="形状结合" fill-opacity="0.554987981" fill="#FFF9EC" opacity="0.87"></path>
                </g>
            </g>
        </g>
    </g>
</svg>