<svg 
 xmlns="http://www.w3.org/2000/svg"
 xmlns:xlink="http://www.w3.org/1999/xlink"
 width="40px" height="40px">
<path fill-rule="evenodd"  fill="rgb(240, 242, 245)"
 d="M19.999,-0.001 C31.045,-0.001 39.999,8.954 39.999,19.999 C39.999,31.045 31.045,39.999 19.999,39.999 C8.953,39.999 -0.001,31.045 -0.001,19.999 C-0.001,8.954 8.953,-0.001 19.999,-0.001 Z"/>
<path fill-rule="evenodd"  fill="rgb(191, 198, 210)"
 d="M10.999,27.293 C10.999,22.514 15.029,18.639 19.999,18.639 C24.970,18.639 28.999,22.514 28.999,27.293 C28.999,32.073 10.999,32.073 10.999,27.293 ZM19.999,17.561 C17.514,17.561 15.500,15.623 15.500,13.234 C15.500,10.843 17.514,8.906 19.999,8.906 C22.485,8.906 24.500,10.843 24.500,13.234 C24.500,15.623 22.485,17.561 19.999,17.561 Z"/>
</svg>