<?xml version="1.0" encoding="UTF-8"?>
<svg width="100px" height="100px" viewBox="0 0 100 100" version="1.1" xmlns="http://www.w3.org/2000/svg" xmlns:xlink="http://www.w3.org/1999/xlink">
    <!-- Generator: Sketch 59.1 (86144) - https://sketch.com -->
    <title>icon_indentity</title>
    <desc>Created with Sketch.</desc>
    <g id="页面1" stroke="none" stroke-width="1" fill="none" fill-rule="evenodd">
        <g id="游客账号-实名认证" transform="translate(-927.000000, -325.000000)">
            <g id="icon_indentity" transform="translate(927.000000, 325.000000)">
                <rect id="矩形" stroke="#979797" fill="#D8D8D8" opacity="0" x="0.5" y="0.5" width="99" height="99"></rect>
                <g id="image_noname" transform="translate(8.000000, 18.000000)">
                    <rect id="矩形" fill="#10BBB8" opacity="0.6" x="0" y="0" width="70.1030928" height="50.0736377" rx="4"></rect>
                    <circle id="椭圆形" fill="#FFCF6C" opacity="0.6" cx="69.2268041" cy="49.0721649" r="15.7731959"></circle>
                    <path d="M59.8350515,-6.13402062 L60.2164948,-6.13402062 C61.3210643,-6.13402062 62.2164948,-5.23859012 62.2164948,-4.13402062 L62.2164948,31.2989691 C62.2164948,32.4035386 61.3210643,33.2989691 60.2164948,33.2989691 L59.8350515,33.2989691 C58.730482,33.2989691 57.8350515,32.4035386 57.8350515,31.2989691 L57.8350515,-4.13402062 C57.8350515,-5.23859012 58.730482,-6.13402062 59.8350515,-6.13402062 Z" id="矩形复制-3" fill="#B4F4E7" opacity="0.87" transform="translate(60.025773, 13.582474) rotate(-270.000000) translate(-60.025773, -13.582474) "></path>
                    <path d="M51.9484536,13.1443299 L52.3298969,13.1443299 C53.4344664,13.1443299 54.3298969,14.0397604 54.3298969,15.1443299 L54.3298969,34.8041237 C54.3298969,35.9086932 53.4344664,36.8041237 52.3298969,36.8041237 L51.9484536,36.8041237 C50.8438841,36.8041237 49.9484536,35.9086932 49.9484536,34.8041237 L49.9484536,15.1443299 C49.9484536,14.0397604 50.8438841,13.1443299 51.9484536,13.1443299 Z" id="矩形复制-4" fill="#B4F4E7" opacity="0.87" transform="translate(52.139175, 24.974227) rotate(-270.000000) translate(-52.139175, -24.974227) "></path>
                    <g id="编组-2" transform="translate(58.711340, 47.319588)" fill="#FFF9EC" fill-opacity="0.554987981" opacity="0.87">
                        <path d="M2,-2.82573964e-12 L2.3814433,-2.82573964e-12 C3.4860128,-2.82638664e-12 4.3814433,0.8954305 4.3814433,2 L4.3814433,2.3814433 C4.3814433,3.4860128 3.4860128,4.3814433 2.3814433,4.3814433 L2,4.3814433 C0.8954305,4.3814433 -3.7999361e-12,3.4860128 -3.80007137e-12,2.3814433 L-3.80007137e-12,2 C-3.80020664e-12,0.8954305 0.8954305,-2.82553674e-12 2,-2.82573964e-12 Z" id="矩形复制-5" transform="translate(2.190722, 2.190722) rotate(-270.000000) translate(-2.190722, -2.190722) "></path>
                        <path d="M10.7628866,-5.77315973e-15 L11.1443299,-5.77315973e-15 C12.2488994,-5.97606585e-15 13.1443299,0.8954305 13.1443299,2 L13.1443299,2.3814433 C13.1443299,3.4860128 12.2488994,4.3814433 11.1443299,4.3814433 L10.7628866,4.3814433 C9.6583171,4.3814433 8.7628866,3.4860128 8.7628866,2.3814433 L8.7628866,2 C8.7628866,0.8954305 9.6583171,-5.5702536e-15 10.7628866,-5.77315973e-15 Z" id="矩形复制-6" transform="translate(10.953608, 2.190722) rotate(-270.000000) translate(-10.953608, -2.190722) "></path>
                        <path d="M19.5257732,-3.55271368e-15 L19.9072165,-3.55271368e-15 C21.011786,-3.7556198e-15 21.9072165,0.8954305 21.9072165,2 L21.9072165,2.3814433 C21.9072165,3.4860128 21.011786,4.3814433 19.9072165,4.3814433 L19.5257732,4.3814433 C18.4212037,4.3814433 17.5257732,3.4860128 17.5257732,2.3814433 L17.5257732,2 C17.5257732,0.8954305 18.4212037,-3.34980755e-15 19.5257732,-3.55271368e-15 Z" id="矩形复制-7" transform="translate(19.716495, 2.190722) rotate(-270.000000) translate(-19.716495, -2.190722) "></path>
                    </g>
                    <circle id="椭圆形" fill="#B4F4E7" opacity="0.87" cx="20.6888176" cy="16.6494845" r="7.88659794"></circle>
                    <path d="M15.8380441,27.9184442 L25.5761005,27.9184442 C27.8573112,27.9184442 29.8492913,29.4624693 30.4181473,31.6716151 L31.4850775,35.8150266 C32.1736822,38.4892152 30.5640484,41.2152978 27.8898598,41.9039025 C27.4825478,42.0087855 27.0636296,42.0618557 26.6430307,42.0618557 L14.8111845,42.0618557 C12.0497608,42.0618557 9.81118452,39.8232794 9.81118452,37.0618557 C9.81118452,36.6564658 9.86048614,36.2525804 9.95800361,35.8590943 L10.9848632,31.7156828 C11.5376881,29.4850165 13.5398953,27.9184442 15.8380441,27.9184442 Z" id="矩形" fill="#B4F4E7" opacity="0.87"></path>
                </g>
            </g>
        </g>
    </g>
</svg>