<?xml version="1.0" encoding="UTF-8"?>
<svg width="100px" height="100px" viewBox="0 0 100 100" version="1.1" xmlns="http://www.w3.org/2000/svg" xmlns:xlink="http://www.w3.org/1999/xlink">
    <!-- Generator: Sketch 59.1 (86144) - https://sketch.com -->
    <title>icon_nomessage</title>
    <desc>Created with Sketch.</desc>
    <g id="页面1" stroke="none" stroke-width="1" fill="none" fill-rule="evenodd">
        <g id="公共模块-未读通知（为空）" transform="translate(-928.000000, -346.000000)">
            <g id="编组-4" transform="translate(928.000000, 346.000000)">
                <rect id="矩形" stroke="#979797" fill="#D8D8D8" opacity="0" x="0.5" y="0.5" width="99" height="99"></rect>
                <g id="编组-3" transform="translate(17.000000, 6.000000)">
                    <path d="M28.5211268,16.9014085 C40.7725138,16.9014085 50.7042254,26.83312 50.7042254,39.084507 L50.7042254,67.6056338 L50.7042254,67.6056338 L6.33802817,67.6056338 L6.33802817,39.084507 C6.33802817,26.83312 16.2697397,16.9014085 28.5211268,16.9014085 Z" id="矩形复制-2" fill="#10BBB8" opacity="0.6"></path>
                    <rect id="矩形" fill="#10BBB8" opacity="0.6" x="0" y="61.2676056" width="55.9859155" height="6.33802817" rx="1"></rect>
                    <circle id="椭圆形" fill="#10BBB8" opacity="0.6" cx="28.5211268" cy="17.4295775" r="6.33802817"></circle>
                    <path d="M21.1267606,70.7746479 C21.1267606,74.8584436 24.4373311,78.1690141 28.5211268,78.1690141 C32.6049224,78.1690141 35.915493,74.8584436 35.915493,70.7746479 L21.1267606,70.7746479 Z" id="路径" fill="#10BBB8" opacity="0.6"></path>
                    <circle id="椭圆形" fill="#FFCF6C" opacity="0.6" cx="55.1324342" cy="20.003576" r="19.4978822"></circle>
                    <path d="M45.3098592,17.9577465 L45.9381443,17.9577465 C47.0427138,17.9577465 47.9381443,18.853177 47.9381443,19.9577465 L47.9381443,20.5860317 C47.9381443,21.6906012 47.0427138,22.5860317 45.9381443,22.5860317 L45.3098592,22.5860317 C44.2052897,22.5860317 43.3098592,21.6906012 43.3098592,20.5860317 L43.3098592,19.9577465 C43.3098592,18.853177 44.2052897,17.9577465 45.3098592,17.9577465 Z" id="矩形复制-5" fill-opacity="0.554987981" fill="#FFF9EC" opacity="0.87" transform="translate(45.624002, 20.271889) rotate(-270.000000) translate(-45.624002, -20.271889) "></path>
                    <rect id="矩形复制-6" fill-opacity="0.554987981" fill="#FFF9EC" opacity="0.87" transform="translate(54.880572, 20.271889) rotate(-270.000000) translate(-54.880572, -20.271889) " x="52.5664295" y="17.9577465" width="4.62828517" height="4.62828517" rx="2"></rect>
                    <path d="M63.8229999,17.9577465 L64.451285,17.9577465 C65.5558545,17.9577465 66.451285,18.853177 66.451285,19.9577465 L66.451285,20.5860317 C66.451285,21.6906012 65.5558545,22.5860317 64.451285,22.5860317 L63.8229999,22.5860317 C62.7184304,22.5860317 61.8229999,21.6906012 61.8229999,20.5860317 L61.8229999,19.9577465 C61.8229999,18.853177 62.7184304,17.9577465 63.8229999,17.9577465 Z" id="矩形复制-7" fill-opacity="0.554987981" fill="#FFF9EC" opacity="0.87" transform="translate(64.137142, 20.271889) rotate(-270.000000) translate(-64.137142, -20.271889) "></path>
                </g>
            </g>
        </g>
    </g>
</svg>