<?xml version="1.0" encoding="UTF-8"?>
<svg width="70px" height="48px" viewBox="0 0 70 48" version="1.1" xmlns="http://www.w3.org/2000/svg" xmlns:xlink="http://www.w3.org/1999/xlink">
    <!-- Generator: Sketch 59.1 (86144) - https://sketch.com -->
   <g id="页面1" stroke="none" stroke-width="1" fill="none" fill-rule="evenodd">
        <g id="订单-办理中订单-产品详情-任务为空" transform="translate(-743.000000, -472.000000)">
            <g id="icon_notask" transform="translate(743.000000, 472.000000)">
                <g id="编组-3复制">
                    <rect id="矩形" fill="#10BBB8" opacity="0.6" x="0" y="5.23364486" width="59.3506118" height="42.3932942" rx="4"></rect>
                    <path d="M44.5233645,0 L45.1028037,0 C46.2073732,-2.02906125e-16 47.1028037,0.8954305 47.1028037,2 L47.1028037,8.46728972 C47.1028037,9.57185922 46.2073732,10.4672897 45.1028037,10.4672897 L44.5233645,10.4672897 C43.418795,10.4672897 42.5233645,9.57185922 42.5233645,8.46728972 L42.5233645,2 C42.5233645,0.8954305 43.418795,2.02906125e-16 44.5233645,0 Z" id="矩形复制-4" fill="#B4F4E7" opacity="0.87" transform="translate(44.813084, 5.233645) rotate(-180.000000) translate(-44.813084, -5.233645) "></path>
                    <path d="M14.4299065,0 L15.0093458,0 C16.1139153,-2.02906125e-16 17.0093458,0.8954305 17.0093458,2 L17.0093458,8.46728972 C17.0093458,9.57185922 16.1139153,10.4672897 15.0093458,10.4672897 L14.4299065,10.4672897 C13.325337,10.4672897 12.4299065,9.57185922 12.4299065,8.46728972 L12.4299065,2 C12.4299065,0.8954305 13.325337,2.02906125e-16 14.4299065,0 Z" id="矩形复制-8" fill="#B4F4E7" opacity="0.87" transform="translate(14.719626, 5.233645) rotate(-180.000000) translate(-14.719626, -5.233645) "></path>
                    <path d="M60.8785047,13.0841121 L61.4579439,13.0841121 C62.5625134,13.0841121 63.4579439,13.9795426 63.4579439,15.0841121 L63.4579439,28.7476636 C63.4579439,29.8522331 62.5625134,30.7476636 61.4579439,30.7476636 L60.8785047,30.7476636 C59.7739352,30.7476636 58.8785047,29.8522331 58.8785047,28.7476636 L58.8785047,15.0841121 C58.8785047,13.9795426 59.7739352,13.0841121 60.8785047,13.0841121 Z" id="矩形复制-11" fill="#FFCF6C" opacity="0.6" transform="translate(61.168224, 21.915888) rotate(-90.000000) translate(-61.168224, -21.915888) "></path>
                    <path d="M58.588785,23.8785047 L59.1682243,23.8785047 C60.2727938,23.8785047 61.1682243,24.7739352 61.1682243,25.8785047 L61.1682243,34.9626168 C61.1682243,36.0671863 60.2727938,36.9626168 59.1682243,36.9626168 L58.588785,36.9626168 C57.4842155,36.9626168 56.588785,36.0671863 56.588785,34.9626168 L56.588785,25.8785047 C56.588785,24.7739352 57.4842155,23.8785047 58.588785,23.8785047 Z" id="矩形复制-12" fill="#FFCF6C" opacity="0.6" transform="translate(58.878505, 30.420561) rotate(-90.000000) translate(-58.878505, -30.420561) "></path>
                    <path d="M41.3479906,19.1900089 L41.757716,19.5997343 C42.5387646,20.3807829 42.5387646,21.6471129 41.757716,22.4281615 L27.0076007,37.1782767 C26.2576257,37.9282517 25.0602147,37.9580891 24.2746377,37.2677889 C24.1493436,37.1895177 24.030848,37.0957021 23.9218102,36.9866644 L16.5731865,29.6380406 C15.7921379,28.856992 15.7921379,27.5906621 16.5731865,26.8096135 L16.9829119,26.3998881 C17.7639605,25.6188395 19.0302904,25.6188395 19.811339,26.3998881 L25.5599346,32.148757 L38.5195634,19.1900089 C39.300612,18.4089603 40.566942,18.4089603 41.3479906,19.1900089 Z" id="形状结合" fill="#B4F4E7" opacity="0.87"></path>
                </g>
            </g>
        </g>
    </g>
</svg>