<?xml version="1.0" encoding="UTF-8"?>
<svg width="26px" height="26px" viewBox="0 0 26 26" version="1.1" xmlns="http://www.w3.org/2000/svg" xmlns:xlink="http://www.w3.org/1999/xlink">
    <!-- Generator: Sketch 59.1 (86144) - https://sketch.com -->
    <title>image_portrait_fault</title>
    <desc>Created with Sketch.</desc>
    <defs>
        <circle id="path-1" cx="13" cy="13" r="13"></circle>
        <path d="M13.6005536,0.0786964286 C8.12592857,0.237482143 3.52253571,2.29682143 1.90194643,5.02264286 L1.90194643,5.02264286 C0.951321429,6.40992857 0.383035714,8.37107143 0.435964286,10.5306964 L0.435964286,10.5306964 C0.488892857,12.689625 1.15258929,14.61525 2.169375,15.9447321 L2.169375,15.9447321 C3.92019643,18.5730536 8.61830357,20.3600893 14.0929286,20.2006071 L14.0929286,20.2006071 C19.5668571,20.0418214 24.1709464,17.9824821 25.7908393,15.2573571 L25.7908393,15.2573571 C26.7414643,13.869375 27.30975,11.9082321 27.2568214,9.74930357 L27.2568214,9.74930357 C27.2045893,7.590375 26.5401964,5.66405357 25.5234107,4.33526786 L25.5234107,4.33526786 C23.8450179,1.81628571 19.4589107,0.0689464286 14.2781786,0.06825 L14.2781786,0.06825 C14.0532321,0.06825 13.8282857,0.0717321429 13.6005536,0.0786964286" id="path-3"></path>
        <linearGradient x1="8.35848775%" y1="42.1698477%" x2="77.0235534%" y2="55.0827188%" id="linearGradient-5">
            <stop stop-color="#5BBFA5" offset="0%"></stop>
            <stop stop-color="#10BAB8" offset="100%"></stop>
        </linearGradient>
        <path d="M13.6005536,0.0786964286 C8.12592857,0.237482143 3.52253571,2.29682143 1.90194643,5.02264286 L1.90194643,5.02264286 C0.951321429,6.40992857 0.383035714,8.37107143 0.435964286,10.5306964 L0.435964286,10.5306964 C0.488892857,12.689625 1.15258929,14.61525 2.169375,15.9447321 L2.169375,15.9447321 C3.92019643,18.5730536 8.61830357,20.3600893 14.0929286,20.2006071 L14.0929286,20.2006071 C19.5668571,20.0418214 24.1709464,17.9824821 25.7908393,15.2573571 L25.7908393,15.2573571 C26.7414643,13.869375 27.30975,11.9082321 27.2568214,9.74930357 L27.2568214,9.74930357 C27.2045893,7.590375 26.5401964,5.66405357 25.5234107,4.33526786 L25.5234107,4.33526786 C23.8450179,1.81628571 19.4589107,0.0689464286 14.2781786,0.06825 L14.2781786,0.06825 C14.0532321,0.06825 13.8282857,0.0717321429 13.6005536,0.0786964286" id="path-6"></path>
        <path d="M13.6005536,0.0786964286 C8.12592857,0.237482143 3.52253571,2.29682143 1.90194643,5.02264286 L1.90194643,5.02264286 C0.951321429,6.40992857 0.383035714,8.37107143 0.435964286,10.5306964 L0.435964286,10.5306964 C0.488892857,12.689625 1.15258929,14.61525 2.169375,15.9447321 L2.169375,15.9447321 C3.92019643,18.5730536 8.61830357,20.3600893 14.0929286,20.2006071 L14.0929286,20.2006071 C19.5668571,20.0418214 24.1709464,17.9824821 25.7908393,15.2573571 L25.7908393,15.2573571 C26.7414643,13.869375 27.30975,11.9082321 27.2568214,9.74930357 L27.2568214,9.74930357 C27.2045893,7.590375 26.5401964,5.66405357 25.5234107,4.33526786 L25.5234107,4.33526786 C23.8450179,1.81628571 19.4589107,0.0689464286 14.2781786,0.06825 L14.2781786,0.06825 C14.0532321,0.06825 13.8282857,0.0717321429 13.6005536,0.0786964286 L13.6005536,0.0786964286 Z" id="path-8"></path>
        <path d="M4.52469643,0.0480535714 C2.13803571,0.112125 0.2535,2.09903571 0.317571429,4.48569643 L0.317571429,4.48569643 C0.381642857,6.87305357 2.36925,8.75689286 4.75591071,8.69282143 L4.75591071,8.69282143 C7.14257143,8.62875 9.02641071,6.64183929 8.96233929,4.25448214 L8.96233929,4.25448214 C8.89966071,1.90751786 6.97682143,0.0466607143 4.64239286,0.0466607143 L4.64239286,0.0466607143 C4.60339286,0.0466607143 4.56369643,0.0466607143 4.52469643,0.0480535714" id="path-10"></path>
        <linearGradient x1="44.3235613%" y1="49.7119672%" x2="144.201109%" y2="54.7185573%" id="linearGradient-12">
            <stop stop-color="#F9F9F9" offset="0%"></stop>
            <stop stop-color="#E2EBEB" offset="100%"></stop>
        </linearGradient>
        <path d="M4.27746429,0.340553571 C1.89080357,0.404625 0.00696428571,2.39223214 0.0710357143,4.77819643 L0.0710357143,4.77819643 C0.135107143,7.16625 2.12271429,9.04939286 4.509375,8.98532143 L4.509375,8.98532143 C6.89603571,8.92194643 8.779875,6.93364286 8.71580357,4.54767857 L8.71580357,4.54767857 C8.65242857,2.20001786 6.72958929,0.339160714 4.39516071,0.339160714 L4.39516071,0.339160714 C4.35616071,0.339160714 4.31646429,0.339857143 4.27746429,0.340553571" id="path-13"></path>
        <linearGradient x1="33.6859692%" y1="49.1844646%" x2="133.563556%" y2="54.1910568%" id="linearGradient-15">
            <stop stop-color="#F9F9F9" offset="0%"></stop>
            <stop stop-color="#E2EBEB" offset="100%"></stop>
        </linearGradient>
    </defs>
    <g id="页面1" stroke="none" stroke-width="1" fill="none" fill-rule="evenodd">
        <g id="待办-待办列表" transform="translate(-1580.000000, -242.000000)">
            <g id="image_portrait_fault" transform="translate(1580.000000, 242.000000)">
                <mask id="mask-2" fill="white">
                    <use xlink:href="#path-1"></use>
                </mask>
                <use id="蒙版" fill="#E3E7F0" xlink:href="#path-1"></use>
                <g id="编组" mask="url(#mask-2)">
                    <g transform="translate(-0.464286, 8.326190)">
                        <g transform="translate(0.000000, 5.577681)">
                            <mask id="mask-4" fill="white">
                                <use xlink:href="#path-3"></use>
                            </mask>
                            <g id="Clip-2"></g>
                            <path d="M13.6005536,0.0786964286 C8.12592857,0.237482143 3.52253571,2.29682143 1.90194643,5.02264286 L1.90194643,5.02264286 C0.951321429,6.40992857 0.383035714,8.37107143 0.435964286,10.5306964 L0.435964286,10.5306964 C0.488892857,12.689625 1.15258929,14.61525 2.169375,15.9447321 L2.169375,15.9447321 C3.92019643,18.5730536 8.61830357,20.3600893 14.0929286,20.2006071 L14.0929286,20.2006071 C19.5668571,20.0418214 24.1709464,17.9824821 25.7908393,15.2573571 L25.7908393,15.2573571 C26.7414643,13.869375 27.30975,11.9082321 27.2568214,9.74930357 L27.2568214,9.74930357 C27.2045893,7.590375 26.5401964,5.66405357 25.5234107,4.33526786 L25.5234107,4.33526786 C23.8450179,1.81628571 19.4589107,0.0689464286 14.2781786,0.06825 L14.2781786,0.06825 C14.0532321,0.06825 13.8282857,0.0717321429 13.6005536,0.0786964286" id="Fill-1" fill="url(#linearGradient-5)" mask="url(#mask-4)"></path>
                        </g>
                        <g transform="translate(0.000000, 5.577681)">
                            <g>
                                <mask id="mask-7" fill="white">
                                    <use xlink:href="#path-6"></use>
                                </mask>
                                <g id="Clip-4"></g>
                                <path d="M14.2606982,-2.65819821 C14.5051446,-2.27864464 17.0986446,-0.0159482143 17.0986446,-0.0159482143 L16.8521089,1.62414107 C16.8521089,1.62414107 16.4843946,6.53187321 22.8741268,6.27280179 C22.8741268,6.27280179 27.9671089,17.4205339 14.0858946,19.9088732 C0.203983929,22.3986054 26.7393054,25.7672304 26.7393054,25.7672304 C26.7393054,25.7672304 39.5076268,20.2278375 40.2507161,19.4910161 C40.9938054,18.7541946 39.6086089,-1.53276964 38.5068589,-2.41862679 C37.4044125,-3.30448393 24.8025375,-8.84526964 24.2976268,-8.79615213 C23.7920196,-8.74776964 14.2606982,-2.65819821 14.2606982,-2.65819821" id="Fill-3" fill="#0C9E9C" mask="url(#mask-7)"></path>
                            </g>
                            <g>
                                <mask id="mask-9" fill="white">
                                    <use xlink:href="#path-8"></use>
                                </mask>
                                <g id="Clip-6"></g>
                                <path d="M13.6493036,-2.87172321 L12.065625,0.466955357 C12.065625,0.466955357 11.88525,4.61488393 7.89123214,5.63933036 C7.89123214,5.63933036 5.86810714,6.40540179 3.11303571,3.96233036 C0.357964286,1.51925893 -0.696428571,1.00877679 -0.696428571,1.00877679 L7.80835714,-3.45741964 L10.174125,-4.82590179 L13.6493036,-2.87172321 Z" id="Fill-5" fill="#0C9E9C" mask="url(#mask-9)"></path>
                            </g>
                        </g>
                        <g transform="translate(1.392857, 2.095538)">
                            <mask id="mask-11" fill="white">
                                <use xlink:href="#path-10"></use>
                            </mask>
                            <g id="Clip-8"></g>
                            <path d="M4.52469643,0.0480535714 C2.13803571,0.112125 0.2535,2.09903571 0.317571429,4.48569643 L0.317571429,4.48569643 C0.381642857,6.87305357 2.36925,8.75689286 4.75591071,8.69282143 L4.75591071,8.69282143 C7.14257143,8.62875 9.02641071,6.64183929 8.96233929,4.25448214 L8.96233929,4.25448214 C8.89966071,1.90751786 6.97682143,0.0466607143 4.64239286,0.0466607143 L4.64239286,0.0466607143 C4.60339286,0.0466607143 4.56369643,0.0466607143 4.52469643,0.0480535714" id="Fill-7" fill="url(#linearGradient-12)" mask="url(#mask-11)"></path>
                        </g>
                        <g transform="translate(16.714286, 1.399110)">
                            <mask id="mask-14" fill="white">
                                <use xlink:href="#path-13"></use>
                            </mask>
                            <g id="Clip-10"></g>
                            <path d="M4.27746429,0.340553571 C1.89080357,0.404625 0.00696428571,2.39223214 0.0710357143,4.77819643 L0.0710357143,4.77819643 C0.135107143,7.16625 2.12271429,9.04939286 4.509375,8.98532143 L4.509375,8.98532143 C6.89603571,8.92194643 8.779875,6.93364286 8.71580357,4.54767857 L8.71580357,4.54767857 C8.65242857,2.20001786 6.72958929,0.339160714 4.39516071,0.339160714 L4.39516071,0.339160714 C4.35616071,0.339160714 4.31646429,0.339857143 4.27746429,0.340553571" id="Fill-9" fill="url(#linearGradient-15)" mask="url(#mask-14)"></path>
                        </g>
                        <g transform="translate(3.482143, 0.006252)">
                            <path d="M5.84129464,1.85841964 C5.84129464,1.85841964 6.02584821,1.02200893 4.90041964,0.593705357 C4.90041964,0.593705357 3.95884821,0.261508929 3.57929464,0.9774375 C3.57929464,0.9774375 3.44140179,1.30475893 3.83836607,1.46841964 C4.23533036,1.63347321 5.55436607,2.10216964 5.55436607,2.10216964 C5.55436607,2.10216964 5.8378125,2.11470536 5.84129464,1.85841964" id="Fill-11" fill="#231815"></path>
                            <path d="M14.0266982,1.89240536 C14.0266982,1.89240536 13.6311268,1.13260179 14.6068232,0.427119643 C14.6068232,0.427119643 15.4293054,-0.139076786 15.9815732,0.454280357 C15.9815732,0.454280357 16.2009482,0.734244643 15.8596982,0.995405357 C15.5191446,1.2572625 14.3672518,2.05258393 14.3672518,2.05258393 C14.3672518,2.05258393 14.0977339,2.13894107 14.0266982,1.89240536" id="Fill-13" fill="#231815"></path>
                            <path d="M18.4651071,4.00620536 C19.5975,4.47002679 20.1393214,5.76329464 19.6755,6.8956875 C19.2116786,8.02808036 17.9177143,8.56990179 16.7853214,8.10608036 C15.6529286,7.64225893 15.1118036,6.34829464 15.575625,5.21590179 C15.6501429,5.03483036 15.7455536,4.86838393 15.858375,4.71865179 C15.8535,4.74929464 15.8500179,4.78063393 15.848625,4.81197321 C15.8263393,5.24724107 16.1613214,5.61704464 16.5965893,5.63933036 C17.0311607,5.66161607 17.4016607,5.32663393 17.42325,4.89136607 C17.4455357,4.45609821 17.1105536,4.08559821 16.6752857,4.06400893 C16.6690179,4.06400893 16.6634464,4.06400893 16.6571786,4.0633125 C17.2045714,3.79797321 17.8578214,3.75758036 18.4651071,4.00620536" id="Fill-15" fill="#2D4C4E"></path>
                            <path d="M17.6829482,4.90870714 C18.3166982,4.94074286 18.8041982,5.47977857 18.7728589,6.11352857 C18.7408232,6.74727857 18.2017875,7.235475 17.5680375,7.20343929 C16.9342875,7.17140357 16.4460911,6.63236786 16.4781268,5.99861786 C16.4843946,5.87117143 16.5115554,5.74929643 16.5554304,5.636475 C16.5693589,5.63786786 16.5825911,5.63856429 16.5965196,5.63926071 C17.0199482,5.66085 17.3820911,5.343975 17.4210911,4.92542143 C17.5060554,4.9101 17.5938054,4.90452857 17.6829482,4.90870714" id="Fill-17" fill="#231815"></path>
                            <path d="M15.9803196,7.50534107 C16.2742125,7.51996607 16.5263196,7.2915375 16.5409446,6.99764464 C16.5562661,6.70375179 16.3278375,6.45094821 16.0339446,6.43701964 C15.7393554,6.42169821 15.4872482,6.64943036 15.4726232,6.94401964 C15.4579982,7.2379125 15.6864268,7.49071607 15.9803196,7.50534107" id="Fill-19" fill="#FFFFFF"></path>
                            <path d="M3.3905625,4.40950714 C4.52295536,4.87332857 5.06477679,6.16659643 4.60095536,7.29898929 C4.13713393,8.43138214 2.84316964,8.9739 1.71077679,8.51007857 C0.578383929,8.04625714 0.0372589286,6.75159643 0.501080357,5.61920357 C0.575598214,5.43813214 0.671008929,5.27168571 0.783830357,5.12195357 C0.778955357,5.15259643 0.775473214,5.18393571 0.774080357,5.215275 C0.751794643,5.65054286 1.08677679,6.02104286 1.52204464,6.04332857 C1.95661607,6.06491786 2.32711607,5.72993571 2.34870536,5.29466786 C2.37099107,4.8594 2.03600893,4.48959643 1.60074107,4.46731071 C1.59447321,4.46731071 1.58890179,4.46731071 1.58263393,4.46661429 C2.13002679,4.201275 2.78327679,4.16088214 3.3905625,4.40950714" id="Fill-21" fill="#2D4C4E"></path>
                            <path d="M2.60840357,5.31200893 C3.24215357,5.34404464 3.72965357,5.88308036 3.69831429,6.51683036 C3.66627857,7.15127679 3.12724286,7.63877679 2.49279643,7.60674107 C1.85974286,7.57540179 1.37154643,7.03566964 1.40358214,6.40191964 C1.40985,6.27447321 1.43701071,6.15259821 1.48088571,6.03977679 C1.49481429,6.04116964 1.50804643,6.0425625 1.521975,6.04325893 C1.94540357,6.06415179 2.30754643,5.74727679 2.34654643,5.32872321 C2.43151071,5.31340179 2.51856429,5.30783036 2.60840357,5.31200893" id="Fill-23" fill="#231815"></path>
                            <path d="M2.22857143,8.02425 C2.52316071,8.038875 2.77526786,7.81114286 2.78989286,7.51655357 C2.80451786,7.22335714 2.57678571,6.97055357 2.28219643,6.95592857 C1.98830357,6.94130357 1.7355,7.16903571 1.720875,7.463625 C1.70625,7.75751786 1.93467857,8.009625 2.22857143,8.02425" id="Fill-25" fill="#FFFFFF"></path>
                        </g>
                    </g>
                </g>
            </g>
        </g>
    </g>
</svg>