<?xml version="1.0" encoding="UTF-8"?>
<svg width="36px" height="36px" viewBox="0 0 36 36" version="1.1" xmlns="http://www.w3.org/2000/svg" xmlns:xlink="http://www.w3.org/1999/xlink">
    <!-- Generator: Sketch 59.1 (86144) - https://sketch.com -->
    <title>编组 8备份 2</title>
    <desc>Created with Sketch.</desc>
    <g id="页面1" stroke="none" stroke-width="1" fill="none" fill-rule="evenodd">
        <g id="组件及规范" transform="translate(-486.000000, -1521.000000)">
            <g id="编组-16" transform="translate(48.000000, 1421.000000)">
                <g id="编组-8备份-2" transform="translate(438.000000, 100.000000)">
                    <circle id="椭圆形复制-2" fill="#D1F5E9" cx="18" cy="18" r="18"></circle>
                    <g id="团队-(1)" transform="translate(7.000000, 7.000000)" fill-rule="nonzero">
                        <path d="M17.4655628,13.4195985 C16.8670244,12.847815 16.1676523,12.3811336 15.3995006,12.0409433 C16.4827485,11.2032505 17.1738272,9.92502709 17.1738272,8.49159087 C17.1738272,5.96253462 14.9642884,3.88770417 12.3147549,3.92650738 C9.70587308,3.96531059 7.60394171,5.9944902 7.60394171,8.49159087 C7.60394171,9.92502709 8.29741168,11.2032505 9.37826831,12.0409433 C8.6099665,12.3808846 7.9105511,12.847595 7.31220608,13.4195985 C6.00656952,14.6681488 5.26527405,16.316144 5.21738866,18.0737011 C5.21615913,18.1229166 5.23574344,18.1705439 5.27176024,18.2057825 C5.30777704,18.241021 5.35717452,18.2608696 5.40875059,18.2608696 L6.747865,18.2608696 C6.85068986,18.2608696 6.93677578,18.1832631 6.93916706,18.0851138 C6.9846013,16.7612396 7.5465511,15.5218195 8.53414798,14.5814123 C9.55493152,13.6018645 10.9438327,13.0528263 12.3912757,13.0566744 C13.8475627,13.0566744 15.2177637,13.5976368 16.2484035,14.5814123 C17.2336091,15.5218195 17.7955589,16.7612396 17.8433844,18.0851138 C17.8457757,18.1832631 17.9318616,18.2608696 18.0346865,18.2608696 L19.3738009,18.2608696 C19.4253769,18.2608696 19.4747744,18.241021 19.5107912,18.2057825 C19.546808,18.1705439 19.5663923,18.1229166 19.5651628,18.0737011 C19.5172774,16.316144 18.7759819,14.6681488 17.4655628,13.4195985 Z M12.3912757,11.4132566 C11.5734594,11.4132566 10.8034686,11.1096663 10.2271712,10.5572912 C9.64280726,10.0038943 9.31913737,9.2475792 9.33044279,8.46191783 C9.33761662,7.71324414 9.65087374,6.9896784 10.1984759,6.45328109 C10.7723821,5.89177582 11.5399816,5.5790676 12.3601891,5.56993744 C13.1708316,5.56308981 13.9575613,5.86438532 14.5362501,6.40534772 C15.1292864,6.96000536 15.4544999,7.70183143 15.4544999,8.49159087 C15.4544999,9.27222015 15.1364603,10.0049161 14.5577715,10.5572912 C13.9843139,11.1072939 13.2042077,11.4155033 12.3912757,11.4132566 Z" id="形状" fill="#01928E"></path>
                        <path d="M6.40113002,9.0941819 C6.37960854,8.89560076 6.36765216,8.69473709 6.36765216,8.49159087 C6.36765216,8.12866674 6.4035213,7.77487276 6.47047702,7.43020896 C6.48721595,7.34803746 6.44178171,7.26358341 6.36286961,7.22934529 C6.03765611,7.09011024 5.73874664,6.89837673 5.48048886,6.65642731 C4.86517475,6.08694141 4.52929408,5.29660589 4.55506515,4.47888248 C4.57658664,3.74618658 4.88506121,3.05001135 5.42309825,2.52502674 C6.01374335,1.94754368 6.8076469,1.63255292 7.65176723,1.64168309 C8.41458419,1.64853071 9.15109711,1.92928335 9.70826436,2.42687745 C9.89717514,2.59578554 10.0597819,2.78295396 10.1960846,2.98381763 C10.2439101,3.05457643 10.3371699,3.08424947 10.4184733,3.05685897 C10.8393378,2.91762392 11.2841151,2.81947463 11.7408487,2.77382379 C11.8747602,2.76012854 11.951281,2.62317604 11.8914991,2.50904895 C11.1143345,1.04137461 9.5265274,0.0279260707 7.69002764,0.000535569672 C5.03810285,-0.03826764 2.82856407,2.03656281 2.82856407,4.56333652 C2.82856407,5.99677274 3.51964276,7.27499612 4.60289067,8.11268894 C3.84246499,8.44822258 3.1418212,8.91157856 2.53443716,9.49134416 C1.22401806,10.7398945 0.482722579,12.3878896 0.434837196,14.1477293 C0.43360766,14.1969448 0.453191972,14.2445721 0.489208771,14.2798107 C0.525225571,14.3150492 0.574623057,14.3348978 0.626199123,14.3348978 L1.96770481,14.3348978 C2.07052967,14.3348978 2.15661559,14.2572913 2.15900687,14.159142 C2.20444111,12.8352678 2.7663909,11.5958477 3.75398778,10.6554405 C4.45702285,9.98437318 5.31788211,9.51873466 6.25765348,9.29276303 C6.35091323,9.26993761 6.4130864,9.18548356 6.40113002,9.0941819 L6.40113002,9.0941819 Z" id="路径" fill="#ADE7D4"></path>
                    </g>
                </g>
            </g>
        </g>
    </g>
</svg>