<?xml version="1.0" encoding="UTF-8"?>
<svg width="47px" height="18px" viewBox="0 0 47 18" version="1.1" xmlns="http://www.w3.org/2000/svg" xmlns:xlink="http://www.w3.org/1999/xlink">
    <!-- Generator: Sketch 59.1 (86144) - https://sketch.com -->
    <title>icon_others</title>
    <desc>Created with Sketch.</desc>
    <defs>
        <linearGradient x1="7.12601666%" y1="42.6663649%" x2="93.7966331%" y2="57.3336351%" id="linearGradient-1">
            <stop stop-color="#C1C7D0" offset="0%"></stop>
            <stop stop-color="#8A909B" offset="100%"></stop>
        </linearGradient>
    </defs>
    <g id="页面1" stroke="none" stroke-width="1" fill="none" fill-rule="evenodd">
        <g id="订单-办理中订单-订单模式0.1" transform="translate(-400.000000, -677.000000)">
            <g id="icon_others" transform="translate(400.000000, 676.500000)">
                <rect id="矩形复制-14备份" fill="url(#linearGradient-1)" x="0" y="0.5" width="47" height="18" rx="9"></rect>
                <text id="其他" font-family="PingFangSC-Regular, PingFang SC" font-size="12" font-weight="normal" letter-spacing="0.66" fill="#FFFFFF">
                    <tspan x="16" y="13.5">其他</tspan>
                </text>
                <path d="M8.09630409,14.4310512 C7.99200259,14.4310512 7.88770109,14.3915264 7.80755362,14.311379 L4.1251618,10.6289871 C3.96596477,10.4697901 3.96596477,10.2106832 4.1251618,10.0514862 L9.05477996,5.12186807 C9.13163369,5.04501433 9.26448086,5.00109791 9.34682415,5.00217572 L13.0423909,5.03293732 C13.2674626,5.03513314 13.4486178,5.21848419 13.4475248,5.44355584 L13.434345,9.09520618 C13.434345,9.20280141 13.3904285,9.30600499 13.3146727,9.38285873 L8.38505455,14.3124769 C8.30600499,14.3915264 8.20170349,14.4310512 8.09630409,14.4310512 Z M4.99251109,10.3402367 L8.09630409,13.4440297 L12.6185974,8.92283423 L12.6295766,5.846489 L9.51151072,5.82013915 L4.99251109,10.3402367 Z M13.0324087,9.14579789 L13.1392837,9.14579789 L13.0324087,9.14579789 Z" id="形状" fill="#FFFFFF" fill-rule="nonzero"></path>
                <path d="M10.4985323,9.36199843 C9.75414895,9.36199843 9.15029817,8.75704974 9.15029817,8.01376433 C9.15029817,7.27047892 9.75524686,6.66553023 10.4985323,6.66553023 C11.2418177,6.66553023 11.8467664,7.27047892 11.8467664,8.01376433 C11.8467664,8.75704974 11.2429156,9.36199843 10.4985323,9.36199843 Z M10.4985323,7.48237565 C10.2053902,7.48237565 9.96714358,7.72062223 9.96714358,8.01376433 C9.96714358,8.30690643 10.2053902,8.54515301 10.4985323,8.54515301 C10.7916744,8.54515301 11.029921,8.30690643 11.029921,8.01376433 C11.029921,7.72062223 10.7916744,7.48237565 10.4985323,7.48237565 Z" id="形状" fill="#FFFFFF" fill-rule="nonzero"></path>
            </g>
        </g>
    </g>
</svg>