<?xml version="1.0" encoding="UTF-8"?>
<svg width="47px" height="18px" viewBox="0 0 47 18" version="1.1" xmlns="http://www.w3.org/2000/svg" xmlns:xlink="http://www.w3.org/1999/xlink">
    <!-- Generator: Sketch 59.1 (86144) - https://sketch.com -->
    <defs>
        <linearGradient x1="7.12601666%" y1="42.6663649%" x2="93.7966331%" y2="57.3336351%" id="linearGradient-1">
            <stop stop-color="#C1C7D0" offset="0%"></stop>
            <stop stop-color="#8A909B" offset="100%"></stop>
        </linearGradient>
    </defs>
    <g id="页面1" stroke="none" stroke-width="1" fill="none" fill-rule="evenodd">
        <g id="订单-待抢单" transform="translate(-400.000000, -502.000000)">
            <g id="icon_nonlitigation" transform="translate(400.000000, 502.000000)">
                <rect id="矩形复制-12" fill="url(#linearGradient-1)" x="0" y="0" width="47" height="18" rx="9"></rect>
                <g id="编组" transform="translate(6.000000, 4.000000)" stroke="#FFFFFF" stroke-linecap="round" stroke-linejoin="round" stroke-width="0.8">
                    <path d="M6.2821,5.09047 L6.2821,6.57947 L0.5001,6.57947 L0.5001,5.09047 L1.8451,4.64047 C2.2771,4.49647 2.5681,4.09247 2.5681,3.63747 L2.5681,3.60847 C2.5681,3.36147 2.4691,3.12747 2.2921,2.95447 C2.0311,2.69747 1.8691,2.34047 1.8691,1.93947 C1.8691,1.15047 2.5191,0.50047 3.3081,0.50047 C4.1071,0.50047 4.7481,1.15047 4.7481,1.93947 C4.7481,2.34047 4.5871,2.69747 4.3251,2.95447 C4.1491,3.12747 4.0491,3.36147 4.0491,3.60847 C4.0491,4.06947 4.3471,4.47747 4.7871,4.61647 L6.2821,5.09047 Z" id="Stroke-1"></path>
                    <line x1="6.2469" y1="8.29657" x2="0.5349" y2="8.29657" id="Stroke-3"></line>
                </g>
                <text id="非诉" font-family="PingFangSC-Regular, PingFang SC" font-size="12" font-weight="normal" letter-spacing="0.66" fill="#FFFFFF">
                    <tspan x="16" y="13">非诉</tspan>
                </text>
            </g>
        </g>
    </g>
</svg>