<?xml version="1.0" encoding="UTF-8"?>
<svg width="22px" height="22px" viewBox="0 0 22 22" version="1.1" xmlns="http://www.w3.org/2000/svg" xmlns:xlink="http://www.w3.org/1999/xlink">
    <!-- Generator: Sketch 59.1 (86144) - https://sketch.com -->
    <title>icon_pdf</title>
    <desc>Created with Sketch.</desc>
    <defs>
        <polygon id="path-1" points="15.4998 0.0001 15.4998 2.6671 18.1668 2.6671"></polygon>
        <filter x="-262.5%" y="-187.5%" width="624.9%" height="624.9%" filterUnits="objectBoundingBox" id="filter-2">
            <feOffset dx="0" dy="2" in="SourceAlpha" result="shadowOffsetOuter1"></feOffset>
            <feGaussianBlur stdDeviation="2" in="shadowOffsetOuter1" result="shadowBlurOuter1"></feGaussianBlur>
            <feColorMatrix values="0 0 0 0 0   0 0 0 0 0   0 0 0 0 0  0 0 0 0.5 0" type="matrix" in="shadowBlurOuter1"></feColorMatrix>
        </filter>
    </defs>
    <g id="页面1" stroke="none" stroke-width="1" fill="none" fill-rule="evenodd">
        <g id="订单-办理中订单-产品详情-文档" transform="translate(-102.000000, -395.000000)">
            <g id="编组-14" transform="translate(102.000000, 395.000000)">
                <rect id="矩形" stroke="#979797" fill="#D8D8D8" opacity="0" x="0.5" y="0.5" width="21" height="21"></rect>
                <g id="编组-10" transform="translate(2.000000, 2.000000)">
                    <g id="编组复制-8">
                        <path d="M0,2.0001 L0,16.1671 C1.3527075e-16,17.2716695 0.8954305,18.1671 2,18.1671 L16.167,18.1671 C17.2715695,18.1671 18.167,17.2716695 18.167,16.1671 L18.167,3.49552712 C18.167,2.96509415 17.9562863,2.45638632 17.5812136,2.08131356 L16.0857864,0.585886438 C15.7107137,0.210813681 15.2020059,0.0001 14.6715729,0.0001 L2,0.0001 C0.8954305,0.0001 -1.3527075e-16,0.8955305 0,2.0001 Z" id="Fill-2" fill="#F26666"></path>
                        <g id="Fill-1">
                            <use fill="black" fill-opacity="1" filter="url(#filter-2)" xlink:href="#path-1"></use>
                            <use fill="#FFB9B9" fill-rule="evenodd" xlink:href="#path-1"></use>
                        </g>
                    </g>
                    <g id="PDF" transform="translate(5.000000, 3.000000)" fill="#FFFFFF" fill-rule="nonzero">
                        <path d="M9.84101821,6.78921127 C9.61801438,6.49661205 9.16300658,6.35361244 8.44999436,6.35361244 C8.03498725,6.35361244 7.53297864,6.40091231 6.95596875,6.49881205 C5.38594184,5.22281546 4.94693431,3.81481923 4.94693431,3.81481923 C4.94693431,3.81481923 5.21493891,3.05582126 5.23293922,1.81722458 C5.24493942,1.03402667 5.13393752,0.506028085 4.8529327,0.19802891 C4.72466367,0.0697363059 4.55728903,-0.000923655326 4.38392466,-1.33226763e-14 C4.25145437,-0.00132631644 4.12209386,0.0441768306 4.01491834,0.129829092 C3.19690432,0.793127317 4.08891961,3.92481894 4.11492005,4.00841871 C3.7173029,5.08876363 3.25976791,6.14124025 2.74489657,7.15991028 C2.58289379,7.47780943 2.59789405,7.45250949 2.4608917,7.7132088 C2.4608917,7.7132088 1.08086804,8.43370687 0.408856523,9.3192045 C0.0308500433,9.82080316 -0.0161507624,10.1585023 0.00384958048,10.4170016 L0.00384958048,10.4214015 C0.0348501119,10.7250007 0.383856094,11 0.735862128,11 C0.748862351,11 0.765862643,11 0.778862866,10.9978 C1.136869,10.9725001 1.52887572,10.6898008 1.9768834,10.1343023 C2.27188846,9.7658033 2.65689506,9.12010503 3.12090301,8.21370746 C4.44992579,7.79350858 5.61894583,7.49540938 6.59796262,7.32490984 C7.31697494,7.75610868 8.38599327,8.24120738 9.11400574,8.24120738 C9.35700991,8.24120738 9.5550133,8.18620753 9.69701574,8.07620783 C9.86801867,7.94640817 9.9400199,7.78360861 9.98602069,7.48220941 C10.0300214,7.18521021 9.96702037,6.95751082 9.84101821,6.78921127 L9.84101821,6.78921127 Z M8.28999162,7.15771028 C8.93000259,7.15771028 9.27400849,7.26001001 9.45201154,7.34800977 C9.49520707,7.36901231 9.53669202,7.39403661 9.57601366,7.42280957 C9.52601281,7.45800948 9.42701111,7.50310936 9.24900806,7.50310936 C8.954003,7.50310936 8.56699637,7.38760967 8.09398826,7.16211027 C8.16098941,7.15771028 8.22699054,7.15771028 8.28999162,7.15771028 L8.28999162,7.15771028 Z M4.50392672,0.627027762 C4.50392672,0.627027762 4.50392672,0.624827767 4.50592675,0.624827767 C4.6429291,0.705127553 4.70593018,1.26832605 4.69292996,1.59282518 C4.67492965,2.031724 4.67292962,2.20222355 4.60292842,2.46952283 C4.41592521,1.90852433 4.40292499,0.899827031 4.5029267,0.627027762 L4.50392672,0.627027762 Z M4.55592761,5.06881587 C4.87793313,5.64961432 5.35494131,6.27991263 5.81594921,6.72981143 C4.91793382,6.94101086 4.05591904,7.20611015 3.51990985,7.4118096 C4.09191966,6.31951253 4.51692694,5.17881558 4.55592761,5.06881587 Z M0.856864203,10.0848024 C0.936865574,9.93960284 1.14786919,9.66240358 1.68887846,9.12120503 C1.31887212,9.73940337 1.04686746,10.0782025 0.768862694,10.2872019 C0.791863088,10.2212021 0.820863586,10.1508023 0.856864203,10.0848024 L0.856864203,10.0848024 Z" id="形状"></path>
                    </g>
                </g>
            </g>
        </g>
    </g>
</svg>