<?xml version="1.0" encoding="UTF-8"?>
<svg width="22px" height="22px" viewBox="0 0 22 22" version="1.1" xmlns="http://www.w3.org/2000/svg" xmlns:xlink="http://www.w3.org/1999/xlink">
    <!-- Generator: Sketch 59.1 (86144) - https://sketch.com -->
    <title>icon_files</title>
    <desc>Created with Sketch.</desc>
    <g id="页面1" stroke="none" stroke-width="1" fill="none" fill-rule="evenodd">
        <g id="订单-办理中订单-产品详情-文档" transform="translate(-102.000000, -268.000000)">
            <g id="编组-11" transform="translate(102.000000, 268.000000)">
                <rect id="矩形" stroke="#979797" fill="#D8D8D8" opacity="0" x="0.5" y="0.5" width="21" height="21"></rect>
                <g id="编组复制" transform="translate(2.000000, 1.000000)">
                    <path d="M16.6953,17.6665 L1.5543,17.6665 C0.6963,17.6665 0.0003,16.9705 0.0003,16.1115 L0.0003,2.5545 C0.0003,1.6965 0.6963,0.9995 1.5543,0.9995 L6.7113,0.9995 C7.0603,0.9995 7.3993,1.1175 7.6733,1.3335 L9.5763,2.8335 C9.8513,3.0495 10.1903,3.1665 10.5393,3.1665 L16.6953,3.1665 C17.5533,3.1665 18.2503,3.8625 18.2503,4.7215 L18.2503,16.1115 C18.2503,16.9705 17.5533,17.6665 16.6953,17.6665" id="Fill-1" fill="#F7B92D"></path>
                    <path d="M16.7534,19.25 L1.4964,19.25 C0.6704,19.25 0.0004,18.58 0.0004,17.753 L0.0004,6.247 C0.0004,5.42 0.6704,4.75 1.4964,4.75 L16.7534,4.75 C17.5804,4.75 18.2504,5.42 18.2504,6.247 L18.2504,17.753 C18.2504,18.58 17.5804,19.25 16.7534,19.25" id="Fill-3" fill="#FFCD5A"></path>
                </g>
            </g>
        </g>
    </g>
</svg>