<?xml version="1.0" encoding="UTF-8"?>
<svg width="22px" height="22px" viewBox="0 0 22 22" version="1.1" xmlns="http://www.w3.org/2000/svg" xmlns:xlink="http://www.w3.org/1999/xlink">
    <!-- Generator: Sketch 59.1 (86144) - https://sketch.com -->
    <title>icon_music</title>
    <desc>Created with Sketch.</desc>
    <defs>
        <polygon id="path-1" points="15.4998 0.0001 15.4998 2.6671 18.1668 2.6671"></polygon>
        <filter x="-262.5%" y="-187.5%" width="624.9%" height="624.9%" filterUnits="objectBoundingBox" id="filter-2">
            <feOffset dx="0" dy="2" in="SourceAlpha" result="shadowOffsetOuter1"></feOffset>
            <feGaussianBlur stdDeviation="2" in="shadowOffsetOuter1" result="shadowBlurOuter1"></feGaussianBlur>
            <feColorMatrix values="0 0 0 0 0   0 0 0 0 0   0 0 0 0 0  0 0 0 0.5 0" type="matrix" in="shadowBlurOuter1"></feColorMatrix>
        </filter>
    </defs>
    <g id="页面1" stroke="none" stroke-width="1" fill="none" fill-rule="evenodd">
        <g id="订单-办理中订单-产品详情-文档" transform="translate(-618.000000, -651.000000)">
            <g id="编组-21" transform="translate(618.000000, 651.000000)">
                <rect id="矩形" stroke="#979797" fill="#D8D8D8" opacity="0" x="0.5" y="0.5" width="21" height="21"></rect>
                <g id="编组复制-5" transform="translate(2.000000, 2.000000)">
                    <path d="M0,2.0001 L0,16.1671 C1.3527075e-16,17.2716695 0.8954305,18.1671 2,18.1671 L16.167,18.1671 C17.2715695,18.1671 18.167,17.2716695 18.167,16.1671 L18.167,3.49552712 C18.167,2.96509415 17.9562863,2.45638632 17.5812136,2.08131356 L16.0857864,0.585886438 C15.7107137,0.210813681 15.2020059,0.0001 14.6715729,0.0001 L2,0.0001 C0.8954305,0.0001 -1.3527075e-16,0.8955305 0,2.0001 Z" id="Fill-2" fill="#849DD5"></path>
                    <g id="音乐" transform="translate(6.000000, 4.000000)" fill="#FFFFFF" fill-rule="nonzero">
                        <path d="M7.97636858,3.88352907 C7.94388521,4.05164565 7.89079714,4.18851016 7.81771931,4.29413238 C7.74463172,4.39975459 7.68279813,4.44912308 7.63220879,4.44224762 C7.580985,4.43474713 7.53538334,4.39849473 7.49541356,4.33288493 C7.45544378,4.26725559 7.42420977,4.14664216 7.40234595,3.97165013 C7.36612425,3.68667036 7.27305664,3.47667602 7.12377758,3.34167687 C6.97448875,3.20668748 6.74338632,3.10981585 6.42983585,3.05169677 C6.10191773,2.98606743 5.81272004,2.85295317 5.56100315,2.6517094 C5.30991094,2.45110045 5.10003789,2.26298255 4.93264309,2.08736548 C4.77274445,1.93362485 4.64906751,1.87924626 4.56162203,1.92299915 C4.47417655,1.96675203 4.43045869,2.04736283 4.43045869,2.16422602 L4.43045869,2.63545833 L4.41983913,7.45460486 L4.41983913,8.07896251 C4.42733529,8.25394478 4.39984935,8.44956318 4.33801576,8.66517312 C4.27618217,8.88079283 4.15937672,9.08327692 3.98823383,9.27326994 C3.81709094,9.46326296 3.58911192,9.62575416 3.30553634,9.76075332 C3.02133609,9.89574271 2.66780608,9.97448814 2.245571,9.99636459 C1.81583975,10.018241 1.42796208,9.94136096 1.08192824,9.76636892 C0.735894394,9.59138666 0.467935826,9.37015134 0.278677221,9.10390328 C0.0894186064,8.83767475 -0.00363923518,8.54517496 0.000108841311,8.22769304 C0.00384716685,7.91021113 0.140017707,7.61273054 0.409850323,7.3352415 C0.679682929,7.05775247 0.97074491,6.86401896 1.28430514,6.75463674 C1.59723093,6.64527405 1.89953715,6.58464504 2.19123357,6.5740291 C2.48292999,6.5634034 2.74276772,6.58340472 2.97262079,6.6340233 C3.20184918,6.68526692 3.37111802,6.73276029 3.48042731,6.77651319 C3.48042731,6.77651319 3.4841754,1.84425371 3.49167156,0.763674504 C3.49167156,0.551814803 3.54663366,0.378688135 3.65531827,0.243073707 C3.76462756,0.108084317 3.91015855,0.0293388745 4.09254568,0.00746243748 C4.24494816,-0.0156640934 4.37049914,0.0149629321 4.46856419,0.099333738 C4.56724415,0.183079507 4.667193,0.299952459 4.76899637,0.449942839 C4.87143418,0.599308172 4.9969754,0.769299878 5.14626423,0.959292899 C5.29554329,1.14928592 5.4979202,1.33551893 5.75276048,1.51802122 C5.97136931,1.68612802 6.16250195,1.80612619 6.32677335,1.87924626 C6.47945507,1.94753292 6.63248751,2.01503176 6.78586457,2.0817401 C6.92764748,2.14360943 7.06818103,2.21860462 7.20684054,2.30610064 C7.34550981,2.39360641 7.49853696,2.5360963 7.66593175,2.73295501 C7.83332656,2.92294803 7.93576436,3.11981651 7.97199582,3.32417571 C8.00759283,3.52916972 8.00947663,3.7154125 7.97636858,3.88352907 L7.97636858,3.88352907 Z" id="路径"></path>
                    </g>
                    <g id="Fill-1">
                        <use fill="black" fill-opacity="1" filter="url(#filter-2)" xlink:href="#path-1"></use>
                        <use fill="#DEE9E9" fill-rule="evenodd" xlink:href="#path-1"></use>
                    </g>
                </g>
            </g>
        </g>
    </g>
</svg>