<?xml version="1.0" encoding="UTF-8"?>
<svg width="22px" height="22px" viewBox="0 0 22 22" version="1.1" xmlns="http://www.w3.org/2000/svg" xmlns:xlink="http://www.w3.org/1999/xlink">
    <!-- Generator: Sketch 59.1 (86144) - https://sketch.com -->
    <title>icon_video</title>
    <desc>Created with Sketch.</desc>
    <defs>
        <polygon id="path-1" points="15.4998 0.0001 15.4998 2.6671 18.1668 2.6671"></polygon>
        <filter x="-262.5%" y="-187.5%" width="624.9%" height="624.9%" filterUnits="objectBoundingBox" id="filter-2">
            <feOffset dx="0" dy="2" in="SourceAlpha" result="shadowOffsetOuter1"></feOffset>
            <feGaussianBlur stdDeviation="2" in="shadowOffsetOuter1" result="shadowBlurOuter1"></feGaussianBlur>
            <feColorMatrix values="0 0 0 0 0   0 0 0 0 0   0 0 0 0 0  0 0 0 0.5 0" type="matrix" in="shadowBlurOuter1"></feColorMatrix>
        </filter>
    </defs>
    <g id="页面1" stroke="none" stroke-width="1" fill="none" fill-rule="evenodd">
        <g id="订单-办理中订单-产品详情-文档" transform="translate(-618.000000, -711.000000)">
            <g id="编组-22" transform="translate(618.000000, 711.000000)">
                <rect id="矩形" stroke="#979797" fill="#D8D8D8" opacity="0" x="0.5" y="0.5" width="21" height="21"></rect>
                <g id="编组复制-6" transform="translate(2.000000, 2.000000)">
                    <path d="M0,2.0001 L0,16.1671 C1.3527075e-16,17.2716695 0.8954305,18.1671 2,18.1671 L16.167,18.1671 C17.2715695,18.1671 18.167,17.2716695 18.167,16.1671 L18.167,3.49552712 C18.167,2.96509415 17.9562863,2.45638632 17.5812136,2.08131356 L16.0857864,0.585886438 C15.7107137,0.210813681 15.2020059,0.0001 14.6715729,0.0001 L2,0.0001 C0.8954305,0.0001 -1.3527075e-16,0.8955305 0,2.0001 Z" id="Fill-2" fill="#9E76EA"></path>
                    <path d="M11.3682431,7.0194255 L13.6450635,11.0038611 C13.9190734,11.4833785 13.7524767,12.0942332 13.2729593,12.3682431 C13.1218616,12.4545847 12.9508473,12.5 12.7768203,12.5 L8.22317968,12.5 C7.67089493,12.5 7.22317968,12.0522847 7.22317968,11.5 C7.22317968,11.3259731 7.268595,11.1549588 7.35493654,11.0038611 L9.63175686,7.0194255 C9.90576683,6.53990805 10.5166215,6.37331133 10.9961389,6.64732129 C11.1511702,6.7359106 11.2796538,6.86439422 11.3682431,7.0194255 Z" id="三角形" fill="#FFFFFF" transform="translate(10.500000, 9.000000) rotate(-270.000000) translate(-10.500000, -9.000000) "></path>
                    <g id="Fill-1">
                        <use fill="black" fill-opacity="1" filter="url(#filter-2)" xlink:href="#path-1"></use>
                        <use fill="#E9DEFF" fill-rule="evenodd" xlink:href="#path-1"></use>
                    </g>
                </g>
            </g>
        </g>
    </g>
</svg>